SplineFontDB: 3.0
FontName: LuckiestShoesRegular
FullName: Luckiest Shoes
FamilyName: Luckiest Shoes
Weight: Regular
Copyright: Copyright (c) 2010 by Brian J. Bonislawsky DBA Astigmatic (AOETI). All rights reserved. Available under the Apache 2.0 licence.\nhttp://www.apache.org/licenses/LICENSE-2.0.html
Version: 1.000
ItalicAngle: 0
UnderlinePosition: -226
UnderlineWidth: 40
Ascent: 1440
Descent: 608
sfntRevision: 0x00010000
LayerCount: 2
Layer: 0 1 "Back"  1
Layer: 1 1 "Fore"  0
NeedsXUIDChange: 1
XUID: [1021 998 1211054424 14312410]
FSType: 0
OS2Version: 3
OS2_WeightWidthSlopeOnly: 0
OS2_UseTypoMetrics: 1
CreationTime: 1292905860
ModificationTime: 1318715502
PfmFamily: 17
TTFWeight: 400
TTFWidth: 5
LineGap: 0
VLineGap: 0
Panose: 2 0 5 6 0 0 0 2 0 4
OS2TypoAscent: 0
OS2TypoAOffset: 1
OS2TypoDescent: 0
OS2TypoDOffset: 1
OS2TypoLinegap: 0
OS2WinAscent: -39
OS2WinAOffset: 1
OS2WinDescent: -212
OS2WinDOffset: 1
HheadAscent: -605
HheadAOffset: 1
HheadDescent: 108
HheadDOffset: 1
OS2SubXSize: 1400
OS2SubYSize: 1300
OS2SubXOff: 0
OS2SubYOff: 280
OS2SupXSize: 1400
OS2SupYSize: 1300
OS2SupXOff: 0
OS2SupYOff: 954
OS2StrikeYSize: 100
OS2StrikeYPos: 500
OS2Vendor: 'AOEF'
OS2CodePages: 00000093.00000000
OS2UnicodeRanges: a00000ef.4000004a.00000000.00000000
Lookup: 1 0 0 "'aalt' Access All Alternates in Latin lookup 0"  {"'aalt' Access All Alternates in Latin lookup 0 subtable"  } ['aalt' ('latn' <'dflt' > ) ]
Lookup: 1 0 0 "'sups' Superscript in Latin lookup 1"  {"'sups' Superscript in Latin lookup 1 subtable" ("superior" ) } ['sups' ('latn' <'dflt' > ) ]
Lookup: 4 0 1 "'liga' Standard Ligatures in Latin lookup 2"  {"'liga' Standard Ligatures in Latin lookup 2 subtable"  } ['liga' ('latn' <'dflt' > ) ]
Lookup: 6 0 0 "'ordn' Ordinals in Latin lookup 3"  {"'ordn' Ordinals in Latin lookup 3 subtable"  } ['ordn' ('latn' <'dflt' > ) ]

StartChar: zero
Encoding: 48 48 4
Width: 1296
Flags: W
LayerCount: 2
Fore
SplineSet
1267 716 m 0,0,1
 1267 628 1267 628 1247.5 541 c 128,-1,2
 1228 454 1228 454 1191 374 c 128,-1,3
 1154 294 1154 294 1100.5 225 c 128,-1,4
 1047 156 1047 156 978 105 c 128,-1,5
 909 54 909 54 826.5 25 c 128,-1,6
 744 -4 744 -4 649 -4 c 0,7,8
 553 -4 553 -4 470 25 c 128,-1,9
 387 54 387 54 318.5 105 c 128,-1,10
 250 156 250 156 196 225 c 128,-1,11
 142 294 142 294 105 374 c 128,-1,12
 68 454 68 454 48.5 541.5 c 128,-1,13
 29 629 29 629 29 716 c 256,14,15
 29 803 29 803 48.5 891 c 128,-1,16
 68 979 68 979 105 1059 c 128,-1,17
 142 1139 142 1139 196 1208.5 c 128,-1,18
 250 1278 250 1278 318.5 1329 c 128,-1,19
 387 1380 387 1380 470.5 1409 c 128,-1,20
 554 1438 554 1438 649 1438 c 256,21,22
 744 1438 744 1438 826.5 1409 c 128,-1,23
 909 1380 909 1380 978 1329 c 128,-1,24
 1047 1278 1047 1278 1100.5 1208.5 c 128,-1,25
 1154 1139 1154 1139 1191 1059 c 128,-1,26
 1228 979 1228 979 1247.5 891 c 128,-1,27
 1267 803 1267 803 1267 716 c 0,0,1
845 686 m 256,28,29
 845 730 845 730 833 784 c 128,-1,30
 821 838 821 838 796 885 c 128,-1,31
 771 932 771 932 732 964 c 128,-1,32
 693 996 693 996 639 996 c 0,33,34
 584 996 584 996 545 964 c 128,-1,35
 506 932 506 932 480.5 885 c 128,-1,36
 455 838 455 838 443 784 c 128,-1,37
 431 730 431 730 431 686 c 256,38,39
 431 642 431 642 443 588 c 128,-1,40
 455 534 455 534 480.5 487 c 128,-1,41
 506 440 506 440 545 408 c 128,-1,42
 584 376 584 376 639 376 c 0,43,44
 693 376 693 376 732 408 c 128,-1,45
 771 440 771 440 796 487 c 128,-1,46
 821 534 821 534 833 588 c 128,-1,47
 845 642 845 642 845 686 c 256,28,29
EndSplineSet
Validated: 1
EndChar

StartChar: one
Encoding: 49 49 5
Width: 795
Flags: W
LayerCount: 2
Fore
SplineSet
750 1438 m 1,0,-1
 692 16 l 1,1,-1
 256 36 l 1,2,-1
 280 982 l 1,3,-1
 120 872 l 1,4,-1
 -30 1214 l 1,5,-1
 296 1458 l 1,6,-1
 750 1438 l 1,0,-1
EndSplineSet
Validated: 1
Substitution2: "'sups' Superscript in Latin lookup 1 subtable" onesuperior
Substitution2: "'aalt' Access All Alternates in Latin lookup 0 subtable" onesuperior
EndChar

StartChar: two
Encoding: 50 50 6
Width: 1043
Flags: W
LayerCount: 2
Fore
SplineSet
1008 942 m 0,0,1
 1008 862 1008 862 979 789.5 c 128,-1,2
 950 717 950 717 902.5 653.5 c 128,-1,3
 855 590 855 590 794.5 536.5 c 128,-1,4
 734 483 734 483 672 440 c 1,5,-1
 988 440 l 1,6,-1
 964 24 l 1,7,-1
 28 56 l 1,8,-1
 28 420 l 1,9,10
 81 438 81 438 139.5 463.5 c 128,-1,11
 198 489 198 489 254.5 522 c 128,-1,12
 311 555 311 555 361.5 596 c 128,-1,13
 412 637 412 637 450.5 685.5 c 128,-1,14
 489 734 489 734 511.5 791 c 128,-1,15
 534 848 534 848 534 914 c 0,16,17
 534 952 534 952 520.5 981 c 128,-1,18
 507 1010 507 1010 483 1029.5 c 128,-1,19
 459 1049 459 1049 427.5 1058.5 c 128,-1,20
 396 1068 396 1068 360 1068 c 0,21,22
 330 1068 330 1068 299 1061.5 c 128,-1,23
 268 1055 268 1055 238 1043 c 128,-1,24
 208 1031 208 1031 181.5 1013.5 c 128,-1,25
 155 996 155 996 134 974 c 1,26,-1
 46 1366 l 1,27,28
 83 1403 83 1403 131 1428 c 128,-1,29
 179 1453 179 1453 232 1468.5 c 128,-1,30
 285 1484 285 1484 340 1491 c 128,-1,31
 395 1498 395 1498 448 1498 c 0,32,33
 566 1498 566 1498 668 1455.5 c 128,-1,34
 770 1413 770 1413 845.5 1338.5 c 128,-1,35
 921 1264 921 1264 964.5 1162 c 128,-1,36
 1008 1060 1008 1060 1008 942 c 0,0,1
EndSplineSet
Validated: 1
Substitution2: "'sups' Superscript in Latin lookup 1 subtable" twosuperior
Substitution2: "'aalt' Access All Alternates in Latin lookup 0 subtable" twosuperior
EndChar

StartChar: three
Encoding: 51 51 7
Width: 1081
Flags: W
LayerCount: 2
Fore
SplineSet
1046 504 m 0,0,1
 1046 371 1046 371 1003.5 273.5 c 128,-1,2
 961 176 961 176 885 111.5 c 128,-1,3
 809 47 809 47 703.5 15.5 c 128,-1,4
 598 -16 598 -16 472 -16 c 0,5,6
 415 -16 415 -16 355 -5 c 128,-1,7
 295 6 295 6 236 25 c 128,-1,8
 177 44 177 44 121.5 70 c 128,-1,9
 66 96 66 96 18 126 c 1,10,-1
 56 528 l 1,11,12
 94 502 94 502 141 478.5 c 128,-1,13
 188 455 188 455 238.5 436.5 c 128,-1,14
 289 418 289 418 340.5 407 c 128,-1,15
 392 396 392 396 440 396 c 0,16,17
 468 396 468 396 497.5 400.5 c 128,-1,18
 527 405 527 405 551 417 c 128,-1,19
 575 429 575 429 590.5 451 c 128,-1,20
 606 473 606 473 606 508 c 0,21,22
 606 530 606 530 586 549 c 128,-1,23
 566 568 566 568 538 581.5 c 128,-1,24
 510 595 510 595 480 602.5 c 128,-1,25
 450 610 450 610 430 610 c 0,26,27
 416 610 416 610 396.5 608.5 c 128,-1,28
 377 607 377 607 357 604 c 128,-1,29
 337 601 337 601 318.5 595.5 c 128,-1,30
 300 590 300 590 290 582 c 1,31,-1
 296 868 l 1,32,33
 313 866 313 866 328 865 c 128,-1,34
 343 864 343 864 360 864 c 0,35,36
 395 864 395 864 436 870.5 c 128,-1,37
 477 877 477 877 512 893.5 c 128,-1,38
 547 910 547 910 570.5 939 c 128,-1,39
 594 968 594 968 594 1014 c 0,40,41
 594 1047 594 1047 576 1067.5 c 128,-1,42
 558 1088 558 1088 531.5 1099 c 128,-1,43
 505 1110 505 1110 474 1114 c 128,-1,44
 443 1118 443 1118 418 1118 c 0,45,46
 337 1118 337 1118 258.5 1090 c 128,-1,47
 180 1062 180 1062 120 1008 c 1,48,-1
 36 1372 l 1,49,50
 128 1447 128 1447 245.5 1486.5 c 128,-1,51
 363 1526 363 1526 482 1526 c 0,52,53
 591 1526 591 1526 690.5 1494.5 c 128,-1,54
 790 1463 790 1463 866 1401.5 c 128,-1,55
 942 1340 942 1340 987 1250 c 128,-1,56
 1032 1160 1032 1160 1032 1042 c 0,57,58
 1032 1008 1032 1008 1022 973 c 128,-1,59
 1012 938 1012 938 995 905 c 128,-1,60
 978 872 978 872 955 843.5 c 128,-1,61
 932 815 932 815 906 794 c 1,62,63
 948 775 948 775 975 743 c 128,-1,64
 1002 711 1002 711 1018 672 c 128,-1,65
 1034 633 1034 633 1040 589.5 c 128,-1,66
 1046 546 1046 546 1046 504 c 0,0,1
EndSplineSet
Validated: 1
Substitution2: "'sups' Superscript in Latin lookup 1 subtable" threesuperior
Substitution2: "'aalt' Access All Alternates in Latin lookup 0 subtable" threesuperior
EndChar

StartChar: four
Encoding: 52 52 8
Width: 1104
Flags: W
LayerCount: 2
Fore
SplineSet
1068 480 m 1,0,-1
 980 478 l 1,1,-1
 962 46 l 1,2,-1
 510 6 l 1,3,-1
 534 468 l 1,4,-1
 0 456 l 1,5,-1
 148 1334 l 1,6,-1
 526 1334 l 1,7,-1
 416 722 l 1,8,-1
 548 726 l 1,9,-1
 586 1484 l 1,10,-1
 1020 1484 l 1,11,-1
 990 742 l 1,12,-1
 1068 746 l 1,13,-1
 1068 480 l 1,0,-1
EndSplineSet
Validated: 1
EndChar

StartChar: five
Encoding: 53 53 9
Width: 1087
Flags: W
LayerCount: 2
Fore
SplineSet
1066 504 m 0,0,1
 1066 374 1066 374 1019.5 278 c 128,-1,2
 973 182 973 182 893 119 c 128,-1,3
 813 56 813 56 705 25 c 128,-1,4
 597 -6 597 -6 474 -6 c 0,5,6
 415 -6 415 -6 358 2.5 c 128,-1,7
 301 11 301 11 245.5 25.5 c 128,-1,8
 190 40 190 40 135.5 59 c 128,-1,9
 81 78 81 78 26 100 c 1,10,-1
 64 498 l 1,11,12
 100 478 100 478 141 461 c 128,-1,13
 182 444 182 444 225.5 432 c 128,-1,14
 269 420 269 420 313.5 413 c 128,-1,15
 358 406 358 406 400 406 c 0,16,17
 425 406 425 406 461 410.5 c 128,-1,18
 497 415 497 415 530 427.5 c 128,-1,19
 563 440 563 440 586.5 461.5 c 128,-1,20
 610 483 610 483 610 518 c 0,21,22
 610 551 610 551 591.5 575 c 128,-1,23
 573 599 573 599 543.5 614.5 c 128,-1,24
 514 630 514 630 477 639 c 128,-1,25
 440 648 440 648 402.5 653 c 128,-1,26
 365 658 365 658 331.5 659 c 128,-1,27
 298 660 298 660 276 660 c 0,28,29
 231 660 231 660 184.5 656 c 128,-1,30
 138 652 138 652 94 640 c 1,31,-1
 134 1448 l 1,32,-1
 944 1470 l 1,33,-1
 966 1052 l 1,34,-1
 464 1080 l 1,35,-1
 454 902 l 1,36,37
 499 913 499 913 544 918.5 c 128,-1,38
 589 924 589 924 634 924 c 0,39,40
 725 924 725 924 803.5 894.5 c 128,-1,41
 882 865 882 865 940.5 810 c 128,-1,42
 999 755 999 755 1032.5 677.5 c 128,-1,43
 1066 600 1066 600 1066 504 c 0,0,1
EndSplineSet
Validated: 1
EndChar

StartChar: six
Encoding: 54 54 10
Width: 1174
Flags: W
LayerCount: 2
Fore
SplineSet
1158 510 m 0,0,1
 1158 388 1158 388 1115 288.5 c 128,-1,2
 1072 189 1072 189 996.5 118.5 c 128,-1,3
 921 48 921 48 817 9 c 128,-1,4
 713 -30 713 -30 592 -30 c 0,5,6
 493 -30 493 -30 413.5 -3 c 128,-1,7
 334 24 334 24 271.5 72 c 128,-1,8
 209 120 209 120 164 186 c 128,-1,9
 119 252 119 252 89.5 329 c 128,-1,10
 60 406 60 406 46 492 c 128,-1,11
 32 578 32 578 32 666 c 0,12,13
 32 774 32 774 48 876.5 c 128,-1,14
 64 979 64 979 97.5 1069 c 128,-1,15
 131 1159 131 1159 184 1235 c 128,-1,16
 237 1311 237 1311 310 1365 c 128,-1,17
 383 1419 383 1419 477.5 1449.5 c 128,-1,18
 572 1480 572 1480 690 1480 c 0,19,20
 733 1480 733 1480 778 1476.5 c 128,-1,21
 823 1473 823 1473 868 1464 c 128,-1,22
 913 1455 913 1455 955.5 1440 c 128,-1,23
 998 1425 998 1425 1036 1402 c 1,24,-1
 1006 1008 l 1,25,26
 935 1043 935 1043 852.5 1061.5 c 128,-1,27
 770 1080 770 1080 692 1080 c 0,28,29
 630 1080 630 1080 585 1061.5 c 128,-1,30
 540 1043 540 1043 509 1009 c 128,-1,31
 478 975 478 975 460.5 927.5 c 128,-1,32
 443 880 443 880 438 822 c 1,33,34
 504 860 504 860 579 882 c 128,-1,35
 654 904 654 904 732 904 c 0,36,37
 820 904 820 904 898 877 c 128,-1,38
 976 850 976 850 1033.5 799 c 128,-1,39
 1091 748 1091 748 1124.5 675 c 128,-1,40
 1158 602 1158 602 1158 510 c 0,0,1
778 480 m 0,41,42
 778 511 778 511 764.5 535.5 c 128,-1,43
 751 560 751 560 729.5 577.5 c 128,-1,44
 708 595 708 595 680 604.5 c 128,-1,45
 652 614 652 614 624 614 c 256,46,47
 596 614 596 614 569 604.5 c 128,-1,48
 542 595 542 595 520.5 577.5 c 128,-1,49
 499 560 499 560 485.5 535.5 c 128,-1,50
 472 511 472 511 472 480 c 0,51,52
 472 450 472 450 485.5 425.5 c 128,-1,53
 499 401 499 401 520.5 384 c 128,-1,54
 542 367 542 367 569 357.5 c 128,-1,55
 596 348 596 348 624 348 c 256,56,57
 652 348 652 348 680 357.5 c 128,-1,58
 708 367 708 367 729.5 384 c 128,-1,59
 751 401 751 401 764.5 425.5 c 128,-1,60
 778 450 778 450 778 480 c 0,41,42
EndSplineSet
Validated: 1
EndChar

StartChar: seven
Encoding: 55 55 11
Width: 1036
Flags: W
LayerCount: 2
Fore
SplineSet
1010 1100 m 1,0,1
 909 817 909 817 827 587 c 0,2,3
 792 489 792 489 758 393.5 c 128,-1,4
 724 298 724 298 695.5 219.5 c 128,-1,5
 667 141 667 141 648 87 c 128,-1,6
 629 33 629 33 624 20 c 1,7,-1
 100 50 l 1,8,-1
 562 1044 l 1,9,-1
 18 1014 l 1,10,-1
 18 1446 l 1,11,-1
 1010 1464 l 1,12,-1
 1010 1100 l 1,0,1
EndSplineSet
Validated: 1
EndChar

StartChar: eight
Encoding: 56 56 12
Width: 1170
Flags: W
LayerCount: 2
Fore
SplineSet
1141 442 m 0,0,1
 1141 361 1141 361 1119 297 c 128,-1,2
 1097 233 1097 233 1058.5 183.5 c 128,-1,3
 1020 134 1020 134 967.5 99 c 128,-1,4
 915 64 915 64 852.5 41.5 c 128,-1,5
 790 19 790 19 721 8.5 c 128,-1,6
 652 -2 652 -2 581 -2 c 0,7,8
 480 -2 480 -2 381.5 25 c 128,-1,9
 283 52 283 52 204.5 107.5 c 128,-1,10
 126 163 126 163 77.5 246 c 128,-1,11
 29 329 29 329 29 442 c 0,12,13
 29 488 29 488 40 534.5 c 128,-1,14
 51 581 51 581 72 623 c 128,-1,15
 93 665 93 665 125 699 c 128,-1,16
 157 733 157 733 199 756 c 1,17,18
 133 815 133 815 100 891.5 c 128,-1,19
 67 968 67 968 67 1056 c 0,20,21
 67 1159 67 1159 112.5 1236.5 c 128,-1,22
 158 1314 158 1314 231.5 1366.5 c 128,-1,23
 305 1419 305 1419 397 1445.5 c 128,-1,24
 489 1472 489 1472 581 1472 c 0,25,26
 642 1472 642 1472 703.5 1460 c 128,-1,27
 765 1448 765 1448 822 1425 c 128,-1,28
 879 1402 879 1402 928.5 1367 c 128,-1,29
 978 1332 978 1332 1014.5 1285.5 c 128,-1,30
 1051 1239 1051 1239 1072 1181.5 c 128,-1,31
 1093 1124 1093 1124 1093 1056 c 0,32,33
 1093 968 1093 968 1060 891.5 c 128,-1,34
 1027 815 1027 815 961 756 c 1,35,36
 1057 706 1057 706 1099 627 c 128,-1,37
 1141 548 1141 548 1141 442 c 0,0,1
747 960 m 256,38,39
 747 993 747 993 732.5 1019.5 c 128,-1,40
 718 1046 718 1046 694 1065 c 128,-1,41
 670 1084 670 1084 640.5 1094 c 128,-1,42
 611 1104 611 1104 581 1104 c 0,43,44
 550 1104 550 1104 520 1094 c 128,-1,45
 490 1084 490 1084 466 1065 c 128,-1,46
 442 1046 442 1046 427.5 1019.5 c 128,-1,47
 413 993 413 993 413 960 c 256,48,49
 413 927 413 927 427.5 900.5 c 128,-1,50
 442 874 442 874 466 856 c 128,-1,51
 490 838 490 838 520 828 c 128,-1,52
 550 818 550 818 581 818 c 0,53,54
 611 818 611 818 640.5 828 c 128,-1,55
 670 838 670 838 694 856 c 128,-1,56
 718 874 718 874 732.5 900.5 c 128,-1,57
 747 927 747 927 747 960 c 256,38,39
745 490 m 0,58,59
 745 523 745 523 730.5 549.5 c 128,-1,60
 716 576 716 576 693 594 c 128,-1,61
 670 612 670 612 640.5 622 c 128,-1,62
 611 632 611 632 581 632 c 256,63,64
 551 632 551 632 521.5 622 c 128,-1,65
 492 612 492 612 468 594 c 128,-1,66
 444 576 444 576 429.5 549.5 c 128,-1,67
 415 523 415 523 415 490 c 0,68,69
 415 458 415 458 429.5 432 c 128,-1,70
 444 406 444 406 468 388 c 128,-1,71
 492 370 492 370 521.5 360 c 128,-1,72
 551 350 551 350 581 350 c 256,73,74
 611 350 611 350 640.5 360 c 128,-1,75
 670 370 670 370 693 388 c 128,-1,76
 716 406 716 406 730.5 432 c 128,-1,77
 745 458 745 458 745 490 c 0,58,59
EndSplineSet
Validated: 1
EndChar

StartChar: nine
Encoding: 57 57 13
Width: 1137
Flags: W
LayerCount: 2
Fore
SplineSet
1104 818 m 0,0,1
 1104 723 1104 723 1089 626.5 c 128,-1,2
 1074 530 1074 530 1042.5 439.5 c 128,-1,3
 1011 349 1011 349 962 270 c 128,-1,4
 913 191 913 191 845 132.5 c 128,-1,5
 777 74 777 74 688.5 40 c 128,-1,6
 600 6 600 6 490 6 c 0,7,8
 442 6 442 6 389.5 10.5 c 128,-1,9
 337 15 337 15 285.5 25.5 c 128,-1,10
 234 36 234 36 185 54.5 c 128,-1,11
 136 73 136 73 96 102 c 1,12,-1
 148 480 l 1,13,14
 179 462 179 462 218 446.5 c 128,-1,15
 257 431 257 431 298 419 c 128,-1,16
 339 407 339 407 380 400.5 c 128,-1,17
 421 394 421 394 458 394 c 0,18,19
 516 394 516 394 558.5 410.5 c 128,-1,20
 601 427 601 427 630.5 458 c 128,-1,21
 660 489 660 489 678 532.5 c 128,-1,22
 696 576 696 576 704 630 c 1,23,24
 644 598 644 598 578 581 c 128,-1,25
 512 564 512 564 444 564 c 0,26,27
 360 564 360 564 284 590 c 128,-1,28
 208 616 208 616 151 664.5 c 128,-1,29
 94 713 94 713 60 783 c 128,-1,30
 26 853 26 853 26 942 c 0,31,32
 26 1056 26 1056 67.5 1151 c 128,-1,33
 109 1246 109 1246 181 1314 c 128,-1,34
 253 1382 253 1382 351.5 1420 c 128,-1,35
 450 1458 450 1458 564 1458 c 0,36,37
 703 1458 703 1458 804.5 1406.5 c 128,-1,38
 906 1355 906 1355 972.5 1267.5 c 128,-1,39
 1039 1180 1039 1180 1071.5 1064 c 128,-1,40
 1104 948 1104 948 1104 818 c 0,0,1
690 964 m 0,41,42
 690 994 690 994 676.5 1018 c 128,-1,43
 663 1042 663 1042 642 1059 c 128,-1,44
 621 1076 621 1076 594 1085 c 128,-1,45
 567 1094 567 1094 540 1094 c 256,46,47
 513 1094 513 1094 487 1085.5 c 128,-1,48
 461 1077 461 1077 440 1060.5 c 128,-1,49
 419 1044 419 1044 406.5 1020.5 c 128,-1,50
 394 997 394 997 394 968 c 256,51,52
 394 939 394 939 407.5 915 c 128,-1,53
 421 891 421 891 442 874 c 128,-1,54
 463 857 463 857 490 847.5 c 128,-1,55
 517 838 517 838 544 838 c 256,56,57
 571 838 571 838 597 847 c 128,-1,58
 623 856 623 856 644 872.5 c 128,-1,59
 665 889 665 889 677.5 912 c 128,-1,60
 690 935 690 935 690 964 c 0,41,42
EndSplineSet
Validated: 1
EndChar

StartChar: A
Encoding: 65 65 14
Width: 1282
Flags: W
LayerCount: 2
Fore
SplineSet
1312 86 m 1,0,-1
 816 22 l 1,1,-1
 756 248 l 1,2,-1
 528 248 l 1,3,-1
 478 22 l 1,4,-1
 -32 72 l 1,5,-1
 366 1404 l 1,6,-1
 922 1432 l 1,7,-1
 1312 86 l 1,0,-1
720 554 m 1,8,-1
 644 902 l 1,9,-1
 570 554 l 1,10,-1
 720 554 l 1,8,-1
EndSplineSet
Validated: 1
EndChar

StartChar: B
Encoding: 66 66 15
Width: 1217
Flags: W
LayerCount: 2
Fore
SplineSet
1215 356 m 0,0,1
 1215 273 1215 273 1184.5 213 c 128,-1,2
 1154 153 1154 153 1103 111 c 128,-1,3
 1052 69 1052 69 985.5 42.5 c 128,-1,4
 919 16 919 16 847 1 c 128,-1,5
 775 -14 775 -14 702.5 -19 c 128,-1,6
 630 -24 630 -24 567 -24 c 0,7,8
 505 -24 505 -24 438.5 -19.5 c 128,-1,9
 372 -15 372 -15 306 -4 c 128,-1,10
 240 7 240 7 176 25.5 c 128,-1,11
 112 44 112 44 55 72 c 1,12,-1
 53 1360 l 1,13,14
 109 1383 109 1383 172 1401.5 c 128,-1,15
 235 1420 235 1420 300.5 1432.5 c 128,-1,16
 366 1445 366 1445 431 1451.5 c 128,-1,17
 496 1458 496 1458 557 1458 c 0,18,19
 628 1458 628 1458 700.5 1449 c 128,-1,20
 773 1440 773 1440 840 1419 c 128,-1,21
 907 1398 907 1398 965 1364.5 c 128,-1,22
 1023 1331 1023 1331 1066.5 1282 c 128,-1,23
 1110 1233 1110 1233 1134.5 1168 c 128,-1,24
 1159 1103 1159 1103 1159 1018 c 0,25,26
 1159 962 1159 962 1143 913 c 128,-1,27
 1127 864 1127 864 1097 825 c 128,-1,28
 1067 786 1067 786 1024 758.5 c 128,-1,29
 981 731 981 731 927 718 c 1,30,31
 992 701 992 701 1045.5 668 c 128,-1,32
 1099 635 1099 635 1136.5 588 c 128,-1,33
 1174 541 1174 541 1194.5 482 c 128,-1,34
 1215 423 1215 423 1215 356 c 0,0,1
707 926 m 0,35,36
 707 955 707 955 695 975.5 c 128,-1,37
 683 996 683 996 665.5 1009 c 128,-1,38
 648 1022 648 1022 627.5 1028 c 128,-1,39
 607 1034 607 1034 591 1034 c 0,40,41
 571 1034 571 1034 552 1028 c 128,-1,42
 533 1022 533 1022 515 1014 c 1,43,-1
 509 792 l 1,44,45
 532 792 532 792 566 796 c 128,-1,46
 600 800 600 800 631.5 813.5 c 128,-1,47
 663 827 663 827 685 853.5 c 128,-1,48
 707 880 707 880 707 926 c 0,35,36
565 600 m 0,49,50
 536 600 536 600 509 594 c 1,51,-1
 505 366 l 1,52,53
 520 363 520 363 534.5 360.5 c 128,-1,54
 549 358 549 358 563 358 c 0,55,56
 584 358 584 358 609 362.5 c 128,-1,57
 634 367 634 367 656 380.5 c 128,-1,58
 678 394 678 394 692.5 417 c 128,-1,59
 707 440 707 440 707 478 c 256,60,61
 707 516 707 516 692.5 540 c 128,-1,62
 678 564 678 564 657 577.5 c 128,-1,63
 636 591 636 591 611 595.5 c 128,-1,64
 586 600 586 600 565 600 c 0,49,50
EndSplineSet
Validated: 1
EndChar

StartChar: C
Encoding: 67 67 16
Width: 1054
Flags: W
LayerCount: 2
Fore
SplineSet
1042 1406 m 1,0,-1
 986 984 l 1,1,2
 957 992 957 992 928 995 c 128,-1,3
 899 998 899 998 870 998 c 0,4,5
 796 998 796 998 729 978.5 c 128,-1,6
 662 959 662 959 610.5 919 c 128,-1,7
 559 879 559 879 528.5 819 c 128,-1,8
 498 759 498 759 498 678 c 0,9,10
 498 626 498 626 514.5 588 c 128,-1,11
 531 550 531 550 561 525 c 128,-1,12
 591 500 591 500 632 488 c 128,-1,13
 673 476 673 476 722 476 c 0,14,15
 759 476 759 476 799 484 c 128,-1,16
 839 492 839 492 878 505 c 128,-1,17
 917 518 917 518 954 535 c 128,-1,18
 991 552 991 552 1022 570 c 1,19,-1
 982 100 l 1,20,21
 943 80 943 80 897.5 64.5 c 128,-1,22
 852 49 852 49 804 37.5 c 128,-1,23
 756 26 756 26 708 20 c 128,-1,24
 660 14 660 14 616 14 c 0,25,26
 489 14 489 14 379 61 c 128,-1,27
 269 108 269 108 188 190 c 128,-1,28
 107 272 107 272 60.5 383.5 c 128,-1,29
 14 495 14 495 14 624 c 0,30,31
 14 795 14 795 63 946.5 c 128,-1,32
 112 1098 112 1098 207 1212 c 128,-1,33
 302 1326 302 1326 442.5 1392 c 128,-1,34
 583 1458 583 1458 766 1458 c 0,35,36
 835 1458 835 1458 907.5 1447 c 128,-1,37
 980 1436 980 1436 1042 1406 c 1,0,-1
EndSplineSet
Validated: 1
EndChar

StartChar: D
Encoding: 68 68 17
Width: 1193
Flags: W
LayerCount: 2
Fore
SplineSet
1184 794 m 0,0,1
 1184 654 1184 654 1148 541.5 c 128,-1,2
 1112 429 1112 429 1047.5 341.5 c 128,-1,3
 983 254 983 254 894 191 c 128,-1,4
 805 128 805 128 699 87.5 c 128,-1,5
 593 47 593 47 473.5 27.5 c 128,-1,6
 354 8 354 8 228 8 c 0,7,8
 181 8 181 8 136 10.5 c 128,-1,9
 91 13 91 13 44 18 c 1,10,-1
 72 1360 l 1,11,12
 182 1395 182 1395 298.5 1409.5 c 128,-1,13
 415 1424 415 1424 530 1424 c 0,14,15
 673 1424 673 1424 793 1381 c 128,-1,16
 913 1338 913 1338 1000 1257 c 128,-1,17
 1087 1176 1087 1176 1135.5 1059 c 128,-1,18
 1184 942 1184 942 1184 794 c 0,0,1
774 730 m 1,19,20
 775 784 775 784 762.5 834 c 128,-1,21
 750 884 750 884 721.5 922.5 c 128,-1,22
 693 961 693 961 649 984.5 c 128,-1,23
 605 1008 605 1008 544 1010 c 1,24,-1
 504 390 l 1,25,26
 564 399 564 399 613 429.5 c 128,-1,27
 662 460 662 460 697.5 504.5 c 128,-1,28
 733 549 733 549 752.5 603.5 c 128,-1,29
 772 658 772 658 774 716 c 1,30,-1
 774 730 l 1,19,20
EndSplineSet
Validated: 33
EndChar

StartChar: E
Encoding: 69 69 18
Width: 981
Flags: W
LayerCount: 2
Fore
SplineSet
998 1442 m 1,0,1
 992 1348 992 1348 987 1256 c 128,-1,2
 982 1164 982 1164 974 1070 c 1,3,-1
 550 1048 l 1,4,-1
 540 922 l 1,5,-1
 838 922 l 1,6,-1
 816 612 l 1,7,-1
 516 602 l 1,8,-1
 506 456 l 1,9,-1
 754 456 l 1,10,-1
 930 456 l 1,11,12
 924 346 924 346 917.5 237.5 c 128,-1,13
 911 129 911 129 906 20 c 1,14,-1
 44 0 l 1,15,-1
 76 1442 l 1,16,-1
 998 1442 l 1,0,1
EndSplineSet
Validated: 1
EndChar

StartChar: F
Encoding: 70 70 19
Width: 998
Flags: W
LayerCount: 2
Fore
SplineSet
998 1442 m 1,0,1
 992 1348 992 1348 987 1256 c 128,-1,2
 982 1164 982 1164 974 1070 c 1,3,-1
 550 1048 l 1,4,-1
 550 922 l 1,5,-1
 918 922 l 1,6,-1
 898 612 l 1,7,-1
 548 602 l 1,8,-1
 550 10 l 1,9,-1
 44 0 l 1,10,-1
 76 1442 l 1,11,-1
 998 1442 l 1,0,1
EndSplineSet
Validated: 1
EndChar

StartChar: G
Encoding: 71 71 20
Width: 1283
Flags: W
LayerCount: 2
Fore
SplineSet
1258 204 m 1,0,1
 1211 145 1211 145 1142 101 c 128,-1,2
 1073 57 1073 57 994 28 c 128,-1,3
 915 -1 915 -1 832 -15.5 c 128,-1,4
 749 -30 749 -30 674 -30 c 0,5,6
 529 -30 529 -30 407 22 c 128,-1,7
 285 74 285 74 196.5 165.5 c 128,-1,8
 108 257 108 257 58 381 c 128,-1,9
 8 505 8 505 8 648 c 0,10,11
 8 757 8 757 33 861.5 c 128,-1,12
 58 966 58 966 104.5 1058.5 c 128,-1,13
 151 1151 151 1151 218 1228.5 c 128,-1,14
 285 1306 285 1306 370 1362 c 128,-1,15
 455 1418 455 1418 556 1449 c 128,-1,16
 657 1480 657 1480 772 1480 c 0,17,18
 815 1480 815 1480 864 1476.5 c 128,-1,19
 913 1473 913 1473 961.5 1464.5 c 128,-1,20
 1010 1456 1010 1456 1056 1441 c 128,-1,21
 1102 1426 1102 1426 1140 1404 c 1,22,-1
 1112 1022 l 1,23,24
 1056 1043 1056 1043 996.5 1050.5 c 128,-1,25
 937 1058 937 1058 880 1058 c 0,26,27
 800 1058 800 1058 730.5 1033.5 c 128,-1,28
 661 1009 661 1009 609.5 963 c 128,-1,29
 558 917 558 917 528 851 c 128,-1,30
 498 785 498 785 498 702 c 0,31,32
 498 650 498 650 512 601.5 c 128,-1,33
 526 553 526 553 554.5 515.5 c 128,-1,34
 583 478 583 478 625.5 455 c 128,-1,35
 668 432 668 432 724 432 c 0,36,37
 762 432 762 432 802.5 442 c 128,-1,38
 843 452 843 452 872 476 c 1,39,-1
 876 554 l 1,40,-1
 636 558 l 1,41,-1
 648 858 l 1,42,43
 797 863 797 863 946 866.5 c 128,-1,44
 1095 870 1095 870 1246 876 c 1,45,-1
 1258 204 l 1,0,1
EndSplineSet
Validated: 1
EndChar

StartChar: H
Encoding: 72 72 21
Width: 1282
Flags: W
LayerCount: 2
Fore
SplineSet
1238 0 m 1,0,-1
 738 -24 l 1,1,-1
 734 438 l 1,2,-1
 504 438 l 1,3,-1
 490 0 l 1,4,-1
 42 0 l 1,5,-1
 80 1406 l 1,6,-1
 556 1384 l 1,7,-1
 526 666 l 1,8,-1
 748 666 l 1,9,-1
 750 1438 l 1,10,-1
 1206 1426 l 1,11,-1
 1238 0 l 1,0,-1
EndSplineSet
Validated: 1
EndChar

StartChar: I
Encoding: 73 73 22
Width: 609
Flags: W
LayerCount: 2
Fore
SplineSet
591 1408 m 1,0,-1
 481 46 l 1,1,-1
 59 24 l 1,2,-1
 59 1380 l 1,3,-1
 591 1408 l 1,0,-1
EndSplineSet
Validated: 1
EndChar

StartChar: J
Encoding: 74 74 23
Width: 1044
Flags: W
LayerCount: 2
Fore
SplineSet
1006 824 m 0,0,1
 1006 765 1006 765 1006 707 c 128,-1,2
 1006 649 1006 649 1000 590 c 0,3,4
 989 465 989 465 946 353.5 c 128,-1,5
 903 242 903 242 829.5 158 c 128,-1,6
 756 74 756 74 651 25 c 128,-1,7
 546 -24 546 -24 410 -24 c 0,8,9
 357 -24 357 -24 299.5 -15 c 128,-1,10
 242 -6 242 -6 185.5 12 c 128,-1,11
 129 30 129 30 77.5 56.5 c 128,-1,12
 26 83 26 83 -14 118 c 1,13,-1
 48 532 l 1,14,15
 107 475 107 475 179 439.5 c 128,-1,16
 251 404 251 404 336 404 c 0,17,18
 391 404 391 404 429 420 c 128,-1,19
 467 436 467 436 492 464 c 128,-1,20
 517 492 517 492 531.5 529.5 c 128,-1,21
 546 567 546 567 552.5 609.5 c 128,-1,22
 559 652 559 652 560.5 697 c 128,-1,23
 562 742 562 742 562 786 c 0,24,25
 562 945 562 945 546 1102.5 c 128,-1,26
 530 1260 530 1260 518 1418 c 1,27,-1
 976 1448 l 1,28,29
 1006 1136 1006 1136 1006 824 c 0,0,1
EndSplineSet
Validated: 1
EndChar

StartChar: K
Encoding: 75 75 24
Width: 1258
Flags: W
LayerCount: 2
Fore
SplineSet
1319 1432 m 1,0,-1
 837 766 l 1,1,-1
 1243 58 l 1,2,-1
 779 -24 l 1,3,-1
 475 408 l 1,4,-1
 459 -44 l 1,5,-1
 43 -60 l 1,6,-1
 75 1472 l 1,7,-1
 541 1446 l 1,8,-1
 505 994 l 1,9,-1
 815 1472 l 1,10,-1
 1319 1432 l 1,0,-1
EndSplineSet
Validated: 1
EndChar

StartChar: L
Encoding: 76 76 25
Width: 926
Flags: W
LayerCount: 2
Fore
SplineSet
930 570 m 1,0,-1
 888 126 l 1,1,-1
 46 60 l 1,2,3
 52 409 52 409 59.5 754 c 128,-1,4
 67 1099 67 1099 78 1448 c 1,5,-1
 598 1448 l 1,6,7
 575 1229 575 1229 554 1010.5 c 128,-1,8
 533 792 533 792 524 570 c 1,9,10
 571 568 571 568 617 568 c 128,-1,11
 663 568 663 568 710 568 c 0,12,13
 766 568 766 568 820 569 c 128,-1,14
 874 570 874 570 930 570 c 1,0,-1
EndSplineSet
Validated: 1
EndChar

StartChar: M
Encoding: 77 77 26
Width: 1619
Flags: W
LayerCount: 2
Fore
SplineSet
1597 1458 m 1,0,-1
 1505 -10 l 1,1,-1
 1049 -30 l 1,2,-1
 1053 744 l 1,3,-1
 847 120 l 1,4,-1
 671 120 l 1,5,-1
 513 678 l 1,6,-1
 511 30 l 1,7,-1
 49 16 l 1,8,-1
 69 1398 l 1,9,-1
 583 1418 l 1,10,-1
 787 756 l 1,11,-1
 1059 1458 l 1,12,-1
 1597 1458 l 1,0,-1
EndSplineSet
Validated: 1
EndChar

StartChar: N
Encoding: 78 78 27
Width: 1441
Flags: W
LayerCount: 2
Fore
SplineSet
1411 1434 m 1,0,-1
 1339 78 l 1,1,-1
 815 30 l 1,2,-1
 535 756 l 1,3,-1
 491 16 l 1,4,-1
 41 16 l 1,5,-1
 77 1434 l 1,6,-1
 577 1458 l 1,7,-1
 923 738 l 1,8,-1
 939 1418 l 1,9,-1
 1411 1434 l 1,0,-1
EndSplineSet
Validated: 1
EndChar

StartChar: O
Encoding: 79 79 28
Width: 1306
Flags: W
LayerCount: 2
Fore
SplineSet
1287 706 m 0,0,1
 1287 615 1287 615 1266 530.5 c 128,-1,2
 1245 446 1245 446 1205.5 372 c 128,-1,3
 1166 298 1166 298 1109.5 236.5 c 128,-1,4
 1053 175 1053 175 982.5 131 c 128,-1,5
 912 87 912 87 829 62.5 c 128,-1,6
 746 38 746 38 653 38 c 0,7,8
 563 38 563 38 481.5 61 c 128,-1,9
 400 84 400 84 329 125.5 c 128,-1,10
 258 167 258 167 200.5 225.5 c 128,-1,11
 143 284 143 284 102.5 355.5 c 128,-1,12
 62 427 62 427 39.5 509 c 128,-1,13
 17 591 17 591 17 680 c 0,14,15
 17 767 17 767 38 850.5 c 128,-1,16
 59 934 59 934 98.5 1008 c 128,-1,17
 138 1082 138 1082 194 1144 c 128,-1,18
 250 1206 250 1206 319.5 1251 c 128,-1,19
 389 1296 389 1296 470 1321 c 128,-1,20
 551 1346 551 1346 641 1346 c 0,21,22
 786 1346 786 1346 905.5 1301 c 128,-1,23
 1025 1256 1025 1256 1109.5 1172.5 c 128,-1,24
 1194 1089 1194 1089 1240.5 970.5 c 128,-1,25
 1287 852 1287 852 1287 706 c 0,0,1
843 680 m 0,26,27
 843 723 843 723 830.5 763.5 c 128,-1,28
 818 804 818 804 794 835.5 c 128,-1,29
 770 867 770 867 734.5 886.5 c 128,-1,30
 699 906 699 906 653 906 c 0,31,32
 606 906 606 906 569 889 c 128,-1,33
 532 872 532 872 505.5 842.5 c 128,-1,34
 479 813 479 813 465 773.5 c 128,-1,35
 451 734 451 734 451 690 c 0,36,37
 451 648 451 648 463 606 c 128,-1,38
 475 564 475 564 499 530 c 128,-1,39
 523 496 523 496 558.5 475 c 128,-1,40
 594 454 594 454 641 454 c 256,41,42
 688 454 688 454 725.5 472.5 c 128,-1,43
 763 491 763 491 789 522.5 c 128,-1,44
 815 554 815 554 829 595 c 128,-1,45
 843 636 843 636 843 680 c 0,26,27
EndSplineSet
Validated: 1
EndChar

StartChar: P
Encoding: 80 80 29
Width: 1220
Flags: W
LayerCount: 2
Fore
SplineSet
1216 962 m 0,0,1
 1216 865 1216 865 1187 790 c 128,-1,2
 1158 715 1158 715 1107.5 659 c 128,-1,3
 1057 603 1057 603 989 564 c 128,-1,4
 921 525 921 525 843.5 500.5 c 128,-1,5
 766 476 766 476 683 464.5 c 128,-1,6
 600 453 600 453 520 452 c 1,7,-1
 520 -14 l 1,8,-1
 54 -14 l 1,9,10
 54 215 54 215 55 442 c 128,-1,11
 56 669 56 669 58 900 c 0,12,13
 60 1022 60 1022 59 1144 c 128,-1,14
 58 1266 58 1266 64 1390 c 1,15,16
 192 1428 192 1428 320 1447 c 128,-1,17
 448 1466 448 1466 584 1466 c 0,18,19
 661 1466 661 1466 738 1453.5 c 128,-1,20
 815 1441 815 1441 885.5 1414 c 128,-1,21
 956 1387 956 1387 1016.5 1346.5 c 128,-1,22
 1077 1306 1077 1306 1121 1250 c 128,-1,23
 1165 1194 1165 1194 1190.5 1122.5 c 128,-1,24
 1216 1051 1216 1051 1216 962 c 0,0,1
772 928 m 0,25,26
 772 993 772 993 732.5 1029.5 c 128,-1,27
 693 1066 693 1066 630 1066 c 0,28,29
 609 1066 609 1066 586.5 1062.5 c 128,-1,30
 564 1059 564 1059 544 1054 c 1,31,-1
 532 762 l 1,32,33
 546 760 546 760 559 760 c 128,-1,34
 572 760 572 760 586 760 c 0,35,36
 622 760 622 760 655.5 772 c 128,-1,37
 689 784 689 784 715 806.5 c 128,-1,38
 741 829 741 829 756.5 859.5 c 128,-1,39
 772 890 772 890 772 928 c 0,25,26
EndSplineSet
Validated: 33
EndChar

StartChar: Q
Encoding: 81 81 30
Width: 1415
Flags: W
LayerCount: 2
Fore
SplineSet
1395 744 m 0,0,1
 1395 592 1395 592 1338.5 454 c 128,-1,2
 1282 316 1282 316 1169 212 c 1,3,-1
 1307 48 l 1,4,-1
 941 -188 l 1,5,-1
 855 48 l 1,6,7
 817 40 817 40 778.5 36 c 128,-1,8
 740 32 740 32 701 32 c 0,9,10
 605 32 605 32 517 56 c 128,-1,11
 429 80 429 80 352 123.5 c 128,-1,12
 275 167 275 167 212 229 c 128,-1,13
 149 291 149 291 103.5 367 c 128,-1,14
 58 443 58 443 33.5 531.5 c 128,-1,15
 9 620 9 620 9 716 c 0,16,17
 9 811 9 811 32.5 900.5 c 128,-1,18
 56 990 56 990 99.5 1069 c 128,-1,19
 143 1148 143 1148 204.5 1213.5 c 128,-1,20
 266 1279 266 1279 342 1326.5 c 128,-1,21
 418 1374 418 1374 506 1400 c 128,-1,22
 594 1426 594 1426 691 1426 c 0,23,24
 846 1426 846 1426 975.5 1379 c 128,-1,25
 1105 1332 1105 1332 1198 1244 c 128,-1,26
 1291 1156 1291 1156 1343 1029.5 c 128,-1,27
 1395 903 1395 903 1395 744 c 0,0,1
909 716 m 0,28,29
 909 762 909 762 895.5 805.5 c 128,-1,30
 882 849 882 849 856 882.5 c 128,-1,31
 830 916 830 916 791 936 c 128,-1,32
 752 956 752 956 701 956 c 0,33,34
 651 956 651 956 611 938.5 c 128,-1,35
 571 921 571 921 542.5 890 c 128,-1,36
 514 859 514 859 498.5 817 c 128,-1,37
 483 775 483 775 483 726 c 0,38,39
 483 680 483 680 496.5 635.5 c 128,-1,40
 510 591 510 591 536 555.5 c 128,-1,41
 562 520 562 520 601 498 c 128,-1,42
 640 476 640 476 691 476 c 0,43,44
 740 476 740 476 780.5 495.5 c 128,-1,45
 821 515 821 515 849.5 548 c 128,-1,46
 878 581 878 581 893.5 624.5 c 128,-1,47
 909 668 909 668 909 716 c 0,28,29
EndSplineSet
Validated: 1
EndChar

StartChar: R
Encoding: 82 82 31
Width: 1241
Flags: W
LayerCount: 2
Fore
SplineSet
1223 964 m 0,0,1
 1223 886 1223 886 1209.5 822.5 c 128,-1,2
 1196 759 1196 759 1167 706 c 128,-1,3
 1138 653 1138 653 1092 608 c 128,-1,4
 1046 563 1046 563 981 522 c 1,5,-1
 1219 98 l 1,6,-1
 769 10 l 1,7,-1
 615 436 l 1,8,-1
 491 432 l 1,9,-1
 473 16 l 1,10,-1
 43 16 l 1,11,12
 48 244 48 244 52.5 470 c 128,-1,13
 57 696 57 696 63 924 c 1,14,15
 65 1039 65 1039 67 1152 c 128,-1,16
 69 1265 69 1265 75 1380 c 1,17,18
 145 1406 145 1406 213 1423 c 128,-1,19
 281 1440 281 1440 349.5 1449.5 c 128,-1,20
 418 1459 418 1459 488.5 1462.5 c 128,-1,21
 559 1466 559 1466 633 1466 c 0,22,23
 747 1466 747 1466 853.5 1434.5 c 128,-1,24
 960 1403 960 1403 1042 1340 c 128,-1,25
 1124 1277 1124 1277 1173.5 1183 c 128,-1,26
 1223 1089 1223 1089 1223 964 c 0,0,1
775 932 m 0,27,28
 775 974 775 974 763.5 1009 c 128,-1,29
 752 1044 752 1044 729.5 1069.5 c 128,-1,30
 707 1095 707 1095 673.5 1109.5 c 128,-1,31
 640 1124 640 1124 595 1124 c 0,32,33
 575 1124 575 1124 556 1121.5 c 128,-1,34
 537 1119 537 1119 519 1114 c 1,35,-1
 503 742 l 1,36,-1
 527 742 l 2,37,38
 570 742 570 742 614.5 753 c 128,-1,39
 659 764 659 764 694.5 787 c 128,-1,40
 730 810 730 810 752.5 846 c 128,-1,41
 775 882 775 882 775 932 c 0,27,28
EndSplineSet
Validated: 1
EndChar

StartChar: S
Encoding: 83 83 32
Width: 1087
Flags: W
LayerCount: 2
Fore
SplineSet
1075 532 m 0,0,1
 1075 395 1075 395 1027.5 292.5 c 128,-1,2
 980 190 980 190 897.5 122 c 128,-1,3
 815 54 815 54 704.5 20 c 128,-1,4
 594 -14 594 -14 467 -14 c 0,5,6
 418 -14 418 -14 359.5 -1 c 128,-1,7
 301 12 301 12 241 31.5 c 128,-1,8
 181 51 181 51 125.5 73.5 c 128,-1,9
 70 96 70 96 27 116 c 1,10,-1
 71 528 l 1,11,12
 156 477 156 477 259.5 450.5 c 128,-1,13
 363 424 363 424 463 424 c 0,14,15
 482 424 482 424 509 425.5 c 128,-1,16
 536 427 536 427 560.5 434.5 c 128,-1,17
 585 442 585 442 602 457 c 128,-1,18
 619 472 619 472 619 500 c 0,19,20
 619 519 619 519 607 532.5 c 128,-1,21
 595 546 595 546 576 554.5 c 128,-1,22
 557 563 557 563 533 567.5 c 128,-1,23
 509 572 509 572 486 574 c 128,-1,24
 463 576 463 576 443 576 c 128,-1,25
 423 576 423 576 411 576 c 0,26,27
 325 576 325 576 254.5 606 c 128,-1,28
 184 636 184 636 133.5 689.5 c 128,-1,29
 83 743 83 743 55 816.5 c 128,-1,30
 27 890 27 890 27 976 c 0,31,32
 27 1094 27 1094 74.5 1187.5 c 128,-1,33
 122 1281 122 1281 201.5 1346.5 c 128,-1,34
 281 1412 281 1412 384 1447 c 128,-1,35
 487 1482 487 1482 597 1482 c 0,36,37
 646 1482 646 1482 698 1478.5 c 128,-1,38
 750 1475 750 1475 801.5 1466 c 128,-1,39
 853 1457 853 1457 902 1443 c 128,-1,40
 951 1429 951 1429 995 1408 c 1,41,-1
 957 1002 l 1,42,43
 889 1025 889 1025 814.5 1040.5 c 128,-1,44
 740 1056 740 1056 669 1056 c 0,45,46
 656 1056 656 1056 635.5 1055.5 c 128,-1,47
 615 1055 615 1055 592.5 1052.5 c 128,-1,48
 570 1050 570 1050 547 1045 c 128,-1,49
 524 1040 524 1040 506 1031.5 c 128,-1,50
 488 1023 488 1023 477 1009 c 128,-1,51
 466 995 466 995 467 976 c 0,52,53
 468 954 468 954 483.5 940.5 c 128,-1,54
 499 927 499 927 523.5 919.5 c 128,-1,55
 548 912 548 912 577.5 909 c 128,-1,56
 607 906 607 906 636 905.5 c 128,-1,57
 665 905 665 905 690 905.5 c 128,-1,58
 715 906 715 906 731 904 c 0,59,60
 811 899 811 899 875 870 c 128,-1,61
 939 841 939 841 983.5 793 c 128,-1,62
 1028 745 1028 745 1051.5 678.5 c 128,-1,63
 1075 612 1075 612 1075 532 c 0,0,1
EndSplineSet
Validated: 1
EndChar

StartChar: T
Encoding: 84 84 33
Width: 1112
Flags: W
LayerCount: 2
Fore
SplineSet
1108 1430 m 1,0,-1
 1098 1006 l 1,1,-1
 800 994 l 1,2,-1
 724 46 l 1,3,-1
 302 24 l 1,4,-1
 304 972 l 1,5,-1
 6 956 l 1,6,-1
 18 1428 l 1,7,-1
 1108 1430 l 1,0,-1
EndSplineSet
Validated: 1
EndChar

StartChar: U
Encoding: 85 85 34
Width: 1276
Flags: W
LayerCount: 2
Fore
SplineSet
1247 1112 m 0,0,1
 1247 1038 1247 1038 1240 949 c 128,-1,2
 1233 860 1233 860 1217 765 c 128,-1,3
 1201 670 1201 670 1175.5 572.5 c 128,-1,4
 1150 475 1150 475 1112 385 c 128,-1,5
 1074 295 1074 295 1023.5 216.5 c 128,-1,6
 973 138 973 138 907.5 79.5 c 128,-1,7
 842 21 842 21 761 -12.5 c 128,-1,8
 680 -46 680 -46 581 -46 c 0,9,10
 465 -46 465 -46 379.5 -8.5 c 128,-1,11
 294 29 294 29 233 92.5 c 128,-1,12
 172 156 172 156 133 240.5 c 128,-1,13
 94 325 94 325 72 419.5 c 128,-1,14
 50 514 50 514 41.5 612.5 c 128,-1,15
 33 711 33 711 33 802 c 0,16,17
 33 942 33 942 47 1081.5 c 128,-1,18
 61 1221 61 1221 87 1360 c 1,19,-1
 555 1342 l 1,20,21
 528 1185 528 1185 508.5 1026.5 c 128,-1,22
 489 868 489 868 489 708 c 0,23,24
 489 691 489 691 490.5 657.5 c 128,-1,25
 492 624 492 624 496 582.5 c 128,-1,26
 500 541 500 541 507.5 497.5 c 128,-1,27
 515 454 515 454 528 418 c 128,-1,28
 541 382 541 382 559.5 359 c 128,-1,29
 578 336 578 336 603 336 c 0,30,31
 632 336 632 336 655 363.5 c 128,-1,32
 678 391 678 391 695.5 437 c 128,-1,33
 713 483 713 483 726 543 c 128,-1,34
 739 603 739 603 748 668 c 128,-1,35
 757 733 757 733 762.5 798 c 128,-1,36
 768 863 768 863 771.5 919 c 128,-1,37
 775 975 775 975 776 1018 c 128,-1,38
 777 1061 777 1061 777 1082 c 0,39,40
 777 1160 777 1160 774.5 1237.5 c 128,-1,41
 772 1315 772 1315 767 1392 c 1,42,-1
 1235 1392 l 1,43,44
 1247 1254 1247 1254 1247 1112 c 0,0,1
EndSplineSet
Validated: 1
EndChar

StartChar: V
Encoding: 86 86 35
Width: 1255
Flags: W
LayerCount: 2
Fore
SplineSet
1274 1402 m 1,0,-1
 908 10 l 1,1,-1
 412 -18 l 1,2,-1
 -38 1388 l 1,3,-1
 436 1432 l 1,4,-1
 628 612 l 1,5,-1
 814 1432 l 1,6,-1
 1274 1402 l 1,0,-1
EndSplineSet
Validated: 1
EndChar

StartChar: W
Encoding: 87 87 36
Width: 1859
Flags: W
LayerCount: 2
Fore
SplineSet
1855 1388 m 1,0,-1
 1621 2 l 1,1,-1
 1053 -10 l 1,2,-1
 931 708 l 1,3,-1
 809 42 l 1,4,-1
 241 22 l 1,5,-1
 5 1388 l 1,6,-1
 501 1432 l 1,7,-1
 601 602 l 1,8,-1
 735 1432 l 1,9,-1
 1125 1432 l 1,10,-1
 1281 592 l 1,11,-1
 1361 1432 l 1,12,-1
 1855 1388 l 1,0,-1
EndSplineSet
Validated: 1
EndChar

StartChar: X
Encoding: 88 88 37
Width: 1205
Flags: W
LayerCount: 2
Fore
SplineSet
1255 1402 m 1,0,-1
 865 724 l 1,1,-1
 1197 134 l 1,2,-1
 779 4 l 1,3,-1
 599 412 l 1,4,-1
 387 2 l 1,5,-1
 -45 158 l 1,6,-1
 323 738 l 1,7,-1
 -13 1348 l 1,8,-1
 445 1458 l 1,9,-1
 609 1056 l 1,10,-1
 783 1458 l 1,11,-1
 1255 1402 l 1,0,-1
EndSplineSet
Validated: 1
EndChar

StartChar: Y
Encoding: 89 89 38
Width: 1243
Flags: W
LayerCount: 2
Fore
SplineSet
1336 1354 m 1,0,-1
 786 586 l 1,1,-1
 760 -40 l 1,2,-1
 286 -40 l 1,3,-1
 298 582 l 1,4,-1
 12 1324 l 1,5,-1
 522 1388 l 1,6,-1
 602 956 l 1,7,-1
 856 1388 l 1,8,-1
 1336 1354 l 1,0,-1
EndSplineSet
Validated: 1
EndChar

StartChar: Z
Encoding: 90 90 39
Width: 997
Flags: W
LayerCount: 2
Fore
SplineSet
966 1098 m 1,0,-1
 508 480 l 1,1,-1
 950 480 l 1,2,-1
 944 56 l 1,3,-1
 52 20 l 1,4,-1
 12 412 l 1,5,-1
 534 1092 l 1,6,-1
 56 1056 l 1,7,-1
 52 1458 l 1,8,-1
 948 1458 l 1,9,-1
 966 1098 l 1,0,-1
EndSplineSet
Validated: 1
EndChar

StartChar: a
Encoding: 97 97 40
Width: 1282
Flags: W
LayerCount: 2
Fore
SplineSet
1312 86 m 1,0,-1
 816 22 l 1,1,-1
 756 248 l 1,2,-1
 528 248 l 1,3,-1
 478 22 l 1,4,-1
 -32 72 l 1,5,-1
 366 1404 l 1,6,-1
 922 1432 l 1,7,-1
 1312 86 l 1,0,-1
720 554 m 1,8,-1
 644 902 l 1,9,-1
 570 554 l 1,10,-1
 720 554 l 1,8,-1
EndSplineSet
Validated: 1
Substitution2: "Single Substitution lookup 5 subtable" ordfeminine
Substitution2: "'aalt' Access All Alternates in Latin lookup 0 subtable" ordfeminine
EndChar

StartChar: b
Encoding: 98 98 41
Width: 1217
Flags: W
LayerCount: 2
Fore
SplineSet
1215 356 m 0,0,1
 1215 273 1215 273 1184.5 213 c 128,-1,2
 1154 153 1154 153 1103 111 c 128,-1,3
 1052 69 1052 69 985.5 42.5 c 128,-1,4
 919 16 919 16 847 1 c 128,-1,5
 775 -14 775 -14 702.5 -19 c 128,-1,6
 630 -24 630 -24 567 -24 c 0,7,8
 505 -24 505 -24 438.5 -19.5 c 128,-1,9
 372 -15 372 -15 306 -4 c 128,-1,10
 240 7 240 7 176 25.5 c 128,-1,11
 112 44 112 44 55 72 c 1,12,-1
 53 1360 l 1,13,14
 109 1383 109 1383 172 1401.5 c 128,-1,15
 235 1420 235 1420 300.5 1432.5 c 128,-1,16
 366 1445 366 1445 431 1451.5 c 128,-1,17
 496 1458 496 1458 557 1458 c 0,18,19
 628 1458 628 1458 700.5 1449 c 128,-1,20
 773 1440 773 1440 840 1419 c 128,-1,21
 907 1398 907 1398 965 1364.5 c 128,-1,22
 1023 1331 1023 1331 1066.5 1282 c 128,-1,23
 1110 1233 1110 1233 1134.5 1168 c 128,-1,24
 1159 1103 1159 1103 1159 1018 c 0,25,26
 1159 962 1159 962 1143 913 c 128,-1,27
 1127 864 1127 864 1097 825 c 128,-1,28
 1067 786 1067 786 1024 758.5 c 128,-1,29
 981 731 981 731 927 718 c 1,30,31
 992 701 992 701 1045.5 668 c 128,-1,32
 1099 635 1099 635 1136.5 588 c 128,-1,33
 1174 541 1174 541 1194.5 482 c 128,-1,34
 1215 423 1215 423 1215 356 c 0,0,1
707 926 m 0,35,36
 707 955 707 955 695 975.5 c 128,-1,37
 683 996 683 996 665.5 1009 c 128,-1,38
 648 1022 648 1022 627.5 1028 c 128,-1,39
 607 1034 607 1034 591 1034 c 0,40,41
 571 1034 571 1034 552 1028 c 128,-1,42
 533 1022 533 1022 515 1014 c 1,43,-1
 509 792 l 1,44,45
 532 792 532 792 566 796 c 128,-1,46
 600 800 600 800 631.5 813.5 c 128,-1,47
 663 827 663 827 685 853.5 c 128,-1,48
 707 880 707 880 707 926 c 0,35,36
565 600 m 0,49,50
 536 600 536 600 509 594 c 1,51,-1
 505 366 l 1,52,53
 520 363 520 363 534.5 360.5 c 128,-1,54
 549 358 549 358 563 358 c 0,55,56
 584 358 584 358 609 362.5 c 128,-1,57
 634 367 634 367 656 380.5 c 128,-1,58
 678 394 678 394 692.5 417 c 128,-1,59
 707 440 707 440 707 478 c 256,60,61
 707 516 707 516 692.5 540 c 128,-1,62
 678 564 678 564 657 577.5 c 128,-1,63
 636 591 636 591 611 595.5 c 128,-1,64
 586 600 586 600 565 600 c 0,49,50
EndSplineSet
Validated: 1
EndChar

StartChar: c
Encoding: 99 99 42
Width: 1050
Flags: W
LayerCount: 2
Fore
SplineSet
1005 1366 m 1,0,-1
 969 944 l 1,1,2
 940 952 940 952 912 955 c 128,-1,3
 884 958 884 958 855 958 c 0,4,5
 784 958 784 958 719.5 940 c 128,-1,6
 655 922 655 922 605.5 885 c 128,-1,7
 556 848 556 848 526.5 791.5 c 128,-1,8
 497 735 497 735 497 658 c 0,9,10
 497 602 497 602 513.5 560.5 c 128,-1,11
 530 519 530 519 560.5 491.5 c 128,-1,12
 591 464 591 464 634.5 450 c 128,-1,13
 678 436 678 436 731 436 c 0,14,15
 768 436 768 436 807 443.5 c 128,-1,16
 846 451 846 451 885 464 c 128,-1,17
 924 477 924 477 960 494 c 128,-1,18
 996 511 996 511 1027 530 c 1,19,-1
 1011 60 l 1,20,21
 972 40 972 40 927 24.5 c 128,-1,22
 882 9 882 9 834.5 -2.5 c 128,-1,23
 787 -14 787 -14 739.5 -20 c 128,-1,24
 692 -26 692 -26 649 -26 c 0,25,26
 507 -26 507 -26 390.5 27 c 128,-1,27
 274 80 274 80 190.5 171.5 c 128,-1,28
 107 263 107 263 61 384 c 128,-1,29
 15 505 15 505 15 642 c 0,30,31
 15 806 15 806 61.5 948 c 128,-1,32
 108 1090 108 1090 198.5 1194.5 c 128,-1,33
 289 1299 289 1299 422.5 1358.5 c 128,-1,34
 556 1418 556 1418 729 1418 c 0,35,36
 798 1418 798 1418 869 1407 c 128,-1,37
 940 1396 940 1396 1005 1366 c 1,0,-1
EndSplineSet
Validated: 1
EndChar

StartChar: d
Encoding: 100 100 43
Width: 1195
Flags: W
LayerCount: 2
Fore
SplineSet
1184 794 m 0,0,1
 1184 654 1184 654 1148 543 c 128,-1,2
 1112 432 1112 432 1047.5 346.5 c 128,-1,3
 983 261 983 261 894 201 c 128,-1,4
 805 141 805 141 699 102.5 c 128,-1,5
 593 64 593 64 473.5 46 c 128,-1,6
 354 28 354 28 228 28 c 0,7,8
 181 28 181 28 136 30.5 c 128,-1,9
 91 33 91 33 44 38 c 1,10,-1
 72 1340 l 1,11,12
 182 1375 182 1375 298.5 1389.5 c 128,-1,13
 415 1404 415 1404 530 1404 c 0,14,15
 673 1404 673 1404 793 1364 c 128,-1,16
 913 1324 913 1324 1000 1246.5 c 128,-1,17
 1087 1169 1087 1169 1135.5 1055.5 c 128,-1,18
 1184 942 1184 942 1184 794 c 0,0,1
504 410 m 1,19,20
 564 419 564 419 613.5 446.5 c 128,-1,21
 663 474 663 474 699 514.5 c 128,-1,22
 735 555 735 555 754.5 606.5 c 128,-1,23
 774 658 774 658 774 716 c 0,24,25
 774 773 774 773 762 822.5 c 128,-1,26
 750 872 750 872 723 908.5 c 128,-1,27
 696 945 696 945 652 966.5 c 128,-1,28
 608 988 608 988 544 990 c 1,29,-1
 504 410 l 1,19,20
EndSplineSet
Validated: 1
EndChar

StartChar: e
Encoding: 101 101 44
Width: 1181
Flags: W
LayerCount: 2
Fore
SplineSet
1167 808 m 0,0,1
 1167 721 1167 721 1155 634 c 1,2,3
 984 623 984 623 815 598.5 c 128,-1,4
 646 574 646 574 477 550 c 1,5,6
 503 478 503 478 558.5 435 c 128,-1,7
 614 392 614 392 691 392 c 0,8,9
 731 392 731 392 778.5 407 c 128,-1,10
 826 422 826 422 873 444.5 c 128,-1,11
 920 467 920 467 963 493 c 128,-1,12
 1006 519 1006 519 1037 540 c 1,13,-1
 989 86 l 1,14,15
 950 56 950 56 904.5 35 c 128,-1,16
 859 14 859 14 810 1 c 128,-1,17
 761 -12 761 -12 711 -18 c 128,-1,18
 661 -24 661 -24 613 -24 c 0,19,20
 514 -24 514 -24 432 3 c 128,-1,21
 350 30 350 30 283.5 78.5 c 128,-1,22
 217 127 217 127 167 193 c 128,-1,23
 117 259 117 259 84 337 c 128,-1,24
 51 415 51 415 34 502 c 128,-1,25
 17 589 17 589 17 678 c 0,26,27
 17 771 17 771 34 864 c 128,-1,28
 51 957 51 957 85.5 1043 c 128,-1,29
 120 1129 120 1129 172.5 1202.5 c 128,-1,30
 225 1276 225 1276 295 1331 c 128,-1,31
 365 1386 365 1386 453.5 1417 c 128,-1,32
 542 1448 542 1448 649 1448 c 0,33,34
 738 1448 738 1448 811.5 1423.5 c 128,-1,35
 885 1399 885 1399 942.5 1355.5 c 128,-1,36
 1000 1312 1000 1312 1042.5 1252 c 128,-1,37
 1085 1192 1085 1192 1112.5 1120.5 c 128,-1,38
 1140 1049 1140 1049 1153.5 969.5 c 128,-1,39
 1167 890 1167 890 1167 808 c 0,0,1
767 860 m 2,40,41
 767 888 767 888 761 917.5 c 128,-1,42
 755 947 755 947 741.5 971 c 128,-1,43
 728 995 728 995 706 1010.5 c 128,-1,44
 684 1026 684 1026 651 1026 c 0,45,46
 611 1026 611 1026 580.5 1004.5 c 128,-1,47
 550 983 550 983 528 950.5 c 128,-1,48
 506 918 506 918 492 880 c 128,-1,49
 478 842 478 842 471 810 c 1,50,-1
 767 838 l 1,51,-1
 767 860 l 2,40,41
EndSplineSet
Validated: 1
EndChar

StartChar: f
Encoding: 102 102 45
Width: 999
Flags: W
LayerCount: 2
Fore
SplineSet
997 1422 m 1,0,1
 991 1328 991 1328 986 1236 c 128,-1,2
 981 1144 981 1144 973 1050 c 1,3,-1
 549 1028 l 1,4,-1
 549 902 l 1,5,-1
 917 902 l 1,6,-1
 897 592 l 1,7,-1
 547 582 l 1,8,-1
 549 30 l 1,9,-1
 43 20 l 1,10,-1
 75 1422 l 1,11,-1
 997 1422 l 1,0,1
EndSplineSet
Validated: 1
EndChar

StartChar: g
Encoding: 103 103 46
Width: 1285
Flags: W
LayerCount: 2
Fore
SplineSet
1260 224 m 1,0,1
 1213 165 1213 165 1144 121 c 128,-1,2
 1075 77 1075 77 996 48 c 128,-1,3
 917 19 917 19 834 4.5 c 128,-1,4
 751 -10 751 -10 676 -10 c 0,5,6
 531 -10 531 -10 409 39 c 128,-1,7
 287 88 287 88 198.5 175.5 c 128,-1,8
 110 263 110 263 60 384 c 128,-1,9
 10 505 10 505 10 648 c 0,10,11
 10 757 10 757 35 860 c 128,-1,12
 60 963 60 963 106.5 1053 c 128,-1,13
 153 1143 153 1143 220 1218 c 128,-1,14
 287 1293 287 1293 372 1347 c 128,-1,15
 457 1401 457 1401 558.5 1430.5 c 128,-1,16
 660 1460 660 1460 774 1460 c 0,17,18
 817 1460 817 1460 866 1456.5 c 128,-1,19
 915 1453 915 1453 963.5 1444.5 c 128,-1,20
 1012 1436 1012 1436 1058 1421 c 128,-1,21
 1104 1406 1104 1406 1142 1384 c 1,22,-1
 1114 1002 l 1,23,24
 1058 1023 1058 1023 998.5 1030.5 c 128,-1,25
 939 1038 939 1038 882 1038 c 0,26,27
 802 1038 802 1038 732.5 1016.5 c 128,-1,28
 663 995 663 995 611.5 953 c 128,-1,29
 560 911 560 911 530 848 c 128,-1,30
 500 785 500 785 500 702 c 0,31,32
 500 650 500 650 514 601.5 c 128,-1,33
 528 553 528 553 556.5 515.5 c 128,-1,34
 585 478 585 478 627.5 455 c 128,-1,35
 670 432 670 432 726 432 c 0,36,37
 764 432 764 432 804.5 442 c 128,-1,38
 845 452 845 452 874 476 c 1,39,-1
 878 554 l 1,40,-1
 638 558 l 1,41,-1
 650 858 l 1,42,43
 799 863 799 863 948 866.5 c 128,-1,44
 1097 870 1097 870 1248 876 c 1,45,-1
 1260 224 l 1,0,1
EndSplineSet
Validated: 1
EndChar

StartChar: h
Encoding: 104 104 47
Width: 1282
Flags: W
LayerCount: 2
Fore
SplineSet
1238 40 m 1,0,-1
 738 16 l 1,1,-1
 734 438 l 1,2,-1
 504 438 l 1,3,-1
 490 0 l 1,4,-1
 42 0 l 1,5,-1
 80 1406 l 1,6,-1
 556 1384 l 1,7,-1
 526 666 l 1,8,-1
 748 666 l 1,9,-1
 750 1418 l 1,10,-1
 1206 1406 l 1,11,-1
 1238 40 l 1,0,-1
EndSplineSet
Validated: 1
EndChar

StartChar: i
Encoding: 105 105 48
Width: 603
Flags: W
LayerCount: 2
Fore
SplineSet
573 1408 m 1,0,-1
 503 46 l 1,1,-1
 81 24 l 1,2,-1
 41 1380 l 1,3,-1
 573 1408 l 1,0,-1
EndSplineSet
Validated: 1
EndChar

StartChar: j
Encoding: 106 106 49
Width: 1044
Flags: W
LayerCount: 2
Fore
SplineSet
1006 824 m 0,0,1
 1006 765 1006 765 1006 707 c 128,-1,2
 1006 649 1006 649 1000 590 c 0,3,4
 989 465 989 465 946 353.5 c 128,-1,5
 903 242 903 242 829.5 158 c 128,-1,6
 756 74 756 74 651 25 c 128,-1,7
 546 -24 546 -24 410 -24 c 0,8,9
 357 -24 357 -24 299.5 -15 c 128,-1,10
 242 -6 242 -6 185.5 12 c 128,-1,11
 129 30 129 30 77.5 56.5 c 128,-1,12
 26 83 26 83 -14 118 c 1,13,-1
 48 532 l 1,14,15
 107 475 107 475 179 439.5 c 128,-1,16
 251 404 251 404 336 404 c 0,17,18
 391 404 391 404 429 420 c 128,-1,19
 467 436 467 436 492 464 c 128,-1,20
 517 492 517 492 531.5 529.5 c 128,-1,21
 546 567 546 567 552.5 609.5 c 128,-1,22
 559 652 559 652 560.5 697 c 128,-1,23
 562 742 562 742 562 786 c 0,24,25
 562 945 562 945 546 1102.5 c 128,-1,26
 530 1260 530 1260 518 1418 c 1,27,-1
 976 1448 l 1,28,29
 1006 1136 1006 1136 1006 824 c 0,0,1
EndSplineSet
Validated: 1
EndChar

StartChar: k
Encoding: 107 107 50
Width: 1234
Flags: W
LayerCount: 2
Fore
SplineSet
1280 1292 m 1,0,-1
 838 766 l 1,1,-1
 1244 78 l 1,2,-1
 780 -4 l 1,3,-1
 476 408 l 1,4,-1
 460 16 l 1,5,-1
 44 0 l 1,6,-1
 76 1432 l 1,7,-1
 542 1406 l 1,8,-1
 506 994 l 1,9,-1
 796 1412 l 1,10,-1
 1280 1292 l 1,0,-1
EndSplineSet
Validated: 1
EndChar

StartChar: l
Encoding: 108 108 51
Width: 924
Flags: W
LayerCount: 2
Fore
SplineSet
928 530 m 1,0,-1
 886 86 l 1,1,-1
 44 20 l 1,2,-1
 76 1448 l 1,3,-1
 596 1448 l 1,4,-1
 522 530 l 1,5,-1
 928 530 l 1,0,-1
EndSplineSet
Validated: 1
EndChar

StartChar: m
Encoding: 109 109 52
Width: 1839
Flags: W
LayerCount: 2
Fore
SplineSet
1799 678 m 0,0,1
 1799 535 1799 535 1790 393 c 128,-1,2
 1781 251 1781 251 1769 108 c 1,3,-1
 1255 84 l 1,4,5
 1278 258 1278 258 1296.5 432.5 c 128,-1,6
 1315 607 1315 607 1315 782 c 0,7,8
 1315 793 1315 793 1314 820.5 c 128,-1,9
 1313 848 1313 848 1310.5 883 c 128,-1,10
 1308 918 1308 918 1303.5 955.5 c 128,-1,11
 1299 993 1299 993 1291.5 1024.5 c 128,-1,12
 1284 1056 1284 1056 1273 1076 c 128,-1,13
 1262 1096 1262 1096 1247 1096 c 0,14,15
 1212 1096 1212 1096 1192 1069.5 c 128,-1,16
 1172 1043 1172 1043 1162.5 1006 c 128,-1,17
 1153 969 1153 969 1151 930.5 c 128,-1,18
 1149 892 1149 892 1149 868 c 0,19,20
 1149 826 1149 826 1151 784 c 128,-1,21
 1153 742 1153 742 1153 698 c 0,22,23
 1153 543 1153 543 1145.5 389 c 128,-1,24
 1138 235 1138 235 1127 80 c 1,25,-1
 653 62 l 1,26,27
 676 236 676 236 693.5 409.5 c 128,-1,28
 711 583 711 583 711 758 c 0,29,30
 711 769 711 769 710 798 c 128,-1,31
 709 827 709 827 706.5 863 c 128,-1,32
 704 899 704 899 699 938 c 128,-1,33
 694 977 694 977 686.5 1009.5 c 128,-1,34
 679 1042 679 1042 668 1063 c 128,-1,35
 657 1084 657 1084 641 1084 c 0,36,37
 616 1084 616 1084 599 1064.5 c 128,-1,38
 582 1045 582 1045 571.5 1014 c 128,-1,39
 561 983 561 983 555.5 945.5 c 128,-1,40
 550 908 550 908 547.5 872 c 128,-1,41
 545 836 545 836 544.5 805.5 c 128,-1,42
 544 775 544 775 543 760 c 2,43,-1
 521 30 l 1,44,-1
 17 30 l 1,45,46
 33 199 33 199 49.5 369 c 128,-1,47
 66 539 66 539 78.5 708.5 c 128,-1,48
 91 878 91 878 99 1048 c 128,-1,49
 107 1218 107 1218 107 1388 c 1,50,-1
 583 1408 l 1,51,-1
 581 1292 l 1,52,53
 603 1320 603 1320 631 1348.5 c 128,-1,54
 659 1377 659 1377 690.5 1399.5 c 128,-1,55
 722 1422 722 1422 757.5 1436 c 128,-1,56
 793 1450 793 1450 831 1450 c 0,57,58
 880 1450 880 1450 919 1442.5 c 128,-1,59
 958 1435 958 1435 989.5 1417 c 128,-1,60
 1021 1399 1021 1399 1045 1367.5 c 128,-1,61
 1069 1336 1069 1336 1087 1288 c 1,62,63
 1119 1323 1119 1323 1151.5 1353 c 128,-1,64
 1184 1383 1184 1383 1220 1404.5 c 128,-1,65
 1256 1426 1256 1426 1298 1438 c 128,-1,66
 1340 1450 1340 1450 1391 1450 c 0,67,68
 1488 1450 1488 1450 1556 1412.5 c 128,-1,69
 1624 1375 1624 1375 1669.5 1313 c 128,-1,70
 1715 1251 1715 1251 1740.5 1171 c 128,-1,71
 1766 1091 1766 1091 1779 1005 c 128,-1,72
 1792 919 1792 919 1795.5 834 c 128,-1,73
 1799 749 1799 749 1799 678 c 0,0,1
EndSplineSet
Validated: 1
EndChar

StartChar: n
Encoding: 110 110 53
Width: 1335
Flags: W
LayerCount: 2
Fore
SplineSet
1292 506 m 0,0,1
 1292 393 1292 393 1289.5 282.5 c 128,-1,2
 1287 172 1287 172 1282 60 c 1,3,-1
 706 70 l 1,4,5
 736 247 736 247 758 423.5 c 128,-1,6
 780 600 780 600 780 780 c 0,7,8
 780 793 780 793 779 822 c 128,-1,9
 778 851 778 851 775 887.5 c 128,-1,10
 772 924 772 924 766.5 962.5 c 128,-1,11
 761 1001 761 1001 751.5 1033 c 128,-1,12
 742 1065 742 1065 728.5 1085.5 c 128,-1,13
 715 1106 715 1106 696 1106 c 0,14,15
 662 1106 662 1106 638.5 1086 c 128,-1,16
 615 1066 615 1066 599.5 1034.5 c 128,-1,17
 584 1003 584 1003 575 964 c 128,-1,18
 566 925 566 925 561.5 886 c 128,-1,19
 557 847 557 847 555.5 812.5 c 128,-1,20
 554 778 554 778 554 756 c 0,21,22
 549 579 549 579 546 404.5 c 128,-1,23
 543 230 543 230 538 52 c 1,24,-1
 28 30 l 1,25,26
 48 383 48 383 66.5 732 c 128,-1,27
 85 1081 85 1081 96 1434 c 1,28,-1
 568 1458 l 1,29,-1
 564 1298 l 1,30,31
 592 1332 592 1332 624.5 1362 c 128,-1,32
 657 1392 657 1392 694 1413.5 c 128,-1,33
 731 1435 731 1435 772.5 1447.5 c 128,-1,34
 814 1460 814 1460 860 1460 c 0,35,36
 945 1460 945 1460 1009 1432 c 128,-1,37
 1073 1404 1073 1404 1119 1356 c 128,-1,38
 1165 1308 1165 1308 1196 1242.5 c 128,-1,39
 1227 1177 1227 1177 1246 1103 c 128,-1,40
 1265 1029 1265 1029 1275 948.5 c 128,-1,41
 1285 868 1285 868 1288.5 790 c 128,-1,42
 1292 712 1292 712 1292 639 c 128,-1,43
 1292 566 1292 566 1292 506 c 0,0,1
EndSplineSet
Validated: 1
EndChar

StartChar: o
Encoding: 111 111 54
Width: 1306
Flags: W
LayerCount: 2
Fore
SplineSet
1287 766 m 0,0,1
 1287 675 1287 675 1266 590.5 c 128,-1,2
 1245 506 1245 506 1205.5 432 c 128,-1,3
 1166 358 1166 358 1109.5 296.5 c 128,-1,4
 1053 235 1053 235 982.5 191 c 128,-1,5
 912 147 912 147 829 122.5 c 128,-1,6
 746 98 746 98 653 98 c 0,7,8
 563 98 563 98 481.5 121 c 128,-1,9
 400 144 400 144 329 185.5 c 128,-1,10
 258 227 258 227 200.5 285.5 c 128,-1,11
 143 344 143 344 102.5 415.5 c 128,-1,12
 62 487 62 487 39.5 569 c 128,-1,13
 17 651 17 651 17 740 c 0,14,15
 17 827 17 827 38 910.5 c 128,-1,16
 59 994 59 994 98.5 1068 c 128,-1,17
 138 1142 138 1142 194 1204 c 128,-1,18
 250 1266 250 1266 319.5 1311 c 128,-1,19
 389 1356 389 1356 470 1381 c 128,-1,20
 551 1406 551 1406 641 1406 c 0,21,22
 786 1406 786 1406 905.5 1361 c 128,-1,23
 1025 1316 1025 1316 1109.5 1232.5 c 128,-1,24
 1194 1149 1194 1149 1240.5 1030.5 c 128,-1,25
 1287 912 1287 912 1287 766 c 0,0,1
843 740 m 0,26,27
 843 783 843 783 830.5 823.5 c 128,-1,28
 818 864 818 864 794 895.5 c 128,-1,29
 770 927 770 927 734.5 946.5 c 128,-1,30
 699 966 699 966 653 966 c 0,31,32
 606 966 606 966 569 949 c 128,-1,33
 532 932 532 932 505.5 902.5 c 128,-1,34
 479 873 479 873 465 833.5 c 128,-1,35
 451 794 451 794 451 750 c 0,36,37
 451 708 451 708 463 666 c 128,-1,38
 475 624 475 624 499 590 c 128,-1,39
 523 556 523 556 558.5 535 c 128,-1,40
 594 514 594 514 641 514 c 256,41,42
 688 514 688 514 725.5 532.5 c 128,-1,43
 763 551 763 551 789 582.5 c 128,-1,44
 815 614 815 614 829 655 c 128,-1,45
 843 696 843 696 843 740 c 0,26,27
EndSplineSet
Validated: 1
Substitution2: "Single Substitution lookup 5 subtable" ordmasculine
Substitution2: "'aalt' Access All Alternates in Latin lookup 0 subtable" ordmasculine
EndChar

StartChar: p
Encoding: 112 112 55
Width: 1222
Flags: W
LayerCount: 2
Fore
SplineSet
1216 922 m 0,0,1
 1216 825 1216 825 1187 750 c 128,-1,2
 1158 675 1158 675 1107.5 618.5 c 128,-1,3
 1057 562 1057 562 989 523.5 c 128,-1,4
 921 485 921 485 843.5 460.5 c 128,-1,5
 766 436 766 436 683 424.5 c 128,-1,6
 600 413 600 413 520 412 c 1,7,-1
 520 -14 l 1,8,-1
 54 -14 l 1,9,10
 54 100 54 100 54.5 208 c 128,-1,11
 55 316 55 316 55.5 422.5 c 128,-1,12
 56 529 56 529 56.5 637 c 128,-1,13
 57 745 57 745 58 860 c 0,14,15
 60 982 60 982 59 1104 c 128,-1,16
 58 1226 58 1226 64 1350 c 1,17,18
 192 1388 192 1388 320 1407 c 128,-1,19
 448 1426 448 1426 584 1426 c 0,20,21
 661 1426 661 1426 738 1413.5 c 128,-1,22
 815 1401 815 1401 885.5 1374 c 128,-1,23
 956 1347 956 1347 1016.5 1306.5 c 128,-1,24
 1077 1266 1077 1266 1121 1210 c 128,-1,25
 1165 1154 1165 1154 1190.5 1082 c 128,-1,26
 1216 1010 1216 1010 1216 922 c 0,0,1
772 888 m 0,27,28
 772 953 772 953 732.5 989.5 c 128,-1,29
 693 1026 693 1026 630 1026 c 0,30,31
 609 1026 609 1026 586.5 1022.5 c 128,-1,32
 564 1019 564 1019 544 1014 c 1,33,-1
 532 722 l 1,34,35
 546 720 546 720 559 720 c 128,-1,36
 572 720 572 720 586 720 c 0,37,38
 622 720 622 720 655.5 732 c 128,-1,39
 689 744 689 744 715 766.5 c 128,-1,40
 741 789 741 789 756.5 819.5 c 128,-1,41
 772 850 772 850 772 888 c 0,27,28
EndSplineSet
Validated: 33
EndChar

StartChar: q
Encoding: 113 113 56
Width: 1415
Flags: W
LayerCount: 2
Fore
SplineSet
1395 744 m 0,0,1
 1395 592 1395 592 1338.5 454 c 128,-1,2
 1282 316 1282 316 1169 212 c 1,3,-1
 1307 48 l 1,4,-1
 941 -188 l 1,5,-1
 855 48 l 1,6,7
 817 40 817 40 778.5 36 c 128,-1,8
 740 32 740 32 701 32 c 0,9,10
 605 32 605 32 517 56 c 128,-1,11
 429 80 429 80 352 123.5 c 128,-1,12
 275 167 275 167 212 229 c 128,-1,13
 149 291 149 291 103.5 367 c 128,-1,14
 58 443 58 443 33.5 531.5 c 128,-1,15
 9 620 9 620 9 716 c 0,16,17
 9 811 9 811 32.5 900.5 c 128,-1,18
 56 990 56 990 99.5 1069 c 128,-1,19
 143 1148 143 1148 204.5 1213.5 c 128,-1,20
 266 1279 266 1279 342 1326.5 c 128,-1,21
 418 1374 418 1374 506 1400 c 128,-1,22
 594 1426 594 1426 691 1426 c 0,23,24
 846 1426 846 1426 975.5 1379 c 128,-1,25
 1105 1332 1105 1332 1198 1244 c 128,-1,26
 1291 1156 1291 1156 1343 1029.5 c 128,-1,27
 1395 903 1395 903 1395 744 c 0,0,1
909 716 m 0,28,29
 909 762 909 762 895.5 805.5 c 128,-1,30
 882 849 882 849 856 882.5 c 128,-1,31
 830 916 830 916 791 936 c 128,-1,32
 752 956 752 956 701 956 c 0,33,34
 651 956 651 956 611 938.5 c 128,-1,35
 571 921 571 921 542.5 890 c 128,-1,36
 514 859 514 859 498.5 817 c 128,-1,37
 483 775 483 775 483 726 c 0,38,39
 483 680 483 680 496.5 635.5 c 128,-1,40
 510 591 510 591 536 555.5 c 128,-1,41
 562 520 562 520 601 498 c 128,-1,42
 640 476 640 476 691 476 c 0,43,44
 740 476 740 476 780.5 495.5 c 128,-1,45
 821 515 821 515 849.5 548 c 128,-1,46
 878 581 878 581 893.5 624.5 c 128,-1,47
 909 668 909 668 909 716 c 0,28,29
EndSplineSet
Validated: 1
EndChar

StartChar: r
Encoding: 114 114 57
Width: 1241
Flags: W
LayerCount: 2
Fore
SplineSet
1223 964 m 0,0,1
 1223 886 1223 886 1209.5 822.5 c 128,-1,2
 1196 759 1196 759 1167 706 c 128,-1,3
 1138 653 1138 653 1092 608 c 128,-1,4
 1046 563 1046 563 981 522 c 1,5,-1
 1219 98 l 1,6,-1
 769 10 l 1,7,-1
 615 436 l 1,8,-1
 491 432 l 1,9,-1
 473 16 l 1,10,-1
 43 16 l 1,11,12
 48 244 48 244 52.5 470 c 128,-1,13
 57 696 57 696 63 924 c 1,14,15
 65 1039 65 1039 67 1152 c 128,-1,16
 69 1265 69 1265 75 1380 c 1,17,18
 145 1406 145 1406 213 1423 c 128,-1,19
 281 1440 281 1440 349.5 1449.5 c 128,-1,20
 418 1459 418 1459 488.5 1462.5 c 128,-1,21
 559 1466 559 1466 633 1466 c 0,22,23
 747 1466 747 1466 853.5 1434.5 c 128,-1,24
 960 1403 960 1403 1042 1340 c 128,-1,25
 1124 1277 1124 1277 1173.5 1183 c 128,-1,26
 1223 1089 1223 1089 1223 964 c 0,0,1
775 932 m 0,27,28
 775 974 775 974 763.5 1009 c 128,-1,29
 752 1044 752 1044 729.5 1069.5 c 128,-1,30
 707 1095 707 1095 673.5 1109.5 c 128,-1,31
 640 1124 640 1124 595 1124 c 0,32,33
 575 1124 575 1124 556 1121.5 c 128,-1,34
 537 1119 537 1119 519 1114 c 1,35,-1
 503 742 l 1,36,-1
 527 742 l 2,37,38
 570 742 570 742 614.5 753 c 128,-1,39
 659 764 659 764 694.5 787 c 128,-1,40
 730 810 730 810 752.5 846 c 128,-1,41
 775 882 775 882 775 932 c 0,27,28
EndSplineSet
Validated: 1
EndChar

StartChar: s
Encoding: 115 115 58
Width: 1089
Flags: W
LayerCount: 2
Fore
SplineSet
1076 512 m 0,0,1
 1076 375 1076 375 1028.5 275.5 c 128,-1,2
 981 176 981 176 898.5 111.5 c 128,-1,3
 816 47 816 47 705.5 16.5 c 128,-1,4
 595 -14 595 -14 468 -14 c 0,5,6
 419 -14 419 -14 360.5 -1 c 128,-1,7
 302 12 302 12 242 31.5 c 128,-1,8
 182 51 182 51 126.5 73.5 c 128,-1,9
 71 96 71 96 28 116 c 1,10,-1
 72 508 l 1,11,12
 157 457 157 457 260.5 430.5 c 128,-1,13
 364 404 364 404 464 404 c 0,14,15
 483 404 483 404 510 405.5 c 128,-1,16
 537 407 537 407 561.5 414.5 c 128,-1,17
 586 422 586 422 603 437 c 128,-1,18
 620 452 620 452 620 480 c 0,19,20
 620 499 620 499 608 512.5 c 128,-1,21
 596 526 596 526 577 534.5 c 128,-1,22
 558 543 558 543 534 547.5 c 128,-1,23
 510 552 510 552 487 554 c 128,-1,24
 464 556 464 556 444 556 c 128,-1,25
 424 556 424 556 412 556 c 0,26,27
 326 556 326 556 255.5 583 c 128,-1,28
 185 610 185 610 134.5 659.5 c 128,-1,29
 84 709 84 709 56 779.5 c 128,-1,30
 28 850 28 850 28 936 c 0,31,32
 28 1054 28 1054 75.5 1147.5 c 128,-1,33
 123 1241 123 1241 202.5 1306.5 c 128,-1,34
 282 1372 282 1372 385 1407 c 128,-1,35
 488 1442 488 1442 598 1442 c 0,36,37
 647 1442 647 1442 699 1438.5 c 128,-1,38
 751 1435 751 1435 802.5 1426 c 128,-1,39
 854 1417 854 1417 903 1403 c 128,-1,40
 952 1389 952 1389 996 1368 c 1,41,-1
 958 962 l 1,42,43
 890 985 890 985 815.5 1000.5 c 128,-1,44
 741 1016 741 1016 670 1016 c 0,45,46
 657 1016 657 1016 636.5 1015.5 c 128,-1,47
 616 1015 616 1015 593.5 1012.5 c 128,-1,48
 571 1010 571 1010 548 1005 c 128,-1,49
 525 1000 525 1000 507 991.5 c 128,-1,50
 489 983 489 983 478 969 c 128,-1,51
 467 955 467 955 468 936 c 0,52,53
 469 914 469 914 484.5 902 c 128,-1,54
 500 890 500 890 524.5 884.5 c 128,-1,55
 549 879 549 879 578.5 879 c 128,-1,56
 608 879 608 879 637 880.5 c 128,-1,57
 666 882 666 882 691 883.5 c 128,-1,58
 716 885 716 885 732 884 c 0,59,60
 812 879 812 879 876 850 c 128,-1,61
 940 821 940 821 984.5 773 c 128,-1,62
 1029 725 1029 725 1052.5 658.5 c 128,-1,63
 1076 592 1076 592 1076 512 c 0,0,1
EndSplineSet
Validated: 1
EndChar

StartChar: t
Encoding: 116 116 59
Width: 1116
Flags: W
LayerCount: 2
Fore
SplineSet
1110 1410 m 1,0,-1
 1100 986 l 1,1,-1
 802 974 l 1,2,-1
 766 46 l 1,3,-1
 344 24 l 1,4,-1
 306 952 l 1,5,-1
 8 936 l 1,6,-1
 20 1408 l 1,7,-1
 1110 1410 l 1,0,-1
EndSplineSet
Validated: 1
EndChar

StartChar: u
Encoding: 117 117 60
Width: 1252
Flags: W
LayerCount: 2
Fore
SplineSet
1243 1408 m 1,0,1
 1198 1056 1198 1056 1166 707.5 c 128,-1,2
 1134 359 1134 359 1105 6 c 1,3,-1
 695 -24 l 1,4,-1
 713 130 l 1,5,6
 693 107 693 107 666.5 90 c 128,-1,7
 640 73 640 73 610 62.5 c 128,-1,8
 580 52 580 52 548 47.5 c 128,-1,9
 516 43 516 43 487 44 c 0,10,11
 419 45 419 45 359 70.5 c 128,-1,12
 299 96 299 96 249 138.5 c 128,-1,13
 199 181 199 181 159 237.5 c 128,-1,14
 119 294 119 294 91.5 356.5 c 128,-1,15
 64 419 64 419 49.5 484 c 128,-1,16
 35 549 35 549 35 610 c 0,17,18
 35 700 35 700 38.5 796.5 c 128,-1,19
 42 893 42 893 51 990 c 128,-1,20
 60 1087 60 1087 74.5 1182 c 128,-1,21
 89 1277 89 1277 111 1364 c 1,22,23
 233 1358 233 1358 356 1353 c 128,-1,24
 479 1348 479 1348 601 1350 c 1,25,26
 578 1263 578 1263 555.5 1175.5 c 128,-1,27
 533 1088 533 1088 515 999.5 c 128,-1,28
 497 911 497 911 486 822 c 128,-1,29
 475 733 475 733 475 642 c 0,30,31
 475 621 475 621 477 582 c 128,-1,32
 479 543 479 543 487.5 505 c 128,-1,33
 496 467 496 467 513.5 438.5 c 128,-1,34
 531 410 531 410 563 410 c 0,35,36
 601 410 601 410 631 442.5 c 128,-1,37
 661 475 661 475 684 530 c 128,-1,38
 707 585 707 585 723.5 657 c 128,-1,39
 740 729 740 729 751.5 807.5 c 128,-1,40
 763 886 763 886 770 966 c 128,-1,41
 777 1046 777 1046 780.5 1116.5 c 128,-1,42
 784 1187 784 1187 785.5 1243 c 128,-1,43
 787 1299 787 1299 787 1330 c 0,44,45
 787 1350 787 1350 786 1369 c 128,-1,46
 785 1388 785 1388 783 1408 c 1,47,48
 848 1406 848 1406 912 1405 c 128,-1,49
 976 1404 976 1404 1041 1404 c 0,50,51
 1091 1404 1091 1404 1141.5 1404.5 c 128,-1,52
 1192 1405 1192 1405 1243 1408 c 1,0,1
EndSplineSet
Validated: 33
EndChar

StartChar: v
Encoding: 118 118 61
Width: 1258
Flags: W
LayerCount: 2
Fore
SplineSet
1278 1402 m 1,0,-1
 912 50 l 1,1,-1
 416 22 l 1,2,-1
 -34 1328 l 1,3,-1
 440 1372 l 1,4,-1
 632 612 l 1,5,-1
 818 1432 l 1,6,-1
 1278 1402 l 1,0,-1
EndSplineSet
Validated: 1
EndChar

StartChar: w
Encoding: 119 119 62
Width: 1863
Flags: W
LayerCount: 2
Fore
SplineSet
1857 1388 m 1,0,-1
 1623 42 l 1,1,-1
 1055 30 l 1,2,-1
 933 708 l 1,3,-1
 811 82 l 1,4,-1
 243 62 l 1,5,-1
 7 1348 l 1,6,-1
 503 1392 l 1,7,-1
 603 602 l 1,8,-1
 737 1332 l 1,9,-1
 1127 1332 l 1,10,-1
 1283 592 l 1,11,-1
 1363 1432 l 1,12,-1
 1857 1388 l 1,0,-1
EndSplineSet
Validated: 1
EndChar

StartChar: x
Encoding: 120 120 63
Width: 1218
Flags: W
LayerCount: 2
Fore
SplineSet
1261 1362 m 1,0,-1
 871 724 l 1,1,-1
 1223 154 l 1,2,-1
 805 24 l 1,3,-1
 605 412 l 1,4,-1
 393 2 l 1,5,-1
 -39 158 l 1,6,-1
 329 738 l 1,7,-1
 -7 1308 l 1,8,-1
 451 1418 l 1,9,-1
 615 1056 l 1,10,-1
 789 1418 l 1,11,-1
 1261 1362 l 1,0,-1
EndSplineSet
Validated: 1
EndChar

StartChar: y
Encoding: 121 121 64
Width: 1240
Flags: W
LayerCount: 2
Fore
SplineSet
1284 1354 m 1,0,-1
 814 586 l 1,1,-1
 828 20 l 1,2,-1
 314 20 l 1,3,-1
 326 582 l 1,4,-1
 -40 1324 l 1,5,-1
 470 1388 l 1,6,-1
 630 956 l 1,7,-1
 804 1388 l 1,8,-1
 1284 1354 l 1,0,-1
EndSplineSet
Validated: 1
EndChar

StartChar: z
Encoding: 122 122 65
Width: 1015
Flags: W
LayerCount: 2
Fore
SplineSet
989 1058 m 1,0,-1
 531 480 l 1,1,-1
 953 480 l 1,2,-1
 967 56 l 1,3,-1
 75 20 l 1,4,-1
 35 412 l 1,5,-1
 557 1052 l 1,6,-1
 39 1016 l 1,7,-1
 35 1418 l 1,8,-1
 971 1418 l 1,9,-1
 989 1058 l 1,0,-1
EndSplineSet
Validated: 1
EndChar

StartChar: brokenbar
Encoding: 166 166 66
Width: 590
Flags: W
LayerCount: 2
Fore
SplineSet
72 830 m 1,0,-1
 68 1552 l 1,1,-1
 516 1542 l 1,2,-1
 516 830 l 1,3,-1
 72 830 l 1,0,-1
80 -146 m 1,4,-1
 74 532 l 1,5,-1
 516 532 l 1,6,-1
 518 -144 l 1,7,-1
 80 -146 l 1,4,-1
EndSplineSet
Validated: 1
EndChar

StartChar: minus
Encoding: 8722 8722 67
Width: 783
Flags: W
LayerCount: 2
Fore
SplineSet
69 552 m 1,0,-1
 65 852 l 1,1,-1
 711 882 l 1,2,-1
 715 540 l 1,3,-1
 69 552 l 1,0,-1
EndSplineSet
Validated: 1
EndChar

StartChar: hyphen
Encoding: 45 45 68
Width: 1584
Flags: HWO
LayerCount: 2
Fore
SplineSet
494.844 1139.74 m 9,0,-1
 867.888 1142.32 l 25,1,-1
 1235.99 577.411 l 17,2,3
 1792.51 221.439 1792.51 221.439 1389.16 61.5127 c 0,4,-1
 1379.28 22.8203 l 9,5,-1
 1287.87 22.8203 l 17,6,-1
 1270.58 74.4082 l 0,7,-1
 1221.17 79.5664 l 0,8,-1
 1174.23 20.2412 l 9,9,-1
 1087.76 27.9785 l 17,10,-1
 1080.35 97.624 l 0,11,-1
 1026 126 l 0,12,-1
 951.885 82.1475 l 9,13,-1
 875.3 123.421 l 17,14,-1
 875.298 187.907 l 0,15,-1
 843.182 218.86 l 0,16,-1
 746.835 221.44 l 9,17,-1
 680.131 273.031 l 25,18,-1
 699.896 352.995 l 25,19,-1
 410.847 523.241 l 25,20,-1
 351.556 471.651 l 25,21,-1
 245.325 523.241 l 25,22,-1
 257.677 590.309 l 25,23,-1
 210.738 631.582 l 25,24,-1
 144.036 585.15 l 25,25,-1
 60.0381 657.377 l 25,26,-1
 74.8613 737.341 l 17,27,28
 -28.2539 827.622 -28.2539 827.622 67.7715 1021.08 c 0,29,-1
 67.4502 1033.98 l 1,30,31
 181.579 1289.35 181.579 1289.35 314.742 1389.95 c 0,32,-1
 321.91 1400.27 l 9,33,-1
 388.613 1413.17 l 25,34,-1
 396.023 1242.92 l 17,35,36
 428.14 1147.48 428.14 1147.48 477.551 1157.8 c 0,37,-1
 494.844 1139.74 l 9,0,-1
EndSplineSet
EndChar

StartChar: endash
Encoding: 8211 8211 69
Width: 959
Flags: W
LayerCount: 2
Fore
SplineSet
71 512 m 1,0,-1
 67 832 l 1,1,-1
 883 862 l 1,2,-1
 887 500 l 1,3,-1
 71 512 l 1,0,-1
EndSplineSet
Validated: 1
EndChar

StartChar: emdash
Encoding: 8212 8212 70
Width: 1777
Flags: W
LayerCount: 2
Fore
SplineSet
71 512 m 1,0,-1
 67 832 l 1,1,-1
 1701 872 l 1,2,-1
 1705 510 l 1,3,-1
 71 512 l 1,0,-1
EndSplineSet
Validated: 1
EndChar

StartChar: quotedblleft
Encoding: 8220 8220 71
Width: 914
Flags: W
LayerCount: 2
Fore
SplineSet
484 1076 m 1,0,1
 485 1123 485 1123 504.5 1180 c 128,-1,2
 524 1237 524 1237 560 1292.5 c 128,-1,3
 596 1348 596 1348 646.5 1397.5 c 128,-1,4
 697 1447 697 1447 760 1480 c 0,5,6
 760 1481 760 1481 761 1458.5 c 128,-1,7
 762 1436 762 1436 763.5 1403 c 128,-1,8
 765 1370 765 1370 766.5 1332.5 c 128,-1,9
 768 1295 768 1295 770 1266 c 1,10,11
 832 1243 832 1243 868 1189 c 128,-1,12
 904 1135 904 1135 904 1070 c 0,13,14
 904 1027 904 1027 887.5 989 c 128,-1,15
 871 951 871 951 842.5 922.5 c 128,-1,16
 814 894 814 894 775.5 877 c 128,-1,17
 737 860 737 860 694 860 c 256,18,19
 651 860 651 860 612.5 877 c 128,-1,20
 574 894 574 894 545.5 922.5 c 128,-1,21
 517 951 517 951 500 989 c 128,-1,22
 483 1027 483 1027 484 1070 c 1,23,-1
 484 1076 l 1,0,1
14 1076 m 1,24,25
 15 1123 15 1123 34.5 1180 c 128,-1,26
 54 1237 54 1237 90 1292.5 c 128,-1,27
 126 1348 126 1348 176.5 1397.5 c 128,-1,28
 227 1447 227 1447 290 1480 c 0,29,30
 290 1481 290 1481 291 1458.5 c 128,-1,31
 292 1436 292 1436 293.5 1403 c 128,-1,32
 295 1370 295 1370 296.5 1332.5 c 128,-1,33
 298 1295 298 1295 300 1266 c 1,34,35
 362 1243 362 1243 398 1189 c 128,-1,36
 434 1135 434 1135 434 1070 c 0,37,38
 434 1027 434 1027 417.5 989 c 128,-1,39
 401 951 401 951 372.5 922.5 c 128,-1,40
 344 894 344 894 305.5 877 c 128,-1,41
 267 860 267 860 224 860 c 256,42,43
 181 860 181 860 142.5 877 c 128,-1,44
 104 894 104 894 75.5 922.5 c 128,-1,45
 47 951 47 951 30 989 c 128,-1,46
 13 1027 13 1027 14 1070 c 1,47,-1
 14 1076 l 1,24,25
EndSplineSet
Validated: 33
EndChar

StartChar: quotedblright
Encoding: 8221 8221 72
Width: 910
Flags: W
LayerCount: 2
Fore
SplineSet
430 1262 m 1,0,1
 429 1215 429 1215 409.5 1158 c 128,-1,2
 390 1101 390 1101 354 1045.5 c 128,-1,3
 318 990 318 990 267.5 940.5 c 128,-1,4
 217 891 217 891 154 858 c 1,5,6
 154 859 154 859 153 881.5 c 128,-1,7
 152 904 152 904 150.5 936.5 c 128,-1,8
 149 969 149 969 147 1006 c 128,-1,9
 145 1043 145 1043 144 1072 c 1,10,11
 82 1095 82 1095 46 1149 c 128,-1,12
 10 1203 10 1203 10 1268 c 0,13,14
 10 1311 10 1311 26.5 1349 c 128,-1,15
 43 1387 43 1387 71.5 1415.5 c 128,-1,16
 100 1444 100 1444 138 1461 c 128,-1,17
 176 1478 176 1478 220 1478 c 0,18,19
 263 1478 263 1478 301.5 1461 c 128,-1,20
 340 1444 340 1444 368.5 1415.5 c 128,-1,21
 397 1387 397 1387 414 1349 c 128,-1,22
 431 1311 431 1311 430 1268 c 1,23,-1
 430 1262 l 1,0,1
900 1262 m 1,24,25
 899 1215 899 1215 879.5 1158 c 128,-1,26
 860 1101 860 1101 824 1045.5 c 128,-1,27
 788 990 788 990 737.5 940.5 c 128,-1,28
 687 891 687 891 624 858 c 1,29,30
 624 859 624 859 623 881.5 c 128,-1,31
 622 904 622 904 620.5 936.5 c 128,-1,32
 619 969 619 969 617 1006 c 128,-1,33
 615 1043 615 1043 614 1072 c 1,34,35
 552 1095 552 1095 516 1149 c 128,-1,36
 480 1203 480 1203 480 1268 c 0,37,38
 480 1311 480 1311 496.5 1349 c 128,-1,39
 513 1387 513 1387 541.5 1415.5 c 128,-1,40
 570 1444 570 1444 608 1461 c 128,-1,41
 646 1478 646 1478 690 1478 c 0,42,43
 733 1478 733 1478 771.5 1461 c 128,-1,44
 810 1444 810 1444 838.5 1415.5 c 128,-1,45
 867 1387 867 1387 884 1349 c 128,-1,46
 901 1311 901 1311 900 1268 c 1,47,-1
 900 1262 l 1,24,25
EndSplineSet
Validated: 33
EndChar

StartChar: quoteleft
Encoding: 8216 8216 73
Width: 444
Flags: W
LayerCount: 2
Fore
SplineSet
14 1078 m 1,0,1
 15 1125 15 1125 34.5 1182 c 128,-1,2
 54 1239 54 1239 90 1294.5 c 128,-1,3
 126 1350 126 1350 176.5 1399.5 c 128,-1,4
 227 1449 227 1449 290 1482 c 1,5,6
 291 1443 291 1443 293 1404 c 0,7,8
 295 1371 295 1371 296.5 1334 c 128,-1,9
 298 1297 298 1297 300 1268 c 1,10,11
 362 1245 362 1245 398 1191 c 128,-1,12
 434 1137 434 1137 434 1072 c 0,13,14
 434 1029 434 1029 417.5 991 c 128,-1,15
 401 953 401 953 372.5 924.5 c 128,-1,16
 344 896 344 896 305.5 879 c 128,-1,17
 267 862 267 862 224 862 c 256,18,19
 181 862 181 862 142.5 879 c 128,-1,20
 104 896 104 896 75.5 924.5 c 128,-1,21
 47 953 47 953 30 991 c 128,-1,22
 13 1029 13 1029 14 1072 c 1,23,-1
 14 1078 l 1,0,1
EndSplineSet
Validated: 33
EndChar

StartChar: quoteright
Encoding: 8217 8217 74
Width: 440
Flags: W
LayerCount: 2
Fore
SplineSet
430 1262 m 1,0,1
 429 1215 429 1215 409.5 1158 c 128,-1,2
 390 1101 390 1101 354 1045.5 c 128,-1,3
 318 990 318 990 267.5 940.5 c 128,-1,4
 217 891 217 891 154 858 c 1,5,6
 154 859 154 859 153 881.5 c 128,-1,7
 152 904 152 904 150.5 936.5 c 128,-1,8
 149 969 149 969 147 1006 c 128,-1,9
 145 1043 145 1043 144 1072 c 1,10,11
 82 1095 82 1095 46 1149 c 128,-1,12
 10 1203 10 1203 10 1268 c 0,13,14
 10 1311 10 1311 26.5 1349 c 128,-1,15
 43 1387 43 1387 71.5 1415.5 c 128,-1,16
 100 1444 100 1444 138 1461 c 128,-1,17
 176 1478 176 1478 220 1478 c 0,18,19
 263 1478 263 1478 301.5 1461 c 128,-1,20
 340 1444 340 1444 368.5 1415.5 c 128,-1,21
 397 1387 397 1387 414 1349 c 128,-1,22
 431 1311 431 1311 430 1268 c 1,23,-1
 430 1262 l 1,0,1
EndSplineSet
Validated: 33
EndChar

StartChar: quotesinglbase
Encoding: 8218 8218 75
Width: 462
Flags: W
LayerCount: 2
Fore
SplineSet
440 142 m 1,0,1
 439 95 439 95 419.5 38 c 128,-1,2
 400 -19 400 -19 364 -74.5 c 128,-1,3
 328 -130 328 -130 277.5 -179.5 c 128,-1,4
 227 -229 227 -229 164 -262 c 1,5,6
 164 -261 164 -261 163 -238.5 c 128,-1,7
 162 -216 162 -216 160.5 -183.5 c 128,-1,8
 159 -151 159 -151 157 -114 c 128,-1,9
 155 -77 155 -77 154 -48 c 1,10,11
 92 -25 92 -25 56 29 c 128,-1,12
 20 83 20 83 20 148 c 0,13,14
 20 191 20 191 36.5 229 c 128,-1,15
 53 267 53 267 81.5 295.5 c 128,-1,16
 110 324 110 324 148 341 c 128,-1,17
 186 358 186 358 230 358 c 0,18,19
 273 358 273 358 311.5 341 c 128,-1,20
 350 324 350 324 378.5 295.5 c 128,-1,21
 407 267 407 267 424 229 c 128,-1,22
 441 191 441 191 440 148 c 1,23,-1
 440 142 l 1,0,1
EndSplineSet
Validated: 33
EndChar

StartChar: quotedblbase
Encoding: 8222 8222 76
Width: 932
Flags: W
LayerCount: 2
Fore
SplineSet
440 142 m 1,0,1
 439 95 439 95 419.5 38 c 128,-1,2
 400 -19 400 -19 364 -74.5 c 128,-1,3
 328 -130 328 -130 277.5 -179.5 c 128,-1,4
 227 -229 227 -229 164 -262 c 1,5,6
 164 -261 164 -261 163 -238.5 c 128,-1,7
 162 -216 162 -216 160.5 -183.5 c 128,-1,8
 159 -151 159 -151 157 -114 c 128,-1,9
 155 -77 155 -77 154 -48 c 1,10,11
 92 -25 92 -25 56 29 c 128,-1,12
 20 83 20 83 20 148 c 0,13,14
 20 191 20 191 36.5 229 c 128,-1,15
 53 267 53 267 81.5 295.5 c 128,-1,16
 110 324 110 324 148 341 c 128,-1,17
 186 358 186 358 230 358 c 0,18,19
 273 358 273 358 311.5 341 c 128,-1,20
 350 324 350 324 378.5 295.5 c 128,-1,21
 407 267 407 267 424 229 c 128,-1,22
 441 191 441 191 440 148 c 1,23,-1
 440 142 l 1,0,1
910 142 m 1,24,25
 909 95 909 95 889.5 38 c 128,-1,26
 870 -19 870 -19 834 -74.5 c 128,-1,27
 798 -130 798 -130 747.5 -179.5 c 128,-1,28
 697 -229 697 -229 634 -262 c 1,29,30
 634 -261 634 -261 633 -238.5 c 128,-1,31
 632 -216 632 -216 630.5 -183.5 c 128,-1,32
 629 -151 629 -151 627 -114 c 128,-1,33
 625 -77 625 -77 624 -48 c 1,34,35
 562 -25 562 -25 526 29 c 128,-1,36
 490 83 490 83 490 148 c 0,37,38
 490 191 490 191 506.5 229 c 128,-1,39
 523 267 523 267 551.5 295.5 c 128,-1,40
 580 324 580 324 618 341 c 128,-1,41
 656 358 656 358 700 358 c 0,42,43
 743 358 743 358 781.5 341 c 128,-1,44
 820 324 820 324 848.5 295.5 c 128,-1,45
 877 267 877 267 894 229 c 128,-1,46
 911 191 911 191 910 148 c 1,47,-1
 910 142 l 1,24,25
EndSplineSet
Validated: 33
EndChar

StartChar: circumflex
Encoding: 710 710 77
Width: 710
Flags: W
LayerCount: 2
Fore
SplineSet
498 1324 m 1,0,-1
 342 1528 l 1,1,-1
 220 1334 l 1,2,-1
 0 1428 l 1,3,4
 19 1459 19 1459 47 1500.5 c 128,-1,5
 75 1542 75 1542 106 1586.5 c 128,-1,6
 137 1631 137 1631 169 1675.5 c 128,-1,7
 201 1720 201 1720 230 1758 c 1,8,-1
 436 1760 l 1,9,-1
 710 1454 l 1,10,-1
 498 1324 l 1,0,-1
EndSplineSet
Validated: 1
EndChar

StartChar: tilde
Encoding: 732 732 78
Width: 800
Flags: W
LayerCount: 2
Fore
SplineSet
800 1588 m 0,0,1
 800 1530 800 1530 779 1480 c 128,-1,2
 758 1430 758 1430 721.5 1393 c 128,-1,3
 685 1356 685 1356 635.5 1335 c 128,-1,4
 586 1314 586 1314 530 1314 c 0,5,6
 486 1314 486 1314 455 1330 c 128,-1,7
 424 1346 424 1346 402.5 1370 c 128,-1,8
 381 1394 381 1394 365.5 1422 c 128,-1,9
 350 1450 350 1450 337 1474 c 128,-1,10
 324 1498 324 1498 310.5 1514 c 128,-1,11
 297 1530 297 1530 280 1530 c 0,12,13
 269 1530 269 1530 261 1523.5 c 128,-1,14
 253 1517 253 1517 248.5 1508 c 128,-1,15
 244 1499 244 1499 242 1488 c 128,-1,16
 240 1477 240 1477 240 1468 c 0,17,18
 240 1438 240 1438 247.5 1409.5 c 128,-1,19
 255 1381 255 1381 266 1354 c 1,20,-1
 22 1334 l 1,21,22
 10 1376 10 1376 5 1418.5 c 128,-1,23
 0 1461 0 1461 0 1502 c 0,24,25
 0 1563 0 1563 16 1616 c 128,-1,26
 32 1669 32 1669 63.5 1708 c 128,-1,27
 95 1747 95 1747 141.5 1769.5 c 128,-1,28
 188 1792 188 1792 250 1792 c 0,29,30
 305 1792 305 1792 341 1775 c 128,-1,31
 377 1758 377 1758 401 1733 c 128,-1,32
 425 1708 425 1708 438.5 1678 c 128,-1,33
 452 1648 452 1648 463 1623 c 128,-1,34
 474 1598 474 1598 484 1581 c 128,-1,35
 494 1564 494 1564 510 1564 c 0,36,37
 530 1564 530 1564 541 1582 c 128,-1,38
 552 1600 552 1600 552 1618 c 0,39,40
 552 1648 552 1648 540 1676.5 c 128,-1,41
 528 1705 528 1705 514 1728 c 1,42,-1
 762 1768 l 1,43,44
 779 1724 779 1724 789.5 1679.5 c 128,-1,45
 800 1635 800 1635 800 1588 c 0,0,1
EndSplineSet
Validated: 1
EndChar

StartChar: macron
Encoding: 175 175 79
Width: 654
Flags: W
LayerCount: 2
Fore
SplineSet
650 1492 m 1,0,-1
 18 1500 l 1,1,-1
 0 1738 l 1,2,-1
 654 1750 l 1,3,-1
 650 1492 l 1,0,-1
EndSplineSet
Validated: 1
EndChar

StartChar: breve
Encoding: 728 728 80
Width: 594
Flags: W
LayerCount: 2
Fore
SplineSet
593 1692 m 0,0,1
 593 1628 593 1628 569.5 1573.5 c 128,-1,2
 546 1519 546 1519 505.5 1479 c 128,-1,3
 465 1439 465 1439 410 1416.5 c 128,-1,4
 355 1394 355 1394 293 1394 c 0,5,6
 221 1394 221 1394 166 1416 c 128,-1,7
 111 1438 111 1438 74 1478.5 c 128,-1,8
 37 1519 37 1519 18 1577 c 128,-1,9
 -1 1635 -1 1635 -1 1708 c 0,10,11
 -1 1719 -1 1719 -1 1731 c 128,-1,12
 -1 1743 -1 1743 1 1754 c 1,13,-1
 233 1724 l 1,14,15
 232 1708 232 1708 234 1687.5 c 128,-1,16
 236 1667 236 1667 243.5 1648.5 c 128,-1,17
 251 1630 251 1630 264.5 1617 c 128,-1,18
 278 1604 278 1604 301 1604 c 0,19,20
 315 1604 315 1604 324.5 1611.5 c 128,-1,21
 334 1619 334 1619 340 1631 c 128,-1,22
 346 1643 346 1643 348.5 1656.5 c 128,-1,23
 351 1670 351 1670 351 1682 c 0,24,25
 351 1711 351 1711 344.5 1737 c 128,-1,26
 338 1763 338 1763 329 1790 c 1,27,-1
 571 1834 l 1,28,29
 580 1801 580 1801 586.5 1764.5 c 128,-1,30
 593 1728 593 1728 593 1692 c 0,0,1
EndSplineSet
Validated: 1
EndChar

StartChar: dotaccent
Encoding: 729 729 81
Width: 400
Flags: W
LayerCount: 2
Fore
SplineSet
400 1512 m 0,0,1
 400 1471 400 1471 384.5 1436 c 128,-1,2
 369 1401 369 1401 342 1374.5 c 128,-1,3
 315 1348 315 1348 279 1333 c 128,-1,4
 243 1318 243 1318 202 1318 c 0,5,6
 158 1318 158 1318 121 1333 c 128,-1,7
 84 1348 84 1348 57 1374.5 c 128,-1,8
 30 1401 30 1401 15 1436 c 128,-1,9
 0 1471 0 1471 0 1512 c 0,10,11
 0 1552 0 1552 15 1588 c 128,-1,12
 30 1624 30 1624 56.5 1650.5 c 128,-1,13
 83 1677 83 1677 119 1692.5 c 128,-1,14
 155 1708 155 1708 196 1708 c 0,15,16
 239 1708 239 1708 276.5 1692.5 c 128,-1,17
 314 1677 314 1677 341.5 1650.5 c 128,-1,18
 369 1624 369 1624 384.5 1588 c 128,-1,19
 400 1552 400 1552 400 1512 c 0,0,1
EndSplineSet
Validated: 1
EndChar

StartChar: ring
Encoding: 730 730 82
Width: 606
Flags: W
LayerCount: 2
Fore
SplineSet
606 1568 m 0,0,1
 606 1506 606 1506 582 1452 c 128,-1,2
 558 1398 558 1398 517.5 1358 c 128,-1,3
 477 1318 477 1318 422 1295 c 128,-1,4
 367 1272 367 1272 306 1272 c 0,5,6
 242 1272 242 1272 186.5 1295 c 128,-1,7
 131 1318 131 1318 89.5 1358 c 128,-1,8
 48 1398 48 1398 24 1452 c 128,-1,9
 0 1506 0 1506 0 1568 c 0,10,11
 0 1629 0 1629 24 1682 c 128,-1,12
 48 1735 48 1735 88.5 1774.5 c 128,-1,13
 129 1814 129 1814 183.5 1837 c 128,-1,14
 238 1860 238 1860 300 1860 c 0,15,16
 364 1860 364 1860 419.5 1837 c 128,-1,17
 475 1814 475 1814 516.5 1774.5 c 128,-1,18
 558 1735 558 1735 582 1682 c 128,-1,19
 606 1629 606 1629 606 1568 c 0,0,1
400 1562 m 0,20,21
 400 1584 400 1584 393.5 1604.5 c 128,-1,22
 387 1625 387 1625 376 1640.5 c 128,-1,23
 365 1656 365 1656 349.5 1665 c 128,-1,24
 334 1674 334 1674 316 1674 c 256,25,26
 298 1674 298 1674 282 1665 c 128,-1,27
 266 1656 266 1656 254 1640.5 c 128,-1,28
 242 1625 242 1625 235 1604.5 c 128,-1,29
 228 1584 228 1584 228 1562 c 0,30,31
 228 1538 228 1538 235 1517 c 128,-1,32
 242 1496 242 1496 254 1481 c 128,-1,33
 266 1466 266 1466 282 1457 c 128,-1,34
 298 1448 298 1448 316 1448 c 0,35,36
 352 1448 352 1448 376 1481 c 128,-1,37
 400 1514 400 1514 400 1562 c 0,20,21
EndSplineSet
Validated: 1
EndChar

StartChar: cedilla
Encoding: 184 184 83
Width: 424
Flags: W
LayerCount: 2
Fore
SplineSet
424 -292 m 0,0,1
 424 -350 424 -350 405.5 -390 c 128,-1,2
 387 -430 387 -430 354 -455.5 c 128,-1,3
 321 -481 321 -481 276 -492.5 c 128,-1,4
 231 -504 231 -504 178 -504 c 0,5,6
 159 -504 159 -504 135 -501.5 c 128,-1,7
 111 -499 111 -499 86.5 -493.5 c 128,-1,8
 62 -488 62 -488 39 -479.5 c 128,-1,9
 16 -471 16 -471 0 -458 c 1,10,-1
 88 -300 l 1,11,12
 100 -306 100 -306 116 -310 c 128,-1,13
 132 -314 132 -314 146 -314 c 0,14,15
 164 -314 164 -314 182 -303.5 c 128,-1,16
 200 -293 200 -293 200 -272 c 0,17,18
 200 -257 200 -257 191 -247.5 c 128,-1,19
 182 -238 182 -238 168.5 -232 c 128,-1,20
 155 -226 155 -226 140 -224 c 128,-1,21
 125 -222 125 -222 114 -222 c 0,22,23
 94 -222 94 -222 74 -224.5 c 128,-1,24
 54 -227 54 -227 34 -232 c 1,25,-1
 48 56 l 1,26,-1
 220 54 l 1,27,-1
 218 -94 l 1,28,29
 262 -96 262 -96 300 -110 c 128,-1,30
 338 -124 338 -124 365.5 -149.5 c 128,-1,31
 393 -175 393 -175 408.5 -211 c 128,-1,32
 424 -247 424 -247 424 -292 c 0,0,1
EndSplineSet
Validated: 1
EndChar

StartChar: hungarumlaut
Encoding: 733 733 84
Width: 944
Flags: W
LayerCount: 2
Fore
SplineSet
944 1664 m 1,0,1
 835 1586 835 1586 730.5 1506 c 128,-1,2
 626 1426 626 1426 522 1338 c 1,3,-1
 382 1460 l 1,4,5
 399 1487 399 1487 423 1519 c 128,-1,6
 447 1551 447 1551 475 1586 c 128,-1,7
 503 1621 503 1621 532.5 1656.5 c 128,-1,8
 562 1692 562 1692 591 1725 c 0,9,10
 658 1802 658 1802 732 1884 c 1,11,-1
 944 1664 l 1,0,1
564 1732 m 1,12,13
 455 1654 455 1654 350 1573.5 c 128,-1,14
 245 1493 245 1493 144 1404 c 1,15,-1
 0 1528 l 1,16,17
 17 1555 17 1555 41.5 1587.5 c 128,-1,18
 66 1620 66 1620 93.5 1655 c 128,-1,19
 121 1690 121 1690 151 1725.5 c 128,-1,20
 181 1761 181 1761 210 1794 c 0,21,22
 277 1871 277 1871 352 1952 c 1,23,-1
 564 1732 l 1,12,13
EndSplineSet
Validated: 1
EndChar

StartChar: ogonek
Encoding: 731 731 85
Width: 440
Flags: W
LayerCount: 2
Fore
SplineSet
440 -296 m 1,0,1
 396 -338 396 -338 341 -369 c 128,-1,2
 286 -400 286 -400 224 -400 c 0,3,4
 178 -400 178 -400 137.5 -384.5 c 128,-1,5
 97 -369 97 -369 66.5 -341.5 c 128,-1,6
 36 -314 36 -314 18 -275.5 c 128,-1,7
 0 -237 0 -237 0 -190 c 0,8,9
 0 -150 0 -150 13.5 -113 c 128,-1,10
 27 -76 27 -76 49.5 -43 c 128,-1,11
 72 -10 72 -10 100.5 19 c 128,-1,12
 129 48 129 48 158 72 c 1,13,-1
 360 64 l 1,14,15
 348 49 348 49 324.5 20 c 128,-1,16
 301 -9 301 -9 277 -42 c 128,-1,17
 253 -75 253 -75 235.5 -107 c 128,-1,18
 218 -139 218 -139 218 -160 c 0,19,20
 218 -178 218 -178 231 -190 c 128,-1,21
 244 -202 244 -202 262 -202 c 0,22,23
 282 -202 282 -202 306 -186.5 c 128,-1,24
 330 -171 330 -171 342 -154 c 1,25,-1
 440 -296 l 1,0,1
EndSplineSet
Validated: 1
EndChar

StartChar: caron
Encoding: 711 711 86
Width: 710
Flags: W
LayerCount: 2
Fore
SplineSet
710 1774 m 1,0,1
 691 1743 691 1743 664 1703.5 c 128,-1,2
 637 1664 637 1664 607 1621 c 128,-1,3
 577 1578 577 1578 545.5 1534.5 c 128,-1,4
 514 1491 514 1491 486 1454 c 1,5,-1
 290 1426 l 1,6,-1
 0 1744 l 1,7,-1
 212 1878 l 1,8,-1
 368 1674 l 1,9,-1
 490 1870 l 1,10,-1
 710 1774 l 1,0,1
EndSplineSet
Validated: 1
EndChar

StartChar: acute
Encoding: 180 180 87
Width: 586
Flags: W
LayerCount: 2
Fore
SplineSet
586 1642 m 1,0,1
 467 1577 467 1577 354 1510.5 c 128,-1,2
 241 1444 241 1444 128 1366 c 1,3,-1
 0 1506 l 1,4,5
 20 1530 20 1530 48 1559.5 c 128,-1,6
 76 1589 76 1589 107.5 1620 c 128,-1,7
 139 1651 139 1651 173 1682.5 c 128,-1,8
 207 1714 207 1714 239 1743 c 0,9,10
 315 1812 315 1812 398 1882 c 1,11,-1
 586 1642 l 1,0,1
EndSplineSet
Validated: 1
EndChar

StartChar: dieresis
Encoding: 168 168 88
Width: 706
Flags: W
LayerCount: 2
Fore
SplineSet
706 1574 m 0,0,1
 706 1543 706 1543 694.5 1516.5 c 128,-1,2
 683 1490 683 1490 663 1470.5 c 128,-1,3
 643 1451 643 1451 616 1439.5 c 128,-1,4
 589 1428 589 1428 558 1428 c 0,5,6
 529 1428 529 1428 502.5 1439.5 c 128,-1,7
 476 1451 476 1451 456.5 1470.5 c 128,-1,8
 437 1490 437 1490 425.5 1516.5 c 128,-1,9
 414 1543 414 1543 414 1574 c 0,10,11
 414 1604 414 1604 425.5 1630.5 c 128,-1,12
 437 1657 437 1657 456.5 1677 c 128,-1,13
 476 1697 476 1697 502.5 1708.5 c 128,-1,14
 529 1720 529 1720 558 1720 c 0,15,16
 589 1720 589 1720 616 1708.5 c 128,-1,17
 643 1697 643 1697 663 1677 c 128,-1,18
 683 1657 683 1657 694.5 1630.5 c 128,-1,19
 706 1604 706 1604 706 1574 c 0,0,1
316 1552 m 0,20,21
 316 1519 316 1519 303.5 1490 c 128,-1,22
 291 1461 291 1461 269.5 1439 c 128,-1,23
 248 1417 248 1417 219 1404.5 c 128,-1,24
 190 1392 190 1392 158 1392 c 0,25,26
 125 1392 125 1392 96 1404.5 c 128,-1,27
 67 1417 67 1417 46 1439 c 128,-1,28
 25 1461 25 1461 12.5 1490 c 128,-1,29
 0 1519 0 1519 0 1552 c 0,30,31
 0 1583 0 1583 12.5 1611 c 128,-1,32
 25 1639 25 1639 46 1660.5 c 128,-1,33
 67 1682 67 1682 96 1695 c 128,-1,34
 125 1708 125 1708 158 1708 c 0,35,36
 190 1708 190 1708 219 1695 c 128,-1,37
 248 1682 248 1682 269.5 1660.5 c 128,-1,38
 291 1639 291 1639 303.5 1611 c 128,-1,39
 316 1583 316 1583 316 1552 c 0,20,21
EndSplineSet
Validated: 1
EndChar

StartChar: grave
Encoding: 96 96 89
Width: 580
Flags: W
LayerCount: 2
Fore
SplineSet
446 1366 m 1,0,1
 336 1449 336 1449 226 1520 c 128,-1,2
 116 1591 116 1591 0 1660 c 1,3,-1
 198 1894 l 1,4,5
 278 1819 278 1819 351 1748 c 0,6,7
 382 1717 382 1717 414.5 1684 c 128,-1,8
 447 1651 447 1651 477.5 1618.5 c 128,-1,9
 508 1586 508 1586 534.5 1555.5 c 128,-1,10
 561 1525 561 1525 580 1500 c 1,11,-1
 446 1366 l 1,0,1
EndSplineSet
Validated: 1
EndChar

StartChar: guilsinglleft
Encoding: 8249 8249 90
Width: 679
Flags: W
LayerCount: 2
Fore
SplineSet
496 232 m 1,0,-1
 38 540 l 1,1,-1
 24 908 l 1,2,-1
 458 1224 l 1,3,-1
 618 922 l 1,4,-1
 350 738 l 1,5,-1
 656 560 l 1,6,-1
 496 232 l 1,0,-1
EndSplineSet
Validated: 1
EndChar

StartChar: guilsinglright
Encoding: 8250 8250 91
Width: 681
Flags: W
LayerCount: 2
Fore
SplineSet
222 232 m 1,0,-1
 58 540 l 1,1,-1
 332 722 l 1,2,-1
 24 898 l 1,3,-1
 182 1224 l 1,4,-1
 644 918 l 1,5,-1
 656 550 l 1,6,-1
 222 232 l 1,0,-1
EndSplineSet
Validated: 1
EndChar

StartChar: daggerdbl
Encoding: 8225 8225 92
Width: 1050
Flags: W
LayerCount: 2
Fore
SplineSet
963 108 m 1,0,-1
 717 108 l 1,1,-1
 717 -184 l 1,2,-1
 319 -186 l 1,3,-1
 317 104 l 1,4,-1
 77 104 l 1,5,-1
 79 452 l 1,6,-1
 315 454 l 1,7,-1
 311 898 l 1,8,-1
 65 898 l 1,9,-1
 63 1244 l 1,10,-1
 309 1244 l 1,11,-1
 307 1512 l 1,12,-1
 715 1502 l 1,13,-1
 715 1244 l 1,14,-1
 989 1244 l 1,15,-1
 981 896 l 1,16,-1
 715 896 l 1,17,-1
 717 456 l 1,18,-1
 977 458 l 1,19,-1
 963 108 l 1,0,-1
EndSplineSet
Validated: 1
EndChar

StartChar: dagger
Encoding: 8224 8224 93
Width: 1013
Flags: W
LayerCount: 2
Fore
SplineSet
272 -186 m 1,0,-1
 264 898 l 1,1,-1
 48 898 l 1,2,-1
 46 1244 l 1,3,-1
 262 1244 l 1,4,-1
 260 1512 l 1,5,-1
 728 1502 l 1,6,-1
 728 1244 l 1,7,-1
 972 1244 l 1,8,-1
 964 896 l 1,9,-1
 728 896 l 1,10,-1
 730 -184 l 1,11,-1
 272 -186 l 1,0,-1
EndSplineSet
Validated: 1
EndChar

StartChar: numbersign
Encoding: 35 35 94
Width: 1242
Flags: W
LayerCount: 2
Fore
SplineSet
1146 764 m 1,0,-1
 966 768 l 1,1,-1
 944 608 l 1,2,-1
 1118 610 l 1,3,-1
 1080 340 l 1,4,-1
 904 340 l 1,5,-1
 880 166 l 1,6,-1
 552 170 l 1,7,-1
 580 340 l 1,8,-1
 482 340 l 1,9,-1
 458 210 l 1,10,-1
 166 216 l 1,11,-1
 186 340 l 1,12,-1
 42 338 l 1,13,-1
 88 606 l 1,14,-1
 232 606 l 1,15,-1
 266 784 l 1,16,-1
 116 786 l 1,17,-1
 164 1046 l 1,18,-1
 312 1042 l 1,19,-1
 336 1196 l 1,20,-1
 620 1178 l 1,21,-1
 596 1038 l 1,22,-1
 700 1038 l 1,23,-1
 744 1280 l 1,24,-1
 1038 1270 l 1,25,-1
 1004 1030 l 1,26,-1
 1182 1028 l 1,27,-1
 1146 764 l 1,0,-1
554 778 m 1,28,-1
 524 606 l 1,29,-1
 626 608 l 1,30,-1
 656 776 l 1,31,-1
 554 778 l 1,28,-1
EndSplineSet
Validated: 1
EndChar

StartChar: parenleft
Encoding: 40 40 95
Width: 797
Flags: W
LayerCount: 2
Fore
SplineSet
843 1404 m 1,0,1
 745 1347 745 1347 672 1266 c 128,-1,2
 599 1185 599 1185 551 1092 c 128,-1,3
 503 999 503 999 479 901.5 c 128,-1,4
 455 804 455 804 455 714 c 256,5,6
 455 624 455 624 474 524 c 128,-1,7
 493 424 493 424 532 326.5 c 128,-1,8
 571 229 571 229 630.5 139.5 c 128,-1,9
 690 50 690 50 771 -20 c 1,10,-1
 413 -166 l 1,11,12
 340 -119 340 -119 283 -54 c 128,-1,13
 226 11 226 11 183 86.5 c 128,-1,14
 140 162 140 162 110.5 245 c 128,-1,15
 81 328 81 328 62.5 410.5 c 128,-1,16
 44 493 44 493 35.5 572.5 c 128,-1,17
 27 652 27 652 27 722 c 0,18,19
 27 831 27 831 57 948.5 c 128,-1,20
 87 1066 87 1066 145.5 1178.5 c 128,-1,21
 204 1291 204 1291 291 1390 c 128,-1,22
 378 1489 378 1489 493 1560 c 1,23,-1
 843 1404 l 1,0,1
EndSplineSet
Validated: 1
EndChar

StartChar: parenright
Encoding: 41 41 96
Width: 782
Flags: W
LayerCount: 2
Fore
SplineSet
756 672 m 0,0,1
 756 599 756 599 742.5 522 c 128,-1,2
 729 445 729 445 703 367.5 c 128,-1,3
 677 290 677 290 637.5 214.5 c 128,-1,4
 598 139 598 139 546 70 c 128,-1,5
 494 1 494 1 429.5 -59 c 128,-1,6
 365 -119 365 -119 288 -166 c 1,7,-1
 -60 -10 l 1,8,9
 37 48 37 48 109 129 c 128,-1,10
 181 210 181 210 227.5 302.5 c 128,-1,11
 274 395 274 395 297 492.5 c 128,-1,12
 320 590 320 590 320 680 c 0,13,14
 320 771 320 771 301.5 871 c 128,-1,15
 283 971 283 971 245 1068.5 c 128,-1,16
 207 1166 207 1166 148.5 1255.5 c 128,-1,17
 90 1345 90 1345 10 1416 c 1,18,-1
 366 1560 l 1,19,20
 439 1512 439 1512 496.5 1446.5 c 128,-1,21
 554 1381 554 1381 597 1305.5 c 128,-1,22
 640 1230 640 1230 670.5 1147.5 c 128,-1,23
 701 1065 701 1065 720 982.5 c 128,-1,24
 739 900 739 900 747.5 820.5 c 128,-1,25
 756 741 756 741 756 672 c 0,0,1
EndSplineSet
Validated: 1
EndChar

StartChar: bracketleft
Encoding: 91 91 97
Width: 749
Flags: W
LayerCount: 2
Fore
SplineSet
737 1288 m 1,0,-1
 471 1294 l 1,1,-1
 441 140 l 1,2,-1
 721 138 l 1,3,-1
 719 -146 l 1,4,5
 636 -141 636 -141 552 -139.5 c 128,-1,6
 468 -138 468 -138 383 -138 c 0,7,8
 305 -138 305 -138 226 -140 c 128,-1,9
 147 -142 147 -142 69 -148 c 1,10,11
 63 98 63 98 63 344 c 0,12,13
 63 650 63 650 72.5 952.5 c 128,-1,14
 82 1255 82 1255 97 1558 c 1,15,16
 175 1563 175 1563 251.5 1564.5 c 128,-1,17
 328 1566 328 1566 405 1566 c 0,18,19
 496 1566 496 1566 582.5 1563.5 c 128,-1,20
 669 1561 669 1561 757 1552 c 1,21,-1
 737 1288 l 1,0,-1
EndSplineSet
Validated: 1
EndChar

StartChar: bracketright
Encoding: 93 93 98
Width: 748
Flags: W
LayerCount: 2
Fore
SplineSet
686 1078 m 0,0,1
 686 772 686 772 676.5 469 c 128,-1,2
 667 166 667 166 650 -140 c 1,3,4
 573 -145 573 -145 496.5 -146.5 c 128,-1,5
 420 -148 420 -148 342 -148 c 0,6,7
 253 -148 253 -148 166.5 -145 c 128,-1,8
 80 -142 80 -142 -8 -134 c 1,9,-1
 10 134 l 1,10,-1
 276 126 l 1,11,-1
 308 1282 l 1,12,-1
 24 1284 l 1,13,-1
 28 1564 l 1,14,15
 111 1561 111 1561 195 1558.5 c 128,-1,16
 279 1556 279 1556 364 1556 c 0,17,18
 444 1556 444 1556 523 1558.5 c 128,-1,19
 602 1561 602 1561 680 1566 c 1,20,21
 683 1442 683 1442 684.5 1322 c 128,-1,22
 686 1202 686 1202 686 1078 c 0,0,1
EndSplineSet
Validated: 1
EndChar

StartChar: braceright
Encoding: 125 125 99
Width: 824
Flags: W
LayerCount: 2
Fore
SplineSet
820 550 m 1,0,1
 812 550 812 550 801.5 551 c 128,-1,2
 791 552 791 552 782 552 c 0,3,4
 741 552 741 552 706 542.5 c 128,-1,5
 671 533 671 533 644.5 515.5 c 128,-1,6
 618 498 618 498 603 473.5 c 128,-1,7
 588 449 588 449 588 418 c 0,8,9
 588 380 588 380 599 343.5 c 128,-1,10
 610 307 610 307 623 271 c 128,-1,11
 636 235 636 235 647 198 c 128,-1,12
 658 161 658 161 658 122 c 0,13,14
 658 57 658 57 621 2.5 c 128,-1,15
 584 -52 584 -52 523.5 -92.5 c 128,-1,16
 463 -133 463 -133 384.5 -155.5 c 128,-1,17
 306 -178 306 -178 224 -178 c 0,18,19
 146 -178 146 -178 71.5 -159 c 128,-1,20
 -3 -140 -3 -140 -68 -110 c 1,21,-1
 40 158 l 1,22,23
 67 147 67 147 96 140.5 c 128,-1,24
 125 134 125 134 154 134 c 0,25,26
 214 134 214 134 246 157.5 c 128,-1,27
 278 181 278 181 278 226 c 0,28,29
 278 259 278 259 267.5 291 c 128,-1,30
 257 323 257 323 245 354.5 c 128,-1,31
 233 386 233 386 222.5 418 c 128,-1,32
 212 450 212 450 212 484 c 0,33,34
 212 564 212 564 271 606 c 128,-1,35
 330 648 330 648 440 646 c 1,36,37
 385 656 385 656 340 681 c 128,-1,38
 295 706 295 706 263 739 c 128,-1,39
 231 772 231 772 213.5 811.5 c 128,-1,40
 196 851 196 851 196 892 c 0,41,42
 196 927 196 927 208 960 c 128,-1,43
 220 993 220 993 234 1025 c 128,-1,44
 248 1057 248 1057 260 1090 c 128,-1,45
 272 1123 272 1123 272 1158 c 0,46,47
 272 1190 272 1190 251 1214.5 c 128,-1,48
 230 1239 230 1239 197.5 1256.5 c 128,-1,49
 165 1274 165 1274 125 1284.5 c 128,-1,50
 85 1295 85 1295 48 1300 c 1,51,-1
 194 1580 l 1,52,53
 279 1581 279 1581 358 1553.5 c 128,-1,54
 437 1526 437 1526 498.5 1480 c 128,-1,55
 560 1434 560 1434 597 1374.5 c 128,-1,56
 634 1315 634 1315 634 1254 c 0,57,58
 634 1219 634 1219 622 1185 c 128,-1,59
 610 1151 610 1151 596 1117 c 128,-1,60
 582 1083 582 1083 570 1048.5 c 128,-1,61
 558 1014 558 1014 558 978 c 0,62,63
 558 940 558 940 583.5 910.5 c 128,-1,64
 609 881 609 881 649 861 c 128,-1,65
 689 841 689 841 737.5 831.5 c 128,-1,66
 786 822 786 822 832 826 c 1,67,-1
 820 550 l 1,0,1
EndSplineSet
Validated: 33
EndChar

StartChar: backslash
Encoding: 92 92 100
Width: 1035
Flags: W
LayerCount: 2
Fore
SplineSet
675 -78 m 1,0,1
 581 92 581 92 498 268 c 128,-1,2
 415 444 415 444 338.5 622.5 c 128,-1,3
 262 801 262 801 189 982 c 128,-1,4
 116 1163 116 1163 43 1344 c 1,5,-1
 443 1500 l 1,6,7
 561 1132 561 1132 697.5 771.5 c 128,-1,8
 834 411 834 411 995 62 c 1,9,-1
 675 -78 l 1,0,1
EndSplineSet
Validated: 1
EndChar

StartChar: slash
Encoding: 47 47 101
Width: 1034
Flags: W
LayerCount: 2
Fore
SplineSet
993 1360 m 1,0,1
 832 1011 832 1011 695.5 650.5 c 128,-1,2
 559 290 559 290 441 -78 c 1,3,-1
 41 78 l 1,4,5
 114 259 114 259 187 439.5 c 128,-1,6
 260 620 260 620 336.5 798.5 c 128,-1,7
 413 977 413 977 496 1153 c 128,-1,8
 579 1329 579 1329 673 1500 c 1,9,-1
 993 1360 l 1,0,1
EndSplineSet
Validated: 1
EndChar

StartChar: less
Encoding: 60 60 102
Width: 932
Flags: W
LayerCount: 2
Fore
SplineSet
721 104 m 1,0,-1
 59 500 l 1,1,-1
 45 868 l 1,2,-1
 719 1294 l 1,3,-1
 861 954 l 1,4,-1
 371 698 l 1,5,-1
 885 448 l 1,6,-1
 721 104 l 1,0,-1
EndSplineSet
Validated: 1
EndChar

StartChar: greater
Encoding: 62 62 103
Width: 932
Flags: W
LayerCount: 2
Fore
SplineSet
212 104 m 1,0,-1
 68 448 l 1,1,-1
 560 704 l 1,2,-1
 48 954 l 1,3,-1
 210 1294 l 1,4,-1
 872 902 l 1,5,-1
 888 532 l 1,6,-1
 212 104 l 1,0,-1
EndSplineSet
Validated: 1
EndChar

StartChar: bullet
Encoding: 8226 8226 104
Width: 510
Flags: W
LayerCount: 2
Fore
SplineSet
490 782 m 256,0,1
 490 733 490 733 471.5 690 c 128,-1,2
 453 647 453 647 421 615 c 128,-1,3
 389 583 389 583 346 564.5 c 128,-1,4
 303 546 303 546 254 546 c 0,5,6
 206 546 206 546 163.5 564.5 c 128,-1,7
 121 583 121 583 89 615 c 128,-1,8
 57 647 57 647 38.5 690 c 128,-1,9
 20 733 20 733 20 782 c 256,10,11
 20 831 20 831 38.5 874 c 128,-1,12
 57 917 57 917 89 949 c 128,-1,13
 121 981 121 981 163.5 999.5 c 128,-1,14
 206 1018 206 1018 254 1018 c 0,15,16
 303 1018 303 1018 346 999.5 c 128,-1,17
 389 981 389 981 421 949 c 128,-1,18
 453 917 453 917 471.5 874 c 128,-1,19
 490 831 490 831 490 782 c 256,0,1
EndSplineSet
Validated: 1
EndChar

StartChar: period
Encoding: 46 46 105
Width: 454
Flags: W
LayerCount: 2
Fore
SplineSet
438 206 m 0,0,1
 438 162 438 162 421 124 c 128,-1,2
 404 86 404 86 375.5 57.5 c 128,-1,3
 347 29 347 29 309 12.5 c 128,-1,4
 271 -4 271 -4 228 -4 c 0,5,6
 184 -4 184 -4 146 12.5 c 128,-1,7
 108 29 108 29 79.5 57.5 c 128,-1,8
 51 86 51 86 34.5 124 c 128,-1,9
 18 162 18 162 18 206 c 0,10,11
 18 249 18 249 34.5 288 c 128,-1,12
 51 327 51 327 79.5 355.5 c 128,-1,13
 108 384 108 384 146 401 c 128,-1,14
 184 418 184 418 228 418 c 0,15,16
 271 418 271 418 309 401 c 128,-1,17
 347 384 347 384 375.5 355.5 c 128,-1,18
 404 327 404 327 421 288 c 128,-1,19
 438 249 438 249 438 206 c 0,0,1
EndSplineSet
Validated: 1
EndChar

StartChar: comma
Encoding: 44 44 106
Width: 456
Flags: W
LayerCount: 2
Fore
SplineSet
436 222 m 1,0,1
 435 175 435 175 415.5 118 c 128,-1,2
 396 61 396 61 360 5.5 c 128,-1,3
 324 -50 324 -50 273.5 -99.5 c 128,-1,4
 223 -149 223 -149 160 -182 c 1,5,6
 160 -181 160 -181 159 -158.5 c 128,-1,7
 158 -136 158 -136 156.5 -103.5 c 128,-1,8
 155 -71 155 -71 153 -34 c 128,-1,9
 151 3 151 3 150 32 c 1,10,11
 88 55 88 55 52 109 c 128,-1,12
 16 163 16 163 16 228 c 0,13,14
 16 271 16 271 32.5 309 c 128,-1,15
 49 347 49 347 77.5 375.5 c 128,-1,16
 106 404 106 404 144 421 c 128,-1,17
 182 438 182 438 226 438 c 0,18,19
 269 438 269 438 307.5 421 c 128,-1,20
 346 404 346 404 374.5 375.5 c 128,-1,21
 403 347 403 347 420 309 c 128,-1,22
 437 271 437 271 436 228 c 1,23,-1
 436 222 l 1,0,1
EndSplineSet
Validated: 33
EndChar

StartChar: semicolon
Encoding: 59 59 107
Width: 506
Flags: W
LayerCount: 2
Fore
SplineSet
462 222 m 1,0,1
 461 175 461 175 441.5 118 c 128,-1,2
 422 61 422 61 386 5.5 c 128,-1,3
 350 -50 350 -50 299.5 -99.5 c 128,-1,4
 249 -149 249 -149 186 -182 c 1,5,6
 186 -181 186 -181 185 -158.5 c 128,-1,7
 184 -136 184 -136 182.5 -103.5 c 128,-1,8
 181 -71 181 -71 179 -34 c 128,-1,9
 177 3 177 3 176 32 c 1,10,11
 114 55 114 55 78 109 c 128,-1,12
 42 163 42 163 42 228 c 0,13,14
 42 271 42 271 58.5 309 c 128,-1,15
 75 347 75 347 103.5 375.5 c 128,-1,16
 132 404 132 404 170 421 c 128,-1,17
 208 438 208 438 252 438 c 0,18,19
 295 438 295 438 333.5 421 c 128,-1,20
 372 404 372 404 400.5 375.5 c 128,-1,21
 429 347 429 347 446 309 c 128,-1,22
 463 271 463 271 462 228 c 1,23,-1
 462 222 l 1,0,1
462 846 m 0,24,25
 462 802 462 802 445 764 c 128,-1,26
 428 726 428 726 399.5 697.5 c 128,-1,27
 371 669 371 669 333 652.5 c 128,-1,28
 295 636 295 636 252 636 c 0,29,30
 208 636 208 636 170 652.5 c 128,-1,31
 132 669 132 669 103.5 697.5 c 128,-1,32
 75 726 75 726 58.5 764 c 128,-1,33
 42 802 42 802 42 846 c 0,34,35
 42 889 42 889 58.5 928 c 128,-1,36
 75 967 75 967 103.5 995.5 c 128,-1,37
 132 1024 132 1024 170 1041 c 128,-1,38
 208 1058 208 1058 252 1058 c 0,39,40
 295 1058 295 1058 333 1041 c 128,-1,41
 371 1024 371 1024 399.5 995.5 c 128,-1,42
 428 967 428 967 445 928 c 128,-1,43
 462 889 462 889 462 846 c 0,24,25
EndSplineSet
Validated: 33
EndChar

StartChar: colon
Encoding: 58 58 108
Width: 508
Flags: W
LayerCount: 2
Fore
SplineSet
464 206 m 0,0,1
 464 162 464 162 447 124 c 128,-1,2
 430 86 430 86 401.5 57.5 c 128,-1,3
 373 29 373 29 335 12.5 c 128,-1,4
 297 -4 297 -4 254 -4 c 0,5,6
 210 -4 210 -4 172 12.5 c 128,-1,7
 134 29 134 29 105.5 57.5 c 128,-1,8
 77 86 77 86 60.5 124 c 128,-1,9
 44 162 44 162 44 206 c 0,10,11
 44 249 44 249 60.5 288 c 128,-1,12
 77 327 77 327 105.5 355.5 c 128,-1,13
 134 384 134 384 172 401 c 128,-1,14
 210 418 210 418 254 418 c 0,15,16
 297 418 297 418 335 401 c 128,-1,17
 373 384 373 384 401.5 355.5 c 128,-1,18
 430 327 430 327 447 288 c 128,-1,19
 464 249 464 249 464 206 c 0,0,1
464 846 m 0,20,21
 464 802 464 802 447 764 c 128,-1,22
 430 726 430 726 401.5 697.5 c 128,-1,23
 373 669 373 669 335 652.5 c 128,-1,24
 297 636 297 636 254 636 c 0,25,26
 210 636 210 636 172 652.5 c 128,-1,27
 134 669 134 669 105.5 697.5 c 128,-1,28
 77 726 77 726 60.5 764 c 128,-1,29
 44 802 44 802 44 846 c 0,30,31
 44 889 44 889 60.5 928 c 128,-1,32
 77 967 77 967 105.5 995.5 c 128,-1,33
 134 1024 134 1024 172 1041 c 128,-1,34
 210 1058 210 1058 254 1058 c 0,35,36
 297 1058 297 1058 335 1041 c 128,-1,37
 373 1024 373 1024 401.5 995.5 c 128,-1,38
 430 967 430 967 447 928 c 128,-1,39
 464 889 464 889 464 846 c 0,20,21
EndSplineSet
Validated: 1
EndChar

StartChar: plus
Encoding: 43 43 109
Width: 933
Flags: W
LayerCount: 2
Fore
SplineSet
306 226 m 1,0,-1
 304 488 l 1,1,-1
 54 492 l 1,2,-1
 50 792 l 1,3,-1
 300 800 l 1,4,-1
 300 1036 l 1,5,-1
 610 1068 l 1,6,-1
 614 814 l 1,7,-1
 876 822 l 1,8,-1
 880 480 l 1,9,-1
 618 484 l 1,10,-1
 622 222 l 1,11,-1
 306 226 l 1,0,-1
EndSplineSet
Validated: 1
EndChar

StartChar: multiply
Encoding: 215 215 110
Width: 913
Flags: W
LayerCount: 2
Fore
SplineSet
44 462 m 1,0,-1
 228 648 l 1,1,-1
 54 828 l 1,2,-1
 264 1044 l 1,3,-1
 446 872 l 1,4,-1
 614 1038 l 1,5,-1
 856 842 l 1,6,-1
 678 660 l 1,7,-1
 870 480 l 1,8,-1
 630 236 l 1,9,-1
 448 424 l 1,10,-1
 266 236 l 1,11,-1
 44 462 l 1,0,-1
EndSplineSet
Validated: 1
EndChar

StartChar: asterisk
Encoding: 42 42 111
Width: 1110
Flags: W
LayerCount: 2
Fore
SplineSet
811 920 m 1,0,-1
 1001 684 l 1,1,-1
 741 474 l 1,2,-1
 553 760 l 1,3,-1
 371 458 l 1,4,-1
 111 658 l 1,5,-1
 293 880 l 1,6,-1
 41 978 l 1,7,-1
 163 1268 l 1,8,-1
 375 1162 l 1,9,-1
 369 1460 l 1,10,-1
 701 1472 l 1,11,-1
 689 1150 l 1,12,-1
 903 1310 l 1,13,-1
 1051 1014 l 1,14,-1
 811 920 l 1,0,-1
EndSplineSet
Validated: 1
EndChar

StartChar: asciicircum
Encoding: 94 94 112
Width: 994
Flags: W
LayerCount: 2
Fore
SplineSet
624 644 m 2,0,1
 623 643 623 643 614.5 673 c 128,-1,2
 606 703 606 703 593 747.5 c 128,-1,3
 580 792 580 792 565 844.5 c 128,-1,4
 550 897 550 897 537.5 942.5 c 128,-1,5
 525 988 525 988 516.5 1018.5 c 128,-1,6
 508 1049 508 1049 508 1050 c 1,7,8
 472 958 472 958 439 864.5 c 128,-1,9
 406 771 406 771 376 676 c 1,10,-1
 0 764 l 1,11,12
 23 819 23 819 55.5 890.5 c 128,-1,13
 88 962 88 962 124 1037 c 128,-1,14
 160 1112 160 1112 195 1183.5 c 128,-1,15
 230 1255 230 1255 258 1311 c 128,-1,16
 286 1367 286 1367 303.5 1401.5 c 128,-1,17
 321 1436 321 1436 322 1436 c 2,18,-1
 698 1444 l 2,19,20
 697 1443 697 1443 713 1406 c 128,-1,21
 729 1369 729 1369 754.5 1308.5 c 128,-1,22
 780 1248 780 1248 812.5 1171 c 128,-1,23
 845 1094 845 1094 878 1013.5 c 128,-1,24
 911 933 911 933 941.5 856 c 128,-1,25
 972 779 972 779 994 718 c 1,26,-1
 624 644 l 2,0,1
EndSplineSet
Validated: 5
EndChar

StartChar: asciitilde
Encoding: 126 126 113
Width: 1180
Flags: W
LayerCount: 2
Fore
SplineSet
1084 1114 m 1,0,1
 1116 1045 1116 1045 1136 971.5 c 128,-1,2
 1156 898 1156 898 1156 824 c 0,3,4
 1156 744 1156 744 1127 670 c 128,-1,5
 1098 596 1098 596 1046.5 539 c 128,-1,6
 995 482 995 482 924 448 c 128,-1,7
 853 414 853 414 770 414 c 0,8,9
 713 414 713 414 672 435.5 c 128,-1,10
 631 457 631 457 601 489.5 c 128,-1,11
 571 522 571 522 548.5 560 c 128,-1,12
 526 598 526 598 507 630.5 c 128,-1,13
 488 663 488 663 469 684.5 c 128,-1,14
 450 706 450 706 426 706 c 0,15,16
 410 706 410 706 399.5 698 c 128,-1,17
 389 690 389 690 383 678 c 128,-1,18
 377 666 377 666 374.5 652 c 128,-1,19
 372 638 372 638 372 626 c 0,20,21
 372 584 372 584 386.5 541.5 c 128,-1,22
 401 499 401 499 416 460 c 1,23,-1
 72 416 l 1,24,25
 54 482 54 482 42 548 c 128,-1,26
 30 614 30 614 30 680 c 0,27,28
 30 768 30 768 54.5 842 c 128,-1,29
 79 916 79 916 126 968.5 c 128,-1,30
 173 1021 173 1021 241.5 1050.5 c 128,-1,31
 310 1080 310 1080 398 1080 c 0,32,33
 465 1080 465 1080 511 1060.5 c 128,-1,34
 557 1041 557 1041 588.5 1012 c 128,-1,35
 620 983 620 983 639.5 949 c 128,-1,36
 659 915 659 915 674.5 886 c 128,-1,37
 690 857 690 857 704.5 837.5 c 128,-1,38
 719 818 719 818 740 818 c 0,39,40
 755 818 755 818 766.5 824.5 c 128,-1,41
 778 831 778 831 786 841.5 c 128,-1,42
 794 852 794 852 798 865 c 128,-1,43
 802 878 802 878 802 890 c 0,44,45
 802 931 802 931 780.5 970.5 c 128,-1,46
 759 1010 759 1010 738 1042 c 1,47,-1
 1084 1114 l 1,0,1
EndSplineSet
Validated: 1
EndChar

StartChar: bar
Encoding: 124 124 114
Width: 588
Flags: W
LayerCount: 2
Fore
SplineSet
73 -144 m 1,0,-1
 69 1552 l 1,1,-1
 517 1542 l 1,2,-1
 517 -144 l 1,3,-1
 73 -144 l 1,0,-1
EndSplineSet
Validated: 1
EndChar

StartChar: underscore
Encoding: 95 95 115
Width: 618
Flags: W
LayerCount: 2
Fore
SplineSet
-12 -424 m 1,0,-1
 -16 -124 l 1,1,-1
 630 -94 l 1,2,-1
 634 -436 l 1,3,-1
 -12 -424 l 1,0,-1
EndSplineSet
Validated: 1
EndChar

StartChar: equal
Encoding: 61 61 116
Width: 800
Flags: W
LayerCount: 2
Fore
SplineSet
77 292 m 1,0,-1
 73 592 l 1,1,-1
 719 592 l 1,2,-1
 723 250 l 1,3,-1
 77 292 l 1,0,-1
77 692 m 1,4,-1
 73 992 l 1,5,-1
 719 1022 l 1,6,-1
 723 680 l 1,7,-1
 77 692 l 1,4,-1
EndSplineSet
Validated: 1
EndChar

StartChar: degree
Encoding: 176 176 117
Width: 634
Flags: W
LayerCount: 2
Fore
SplineSet
620 1134 m 0,0,1
 620 1072 620 1072 596 1018 c 128,-1,2
 572 964 572 964 531.5 924 c 128,-1,3
 491 884 491 884 436 861 c 128,-1,4
 381 838 381 838 320 838 c 0,5,6
 256 838 256 838 200.5 861 c 128,-1,7
 145 884 145 884 103.5 924 c 128,-1,8
 62 964 62 964 38 1018 c 128,-1,9
 14 1072 14 1072 14 1134 c 0,10,11
 14 1195 14 1195 38 1248 c 128,-1,12
 62 1301 62 1301 102.5 1340.5 c 128,-1,13
 143 1380 143 1380 197.5 1403 c 128,-1,14
 252 1426 252 1426 314 1426 c 0,15,16
 378 1426 378 1426 433.5 1403 c 128,-1,17
 489 1380 489 1380 530.5 1340.5 c 128,-1,18
 572 1301 572 1301 596 1248 c 128,-1,19
 620 1195 620 1195 620 1134 c 0,0,1
414 1128 m 0,20,21
 414 1150 414 1150 407.5 1170.5 c 128,-1,22
 401 1191 401 1191 390 1206.5 c 128,-1,23
 379 1222 379 1222 363.5 1231 c 128,-1,24
 348 1240 348 1240 330 1240 c 256,25,26
 312 1240 312 1240 296 1231 c 128,-1,27
 280 1222 280 1222 268 1206.5 c 128,-1,28
 256 1191 256 1191 249 1170.5 c 128,-1,29
 242 1150 242 1150 242 1128 c 0,30,31
 242 1104 242 1104 249 1083 c 128,-1,32
 256 1062 256 1062 268 1047 c 128,-1,33
 280 1032 280 1032 296 1023 c 128,-1,34
 312 1014 312 1014 330 1014 c 0,35,36
 366 1014 366 1014 390 1047 c 128,-1,37
 414 1080 414 1080 414 1128 c 0,20,21
EndSplineSet
Validated: 1
EndChar

StartChar: periodcentered
Encoding: 183 183 118
Width: 462
Flags: W
LayerCount: 2
Fore
SplineSet
442 696 m 0,0,1
 442 652 442 652 425 614 c 128,-1,2
 408 576 408 576 379.5 547.5 c 128,-1,3
 351 519 351 519 313 502.5 c 128,-1,4
 275 486 275 486 232 486 c 0,5,6
 188 486 188 486 150 502.5 c 128,-1,7
 112 519 112 519 83.5 547.5 c 128,-1,8
 55 576 55 576 38.5 614 c 128,-1,9
 22 652 22 652 22 696 c 0,10,11
 22 739 22 739 38.5 778 c 128,-1,12
 55 817 55 817 83.5 845.5 c 128,-1,13
 112 874 112 874 150 891 c 128,-1,14
 188 908 188 908 232 908 c 0,15,16
 275 908 275 908 313 891 c 128,-1,17
 351 874 351 874 379.5 845.5 c 128,-1,18
 408 817 408 817 425 778 c 128,-1,19
 442 739 442 739 442 696 c 0,0,1
EndSplineSet
Validated: 1
EndChar

StartChar: divide
Encoding: 247 247 119
Width: 925
Flags: W
LayerCount: 2
Fore
SplineSet
50 492 m 1,0,-1
 46 792 l 1,1,-1
 872 822 l 1,2,-1
 876 480 l 1,3,-1
 50 492 l 1,0,-1
634 246 m 256,4,5
 634 208 634 208 619.5 174.5 c 128,-1,6
 605 141 605 141 579.5 116 c 128,-1,7
 554 91 554 91 520.5 76.5 c 128,-1,8
 487 62 487 62 450 62 c 0,9,10
 412 62 412 62 378.5 76.5 c 128,-1,11
 345 91 345 91 320 116 c 128,-1,12
 295 141 295 141 280.5 174.5 c 128,-1,13
 266 208 266 208 266 246 c 256,14,15
 266 284 266 284 280.5 318 c 128,-1,16
 295 352 295 352 320 377.5 c 128,-1,17
 345 403 345 403 378.5 417.5 c 128,-1,18
 412 432 412 432 450 432 c 0,19,20
 487 432 487 432 520.5 417.5 c 128,-1,21
 554 403 554 403 579.5 377.5 c 128,-1,22
 605 352 605 352 619.5 318 c 128,-1,23
 634 284 634 284 634 246 c 256,4,5
638 1044 m 256,24,25
 638 1006 638 1006 623.5 972.5 c 128,-1,26
 609 939 609 939 583.5 914 c 128,-1,27
 558 889 558 889 524.5 874.5 c 128,-1,28
 491 860 491 860 454 860 c 0,29,30
 416 860 416 860 382.5 874.5 c 128,-1,31
 349 889 349 889 324 914 c 128,-1,32
 299 939 299 939 284.5 972.5 c 128,-1,33
 270 1006 270 1006 270 1044 c 256,34,35
 270 1082 270 1082 284.5 1116 c 128,-1,36
 299 1150 299 1150 324 1175.5 c 128,-1,37
 349 1201 349 1201 382.5 1215.5 c 128,-1,38
 416 1230 416 1230 454 1230 c 0,39,40
 491 1230 491 1230 524.5 1215.5 c 128,-1,41
 558 1201 558 1201 583.5 1175.5 c 128,-1,42
 609 1150 609 1150 623.5 1116 c 128,-1,43
 638 1082 638 1082 638 1044 c 256,24,25
EndSplineSet
Validated: 1
EndChar

StartChar: logicalnot
Encoding: 172 172 120
Width: 1096
Flags: W
LayerCount: 2
Fore
SplineSet
629 298 m 1,0,-1
 621 604 l 1,1,-1
 69 592 l 1,2,-1
 57 970 l 1,3,-1
 1005 986 l 1,4,-1
 1019 322 l 1,5,-1
 629 298 l 1,0,-1
EndSplineSet
Validated: 1
EndChar

StartChar: plusminus
Encoding: 177 177 121
Width: 962
Flags: W
LayerCount: 2
Fore
SplineSet
317 226 m 1,0,-1
 315 488 l 1,1,-1
 65 492 l 1,2,-1
 61 792 l 1,3,-1
 311 800 l 1,4,-1
 311 1036 l 1,5,-1
 621 1068 l 1,6,-1
 625 814 l 1,7,-1
 887 822 l 1,8,-1
 891 480 l 1,9,-1
 629 484 l 1,10,-1
 633 222 l 1,11,-1
 317 226 l 1,0,-1
65 -202 m 1,12,-1
 61 98 l 1,13,-1
 887 128 l 1,14,-1
 891 -214 l 1,15,-1
 65 -202 l 1,12,-1
EndSplineSet
Validated: 1
EndChar

StartChar: Oslash
Encoding: 216 216 122
Width: 1303
Flags: W
LayerCount: 2
Fore
SplineSet
1148 1320 m 1,0,-1
 1088 1190 l 1,1,2
 1183 1105 1183 1105 1234.5 983 c 128,-1,3
 1286 861 1286 861 1286 706 c 0,4,5
 1286 615 1286 615 1265 530.5 c 128,-1,6
 1244 446 1244 446 1204.5 372 c 128,-1,7
 1165 298 1165 298 1108.5 236.5 c 128,-1,8
 1052 175 1052 175 981.5 131 c 128,-1,9
 911 87 911 87 828 62.5 c 128,-1,10
 745 38 745 38 652 38 c 1,11,-1
 596 -118 l 1,12,-1
 196 38 l 1,13,-1
 252 178 l 1,14,15
 197 221 197 221 153.5 276.5 c 128,-1,16
 110 332 110 332 79.5 396 c 128,-1,17
 49 460 49 460 32.5 531.5 c 128,-1,18
 16 603 16 603 16 680 c 0,19,20
 16 767 16 767 37 850.5 c 128,-1,21
 58 934 58 934 97.5 1008 c 128,-1,22
 137 1082 137 1082 193 1144 c 128,-1,23
 249 1206 249 1206 318.5 1251 c 128,-1,24
 388 1296 388 1296 469 1321 c 128,-1,25
 550 1346 550 1346 640 1346 c 0,26,27
 673 1346 673 1346 704.5 1343.5 c 128,-1,28
 736 1341 736 1341 766 1336 c 1,29,-1
 828 1460 l 1,30,-1
 1148 1320 l 1,0,-1
450 690 m 0,31,32
 450 658 450 658 456 626.5 c 128,-1,33
 462 595 462 595 476 566 c 1,34,-1
 624 904 l 1,35,36
 583 899 583 899 551 880 c 128,-1,37
 519 861 519 861 496.5 832.5 c 128,-1,38
 474 804 474 804 462 767 c 128,-1,39
 450 730 450 730 450 690 c 0,31,32
842 680 m 0,40,41
 842 704 842 704 837.5 728.5 c 128,-1,42
 833 753 833 753 824 776 c 1,43,-1
 678 458 l 1,44,45
 716 465 716 465 746.5 486 c 128,-1,46
 777 507 777 507 798 537 c 128,-1,47
 819 567 819 567 830.5 603.5 c 128,-1,48
 842 640 842 640 842 680 c 0,40,41
EndSplineSet
Validated: 1
EndChar

StartChar: oslash
Encoding: 248 248 123
Width: 1302
Flags: W
LayerCount: 2
Fore
SplineSet
1138 1376 m 1,0,1
 1124 1346 1124 1346 1110 1316 c 128,-1,2
 1096 1286 1096 1286 1082 1254 c 1,3,4
 1179 1169 1179 1169 1232.5 1046 c 128,-1,5
 1286 923 1286 923 1286 766 c 0,6,7
 1286 675 1286 675 1265 590.5 c 128,-1,8
 1244 506 1244 506 1204.5 432 c 128,-1,9
 1165 358 1165 358 1108.5 296.5 c 128,-1,10
 1052 235 1052 235 981.5 191 c 128,-1,11
 911 147 911 147 828 122.5 c 128,-1,12
 745 98 745 98 652 98 c 2,13,-1
 644 98 l 1,14,-1
 586 -62 l 1,15,-1
 186 94 l 1,16,-1
 244 242 l 1,17,18
 191 286 191 286 149 341 c 128,-1,19
 107 396 107 396 77.5 459.5 c 128,-1,20
 48 523 48 523 32 593.5 c 128,-1,21
 16 664 16 664 16 740 c 0,22,23
 16 827 16 827 37 910.5 c 128,-1,24
 58 994 58 994 97.5 1068 c 128,-1,25
 137 1142 137 1142 193 1204 c 128,-1,26
 249 1266 249 1266 318.5 1311 c 128,-1,27
 388 1356 388 1356 469 1381 c 128,-1,28
 550 1406 550 1406 640 1406 c 0,29,30
 670 1406 670 1406 699.5 1403.5 c 128,-1,31
 729 1401 729 1401 758 1398 c 1,32,-1
 818 1516 l 1,33,-1
 1138 1376 l 1,0,1
842 740 m 0,34,35
 842 796 842 796 820 846 c 1,36,-1
 670 516 l 1,37,38
 710 522 710 522 742 542.5 c 128,-1,39
 774 563 774 563 796.5 593.5 c 128,-1,40
 819 624 819 624 830.5 661.5 c 128,-1,41
 842 699 842 699 842 740 c 0,34,35
450 750 m 0,42,43
 450 721 450 721 455.5 692 c 128,-1,44
 461 663 461 663 472 636 c 1,45,-1
 614 962 l 1,46,47
 576 956 576 956 545.5 937 c 128,-1,48
 515 918 515 918 494 889.5 c 128,-1,49
 473 861 473 861 461.5 825.5 c 128,-1,50
 450 790 450 790 450 750 c 0,42,43
EndSplineSet
Validated: 1
EndChar

StartChar: approxequal
Encoding: 8776 8776 124
Width: 1231
Flags: W
LayerCount: 2
Fore
SplineSet
1171 464 m 1,0,1
 1149 402 1149 402 1114 345.5 c 128,-1,2
 1079 289 1079 289 1030.5 246.5 c 128,-1,3
 982 204 982 204 920.5 179 c 128,-1,4
 859 154 859 154 785 154 c 0,5,6
 739 154 739 154 702.5 165.5 c 128,-1,7
 666 177 666 177 636 193.5 c 128,-1,8
 606 210 606 210 580.5 230 c 128,-1,9
 555 250 555 250 532 266.5 c 128,-1,10
 509 283 509 283 487 294.5 c 128,-1,11
 465 306 465 306 441 306 c 0,12,13
 425 306 425 306 406 303 c 128,-1,14
 387 300 387 300 367 287.5 c 128,-1,15
 347 275 347 275 326.5 250 c 128,-1,16
 306 225 306 225 287 182 c 1,17,-1
 59 464 l 1,18,19
 85 502 85 502 116.5 540.5 c 128,-1,20
 148 579 148 579 190 610 c 128,-1,21
 232 641 232 641 286.5 660.5 c 128,-1,22
 341 680 341 680 413 680 c 0,23,24
 484 680 484 680 535 661 c 128,-1,25
 586 642 586 642 624.5 619 c 128,-1,26
 663 596 663 596 693.5 577 c 128,-1,27
 724 558 724 558 755 558 c 0,28,29
 770 558 770 558 792.5 561.5 c 128,-1,30
 815 565 815 565 838.5 576 c 128,-1,31
 862 587 862 587 882 607 c 128,-1,32
 902 627 902 627 913 660 c 1,33,-1
 1171 464 l 1,0,1
1171 982 m 1,34,35
 1149 920 1149 920 1114 863.5 c 128,-1,36
 1079 807 1079 807 1030.5 764.5 c 128,-1,37
 982 722 982 722 920.5 697 c 128,-1,38
 859 672 859 672 785 672 c 0,39,40
 739 672 739 672 702.5 683.5 c 128,-1,41
 666 695 666 695 636 711.5 c 128,-1,42
 606 728 606 728 580.5 748 c 128,-1,43
 555 768 555 768 532 784.5 c 128,-1,44
 509 801 509 801 487 812.5 c 128,-1,45
 465 824 465 824 441 824 c 0,46,47
 425 824 425 824 406 821 c 128,-1,48
 387 818 387 818 367 805.5 c 128,-1,49
 347 793 347 793 326.5 768 c 128,-1,50
 306 743 306 743 287 700 c 1,51,-1
 59 982 l 1,52,53
 85 1020 85 1020 116.5 1058.5 c 128,-1,54
 148 1097 148 1097 190 1128 c 128,-1,55
 232 1159 232 1159 286.5 1178.5 c 128,-1,56
 341 1198 341 1198 413 1198 c 0,57,58
 484 1198 484 1198 535 1179 c 128,-1,59
 586 1160 586 1160 624.5 1137 c 128,-1,60
 663 1114 663 1114 693.5 1095 c 128,-1,61
 724 1076 724 1076 755 1076 c 0,62,63
 770 1076 770 1076 792.5 1079.5 c 128,-1,64
 815 1083 815 1083 838.5 1094 c 128,-1,65
 862 1105 862 1105 882 1125 c 128,-1,66
 902 1145 902 1145 913 1178 c 1,67,-1
 1171 982 l 1,34,35
EndSplineSet
Validated: 1
EndChar

StartChar: braceleft
Encoding: 123 123 125
Width: 840
Flags: W
LayerCount: 2
Fore
SplineSet
784 1244 m 1,0,1
 731 1266 731 1266 672 1266 c 0,2,3
 610 1266 610 1266 580 1243 c 128,-1,4
 550 1220 550 1220 550 1176 c 0,5,6
 550 1142 550 1142 559.5 1110 c 128,-1,7
 569 1078 569 1078 580 1046.5 c 128,-1,8
 591 1015 591 1015 600.5 983 c 128,-1,9
 610 951 610 951 610 918 c 0,10,11
 610 835 610 835 551.5 794.5 c 128,-1,12
 493 754 493 754 386 754 c 1,13,14
 439 743 439 743 483.5 718 c 128,-1,15
 528 693 528 693 559.5 659.5 c 128,-1,16
 591 626 591 626 608.5 586 c 128,-1,17
 626 546 626 546 626 506 c 0,18,19
 626 472 626 472 614.5 439.5 c 128,-1,20
 603 407 603 407 589 375 c 128,-1,21
 575 343 575 343 563.5 310.5 c 128,-1,22
 552 278 552 278 552 244 c 0,23,24
 552 212 552 212 573 186.5 c 128,-1,25
 594 161 594 161 626.5 143 c 128,-1,26
 659 125 659 125 698.5 114.5 c 128,-1,27
 738 104 738 104 776 100 c 1,28,-1
 628 -178 l 1,29,30
 544 -180 544 -180 464.5 -152.5 c 128,-1,31
 385 -125 385 -125 323.5 -79 c 128,-1,32
 262 -33 262 -33 225 26.5 c 128,-1,33
 188 86 188 86 188 148 c 0,34,35
 188 183 188 183 200 217 c 128,-1,36
 212 251 212 251 227 284.5 c 128,-1,37
 242 318 242 318 254 352 c 128,-1,38
 266 386 266 386 266 422 c 0,39,40
 266 459 266 459 241 489.5 c 128,-1,41
 216 520 216 520 176.5 540 c 128,-1,42
 137 560 137 560 88.5 569 c 128,-1,43
 40 578 40 578 -6 574 c 1,44,-1
 4 850 l 1,45,46
 15 848 15 848 23 848 c 128,-1,47
 31 848 31 848 42 848 c 0,48,49
 82 848 82 848 118 857.5 c 128,-1,50
 154 867 154 867 181 884.5 c 128,-1,51
 208 902 208 902 224 927 c 128,-1,52
 240 952 240 952 240 984 c 0,53,54
 240 1021 240 1021 228 1057.5 c 128,-1,55
 216 1094 216 1094 202 1130 c 128,-1,56
 188 1166 188 1166 176 1202 c 128,-1,57
 164 1238 164 1238 164 1276 c 0,58,59
 164 1340 164 1340 201 1396 c 128,-1,60
 238 1452 238 1452 299 1492.5 c 128,-1,61
 360 1533 360 1533 439 1556.5 c 128,-1,62
 518 1580 518 1580 602 1580 c 0,63,64
 680 1580 680 1580 753.5 1560 c 128,-1,65
 827 1540 827 1540 892 1510 c 1,66,-1
 784 1244 l 1,0,1
EndSplineSet
Validated: 33
EndChar

StartChar: dollar
Encoding: 36 36 126
Width: 894
Flags: W
LayerCount: 2
Fore
SplineSet
293 -138 m 1,0,-1
 303 256 l 1,1,2
 271 262 271 262 238 270.5 c 128,-1,3
 205 279 205 279 173.5 288.5 c 128,-1,4
 142 298 142 298 113 308 c 128,-1,5
 84 318 84 318 61 328 c 1,6,-1
 95 574 l 1,7,8
 158 542 158 542 236 526 c 128,-1,9
 314 510 314 510 391 510 c 0,10,11
 405 510 405 510 425.5 511 c 128,-1,12
 446 512 446 512 465 516.5 c 128,-1,13
 484 521 484 521 497.5 531 c 128,-1,14
 511 541 511 541 511 558 c 0,15,16
 511 576 511 576 491.5 585.5 c 128,-1,17
 472 595 472 595 445.5 599.5 c 128,-1,18
 419 604 419 604 392 605 c 128,-1,19
 365 606 365 606 351 606 c 0,20,21
 286 606 286 606 233 623 c 128,-1,22
 180 640 180 640 141.5 671.5 c 128,-1,23
 103 703 103 703 82 747 c 128,-1,24
 61 791 61 791 61 846 c 0,25,26
 61 897 61 897 78.5 941 c 128,-1,27
 96 985 96 985 127.5 1021 c 128,-1,28
 159 1057 159 1057 202.5 1084.5 c 128,-1,29
 246 1112 246 1112 297 1130 c 1,30,-1
 281 1552 l 1,31,-1
 389 1542 l 1,32,-1
 389 1154 l 1,33,34
 403 1157 403 1157 416 1158.5 c 128,-1,35
 429 1160 429 1160 443 1162 c 1,36,-1
 441 1552 l 1,37,-1
 549 1550 l 1,38,-1
 535 1162 l 1,39,40
 601 1160 601 1160 668 1149.5 c 128,-1,41
 735 1139 735 1139 791 1116 c 1,42,-1
 765 862 l 1,43,44
 712 876 712 876 656 886 c 128,-1,45
 600 896 600 896 549 896 c 0,46,47
 533 896 533 896 506.5 895 c 128,-1,48
 480 894 480 894 454.5 889 c 128,-1,49
 429 884 429 884 410.5 874 c 128,-1,50
 392 864 392 864 393 846 c 0,51,52
 394 831 394 831 406 823.5 c 128,-1,53
 418 816 418 816 436.5 812.5 c 128,-1,54
 455 809 455 809 478 809 c 128,-1,55
 501 809 501 809 522.5 810 c 128,-1,56
 544 811 544 811 563 812 c 128,-1,57
 582 813 582 813 593 812 c 0,58,59
 653 809 653 809 701 791 c 128,-1,60
 749 773 749 773 783 742.5 c 128,-1,61
 817 712 817 712 835 670 c 128,-1,62
 853 628 853 628 853 578 c 0,63,64
 853 508 853 508 829.5 454 c 128,-1,65
 806 400 806 400 764 360.5 c 128,-1,66
 722 321 722 321 663.5 295.5 c 128,-1,67
 605 270 605 270 535 258 c 1,68,-1
 551 -136 l 1,69,-1
 453 -146 l 1,70,-1
 449 248 l 1,71,72
 435 246 435 246 421 246 c 128,-1,73
 407 246 407 246 393 246 c 2,74,-1
 389 246 l 1,75,-1
 391 -144 l 1,76,-1
 293 -138 l 1,0,-1
EndSplineSet
Validated: 1
EndChar

StartChar: cent
Encoding: 162 162 127
Width: 864
Flags: W
LayerCount: 2
Fore
SplineSet
389 -146 m 1,0,-1
 399 250 l 1,1,2
 317 267 317 267 251 306 c 128,-1,3
 185 345 185 345 138.5 399 c 128,-1,4
 92 453 92 453 66.5 519.5 c 128,-1,5
 41 586 41 586 41 660 c 0,6,7
 41 743 41 743 64 817.5 c 128,-1,8
 87 892 87 892 132 952 c 128,-1,9
 177 1012 177 1012 243 1056.5 c 128,-1,10
 309 1101 309 1101 395 1124 c 1,11,-1
 377 1552 l 1,12,-1
 505 1542 l 1,13,-1
 491 1142 l 1,14,15
 533 1148 533 1148 581 1148 c 0,16,17
 632 1148 632 1148 685.5 1142 c 128,-1,18
 739 1136 739 1136 789 1116 c 1,19,-1
 761 850 l 1,20,21
 740 855 740 855 719 856.5 c 128,-1,22
 698 858 698 858 675 858 c 0,23,24
 622 858 622 858 574 846.5 c 128,-1,25
 526 835 526 835 488.5 811.5 c 128,-1,26
 451 788 451 788 429 752.5 c 128,-1,27
 407 717 407 717 407 668 c 0,28,29
 407 599 407 599 453.5 564.5 c 128,-1,30
 500 530 500 530 583 530 c 0,31,32
 639 530 639 530 699.5 547.5 c 128,-1,33
 760 565 760 565 807 588 c 1,34,-1
 795 292 l 1,35,36
 766 280 766 280 731.5 270 c 128,-1,37
 697 260 697 260 661 253 c 128,-1,38
 625 246 625 246 588.5 242 c 128,-1,39
 552 238 552 238 519 238 c 2,40,-1
 491 238 l 1,41,-1
 507 -144 l 1,42,-1
 389 -146 l 1,0,-1
EndSplineSet
Validated: 1
EndChar

StartChar: Euro
Encoding: 8364 8364 128
Width: 1048
Flags: W
LayerCount: 2
Fore
SplineSet
691 578 m 1,0,-1
 605 572 l 1,1,2
 650 530 650 530 745 530 c 0,3,4
 801 530 801 530 861.5 547.5 c 128,-1,5
 922 565 922 565 969 588 c 1,6,-1
 957 292 l 1,7,8
 928 280 928 280 893.5 270 c 128,-1,9
 859 260 859 260 823 253 c 128,-1,10
 787 246 787 246 750.5 242 c 128,-1,11
 714 238 714 238 681 238 c 0,12,13
 592 238 592 238 516.5 261.5 c 128,-1,14
 441 285 441 285 381 326.5 c 128,-1,15
 321 368 321 368 279.5 424.5 c 128,-1,16
 238 481 238 481 219 548 c 1,17,-1
 41 536 l 1,18,-1
 79 670 l 1,19,-1
 203 668 l 1,20,21
 203 679 203 679 203 688 c 128,-1,22
 203 697 203 697 205 708 c 1,23,-1
 89 708 l 1,24,-1
 121 836 l 1,25,-1
 229 828 l 1,26,27
 253 899 253 899 298 958 c 128,-1,28
 343 1017 343 1017 407.5 1059 c 128,-1,29
 472 1101 472 1101 556 1124.5 c 128,-1,30
 640 1148 640 1148 743 1148 c 0,31,32
 794 1148 794 1148 847.5 1142 c 128,-1,33
 901 1136 901 1136 951 1116 c 1,34,-1
 923 850 l 1,35,36
 902 855 902 855 881 856.5 c 128,-1,37
 860 858 860 858 837 858 c 0,38,39
 778 858 778 858 724.5 843.5 c 128,-1,40
 671 829 671 829 633 800 c 1,41,-1
 691 796 l 1,42,-1
 691 712 l 1,43,-1
 573 710 l 1,44,45
 571 701 571 701 570 690 c 128,-1,46
 569 679 569 679 569 668 c 2,47,-1
 569 662 l 1,48,-1
 691 662 l 1,49,-1
 691 578 l 1,0,-1
EndSplineSet
Validated: 1
EndChar

StartChar: ellipsis
Encoding: 8230 8230 129
Width: 1574
Flags: W
LayerCount: 2
Fore
SplineSet
438 206 m 0,0,1
 438 162 438 162 421 124 c 128,-1,2
 404 86 404 86 375.5 57.5 c 128,-1,3
 347 29 347 29 309 12.5 c 128,-1,4
 271 -4 271 -4 228 -4 c 0,5,6
 184 -4 184 -4 146 12.5 c 128,-1,7
 108 29 108 29 79.5 57.5 c 128,-1,8
 51 86 51 86 34.5 124 c 128,-1,9
 18 162 18 162 18 206 c 0,10,11
 18 249 18 249 34.5 288 c 128,-1,12
 51 327 51 327 79.5 355.5 c 128,-1,13
 108 384 108 384 146 401 c 128,-1,14
 184 418 184 418 228 418 c 0,15,16
 271 418 271 418 309 401 c 128,-1,17
 347 384 347 384 375.5 355.5 c 128,-1,18
 404 327 404 327 421 288 c 128,-1,19
 438 249 438 249 438 206 c 0,0,1
998 206 m 0,20,21
 998 162 998 162 981 124 c 128,-1,22
 964 86 964 86 935.5 57.5 c 128,-1,23
 907 29 907 29 869 12.5 c 128,-1,24
 831 -4 831 -4 788 -4 c 0,25,26
 744 -4 744 -4 706 12.5 c 128,-1,27
 668 29 668 29 639.5 57.5 c 128,-1,28
 611 86 611 86 594.5 124 c 128,-1,29
 578 162 578 162 578 206 c 0,30,31
 578 249 578 249 594.5 288 c 128,-1,32
 611 327 611 327 639.5 355.5 c 128,-1,33
 668 384 668 384 706 401 c 128,-1,34
 744 418 744 418 788 418 c 0,35,36
 831 418 831 418 869 401 c 128,-1,37
 907 384 907 384 935.5 355.5 c 128,-1,38
 964 327 964 327 981 288 c 128,-1,39
 998 249 998 249 998 206 c 0,20,21
1558 206 m 0,40,41
 1558 162 1558 162 1541 124 c 128,-1,42
 1524 86 1524 86 1495.5 57.5 c 128,-1,43
 1467 29 1467 29 1429 12.5 c 128,-1,44
 1391 -4 1391 -4 1348 -4 c 0,45,46
 1304 -4 1304 -4 1266 12.5 c 128,-1,47
 1228 29 1228 29 1199.5 57.5 c 128,-1,48
 1171 86 1171 86 1154.5 124 c 128,-1,49
 1138 162 1138 162 1138 206 c 0,50,51
 1138 249 1138 249 1154.5 288 c 128,-1,52
 1171 327 1171 327 1199.5 355.5 c 128,-1,53
 1228 384 1228 384 1266 401 c 128,-1,54
 1304 418 1304 418 1348 418 c 0,55,56
 1391 418 1391 418 1429 401 c 128,-1,57
 1467 384 1467 384 1495.5 355.5 c 128,-1,58
 1524 327 1524 327 1541 288 c 128,-1,59
 1558 249 1558 249 1558 206 c 0,40,41
EndSplineSet
Validated: 1
EndChar

StartChar: notequal
Encoding: 8800 8800 130
Width: 785
Flags: W
LayerCount: 2
Fore
SplineSet
501 684 m 1,0,-1
 473 592 l 1,1,-1
 713 592 l 1,2,-1
 717 250 l 1,3,-1
 373 272 l 1,4,-1
 329 124 l 1,5,-1
 129 180 l 1,6,-1
 169 286 l 1,7,-1
 71 292 l 1,8,-1
 67 592 l 1,9,-1
 293 592 l 1,10,-1
 331 686 l 1,11,-1
 71 692 l 1,12,-1
 67 992 l 1,13,-1
 461 1010 l 1,14,-1
 543 1204 l 1,15,-1
 643 1138 l 1,16,17
 638 1126 638 1126 629 1093.5 c 128,-1,18
 620 1061 620 1061 605 1016 c 1,19,-1
 713 1022 l 1,20,-1
 717 680 l 1,21,-1
 501 684 l 1,0,-1
EndSplineSet
Validated: 1
EndChar

StartChar: AE
Encoding: 198 198 131
Width: 1719
Flags: W
LayerCount: 2
Fore
SplineSet
820 554 m 1,0,-1
 830 902 l 1,1,-1
 670 554 l 1,2,-1
 820 554 l 1,0,-1
1736 1442 m 1,3,4
 1730 1348 1730 1348 1725 1256 c 128,-1,5
 1720 1164 1720 1164 1712 1070 c 1,6,-1
 1288 1048 l 1,7,-1
 1278 922 l 1,8,-1
 1576 922 l 1,9,-1
 1554 612 l 1,10,-1
 1254 602 l 1,11,-1
 1244 456 l 1,12,-1
 1668 456 l 1,13,14
 1662 346 1662 346 1655.5 237.5 c 128,-1,15
 1649 129 1649 129 1644 20 c 1,16,-1
 782 0 l 1,17,-1
 790 248 l 1,18,-1
 546 248 l 1,19,-1
 446 22 l 1,20,-1
 -50 72 l 1,21,-1
 678 1404 l 1,22,-1
 1736 1442 l 1,3,4
EndSplineSet
Validated: 1
EndChar

StartChar: ae
Encoding: 230 230 132
Width: 1880
Flags: W
LayerCount: 2
Fore
SplineSet
1866 808 m 0,0,1
 1866 721 1866 721 1854 634 c 1,2,3
 1683 623 1683 623 1514.5 598.5 c 128,-1,4
 1346 574 1346 574 1178 550 c 1,5,-1
 1184 528 l 1,6,7
 1211 465 1211 465 1265 428.5 c 128,-1,8
 1319 392 1319 392 1390 392 c 0,9,10
 1430 392 1430 392 1477.5 407 c 128,-1,11
 1525 422 1525 422 1572 444.5 c 128,-1,12
 1619 467 1619 467 1662 493 c 128,-1,13
 1705 519 1705 519 1736 540 c 1,14,-1
 1688 86 l 1,15,16
 1649 56 1649 56 1603.5 35 c 128,-1,17
 1558 14 1558 14 1509 1 c 128,-1,18
 1460 -12 1460 -12 1410 -18 c 128,-1,19
 1360 -24 1360 -24 1312 -24 c 0,20,21
 1208 -24 1208 -24 1116 0 c 128,-1,22
 1024 24 1024 24 952 62.5 c 128,-1,23
 880 101 880 101 832 149.5 c 128,-1,24
 784 198 784 198 770 248 c 1,25,-1
 532 248 l 1,26,-1
 478 22 l 1,27,-1
 -32 72 l 1,28,-1
 366 1404 l 1,29,-1
 922 1432 l 1,30,-1
 960 1302 l 1,31,32
 1034 1370 1034 1370 1130 1409 c 128,-1,33
 1226 1448 1226 1448 1348 1448 c 0,34,35
 1437 1448 1437 1448 1510.5 1423.5 c 128,-1,36
 1584 1399 1584 1399 1641.5 1355.5 c 128,-1,37
 1699 1312 1699 1312 1741.5 1252 c 128,-1,38
 1784 1192 1784 1192 1811.5 1120.5 c 128,-1,39
 1839 1049 1839 1049 1852.5 969.5 c 128,-1,40
 1866 890 1866 890 1866 808 c 0,0,1
1466 860 m 2,41,42
 1466 888 1466 888 1460 917.5 c 128,-1,43
 1454 947 1454 947 1440.5 971 c 128,-1,44
 1427 995 1427 995 1405 1010.5 c 128,-1,45
 1383 1026 1383 1026 1350 1026 c 0,46,47
 1310 1026 1310 1026 1279.5 1004.5 c 128,-1,48
 1249 983 1249 983 1227 950.5 c 128,-1,49
 1205 918 1205 918 1191 880 c 128,-1,50
 1177 842 1177 842 1170 810 c 1,51,-1
 1466 838 l 1,52,-1
 1466 860 l 2,41,42
720 554 m 1,53,-1
 644 902 l 1,54,-1
 570 554 l 1,55,-1
 720 554 l 1,53,-1
EndSplineSet
Validated: 1
EndChar

StartChar: OE
Encoding: 338 338 133
Width: 1769
Flags: W
LayerCount: 2
Fore
SplineSet
1786 1442 m 1,0,1
 1780 1348 1780 1348 1775 1256 c 128,-1,2
 1770 1164 1770 1164 1762 1070 c 1,3,-1
 1338 1048 l 1,4,-1
 1328 922 l 1,5,-1
 1626 922 l 1,6,-1
 1604 612 l 1,7,-1
 1304 602 l 1,8,-1
 1294 456 l 1,9,-1
 1718 456 l 1,10,11
 1712 346 1712 346 1705.5 237.5 c 128,-1,12
 1699 129 1699 129 1694 20 c 1,13,-1
 832 0 l 1,14,-1
 832 64 l 1,15,16
 790 52 790 52 744 45 c 128,-1,17
 698 38 698 38 650 38 c 0,18,19
 560 38 560 38 478.5 61 c 128,-1,20
 397 84 397 84 326 125.5 c 128,-1,21
 255 167 255 167 197.5 225.5 c 128,-1,22
 140 284 140 284 99 355.5 c 128,-1,23
 58 427 58 427 36 509 c 128,-1,24
 14 591 14 591 14 680 c 0,25,26
 14 767 14 767 35 850.5 c 128,-1,27
 56 934 56 934 95.5 1008 c 128,-1,28
 135 1082 135 1082 191 1144 c 128,-1,29
 247 1206 247 1206 316.5 1251 c 128,-1,30
 386 1296 386 1296 467 1321 c 128,-1,31
 548 1346 548 1346 638 1346 c 0,32,33
 698 1346 698 1346 753.5 1337.5 c 128,-1,34
 809 1329 809 1329 860 1314 c 1,35,-1
 864 1442 l 1,36,-1
 1786 1442 l 1,0,1
840 680 m 0,37,38
 840 723 840 723 827.5 763.5 c 128,-1,39
 815 804 815 804 791 835.5 c 128,-1,40
 767 867 767 867 731.5 886.5 c 128,-1,41
 696 906 696 906 650 906 c 0,42,43
 603 906 603 906 566 889 c 128,-1,44
 529 872 529 872 502.5 842.5 c 128,-1,45
 476 813 476 813 462 773.5 c 128,-1,46
 448 734 448 734 448 690 c 0,47,48
 448 648 448 648 460 606 c 128,-1,49
 472 564 472 564 496 530 c 128,-1,50
 520 496 520 496 555.5 475 c 128,-1,51
 591 454 591 454 638 454 c 256,52,53
 685 454 685 454 722.5 472.5 c 128,-1,54
 760 491 760 491 786 522.5 c 128,-1,55
 812 554 812 554 826 595 c 128,-1,56
 840 636 840 636 840 680 c 0,37,38
EndSplineSet
Validated: 1
EndChar

StartChar: oe
Encoding: 339 339 134
Width: 2009
Flags: W
LayerCount: 2
Fore
SplineSet
1995 808 m 0,0,1
 1995 721 1995 721 1983 634 c 1,2,3
 1812 623 1812 623 1643 598.5 c 128,-1,4
 1474 574 1474 574 1305 550 c 1,5,6
 1331 478 1331 478 1386.5 435 c 128,-1,7
 1442 392 1442 392 1519 392 c 0,8,9
 1559 392 1559 392 1606.5 407 c 128,-1,10
 1654 422 1654 422 1701 444.5 c 128,-1,11
 1748 467 1748 467 1791 493 c 128,-1,12
 1834 519 1834 519 1865 540 c 1,13,-1
 1817 86 l 1,14,15
 1778 56 1778 56 1732.5 35 c 128,-1,16
 1687 14 1687 14 1638 1 c 128,-1,17
 1589 -12 1589 -12 1539 -18 c 128,-1,18
 1489 -24 1489 -24 1441 -24 c 0,19,20
 1366 -24 1366 -24 1300.5 -8 c 128,-1,21
 1235 8 1235 8 1178.5 37 c 128,-1,22
 1122 66 1122 66 1075 107 c 128,-1,23
 1028 148 1028 148 991 198 c 1,24,25
 919 150 919 150 833.5 124 c 128,-1,26
 748 98 748 98 651 98 c 0,27,28
 561 98 561 98 479.5 121 c 128,-1,29
 398 144 398 144 327 185.5 c 128,-1,30
 256 227 256 227 198.5 285.5 c 128,-1,31
 141 344 141 344 100 415.5 c 128,-1,32
 59 487 59 487 37 569 c 128,-1,33
 15 651 15 651 15 740 c 0,34,35
 15 827 15 827 36 910.5 c 128,-1,36
 57 994 57 994 96.5 1068 c 128,-1,37
 136 1142 136 1142 192 1204 c 128,-1,38
 248 1266 248 1266 317.5 1311 c 128,-1,39
 387 1356 387 1356 468 1381 c 128,-1,40
 549 1406 549 1406 639 1406 c 0,41,42
 766 1406 766 1406 872 1371.5 c 128,-1,43
 978 1337 978 1337 1059 1274 c 1,44,45
 1136 1354 1136 1354 1239.5 1401 c 128,-1,46
 1343 1448 1343 1448 1477 1448 c 0,47,48
 1566 1448 1566 1448 1639.5 1423.5 c 128,-1,49
 1713 1399 1713 1399 1770.5 1355.5 c 128,-1,50
 1828 1312 1828 1312 1870.5 1252 c 128,-1,51
 1913 1192 1913 1192 1940.5 1120.5 c 128,-1,52
 1968 1049 1968 1049 1981.5 969.5 c 128,-1,53
 1995 890 1995 890 1995 808 c 0,0,1
841 740 m 0,54,55
 841 783 841 783 828.5 823.5 c 128,-1,56
 816 864 816 864 792 895.5 c 128,-1,57
 768 927 768 927 732.5 946.5 c 128,-1,58
 697 966 697 966 651 966 c 0,59,60
 604 966 604 966 567 949 c 128,-1,61
 530 932 530 932 503.5 902.5 c 128,-1,62
 477 873 477 873 463 833.5 c 128,-1,63
 449 794 449 794 449 750 c 0,64,65
 449 708 449 708 461 666 c 128,-1,66
 473 624 473 624 497 590 c 128,-1,67
 521 556 521 556 556.5 535 c 128,-1,68
 592 514 592 514 639 514 c 256,69,70
 686 514 686 514 723.5 532.5 c 128,-1,71
 761 551 761 551 787 582.5 c 128,-1,72
 813 614 813 614 827 655 c 128,-1,73
 841 696 841 696 841 740 c 0,54,55
1595 860 m 2,74,75
 1595 888 1595 888 1589 917.5 c 128,-1,76
 1583 947 1583 947 1569.5 971 c 128,-1,77
 1556 995 1556 995 1534 1010.5 c 128,-1,78
 1512 1026 1512 1026 1479 1026 c 0,79,80
 1439 1026 1439 1026 1408.5 1004.5 c 128,-1,81
 1378 983 1378 983 1356 950.5 c 128,-1,82
 1334 918 1334 918 1320 880 c 128,-1,83
 1306 842 1306 842 1299 810 c 1,84,-1
 1595 838 l 1,85,-1
 1595 860 l 2,74,75
EndSplineSet
Validated: 1
EndChar

StartChar: ordfeminine
Encoding: 170 170 135
Width: 914
Flags: W
LayerCount: 2
Fore
SplineSet
918 552 m 1,0,-1
 576 514 l 1,1,-1
 538 660 l 1,2,-1
 378 660 l 1,3,-1
 344 514 l 1,4,-1
 -8 544 l 1,5,-1
 266 1342 l 1,6,-1
 650 1360 l 1,7,-1
 918 552 l 1,0,-1
512 832 m 1,8,-1
 458 1042 l 1,9,-1
 408 832 l 1,10,-1
 512 832 l 1,8,-1
EndSplineSet
Validated: 1
EndChar

StartChar: ordmasculine
Encoding: 186 186 136
Width: 902
Flags: W
LayerCount: 2
Fore
SplineSet
888 960 m 0,0,1
 888 878 888 878 855.5 805 c 128,-1,2
 823 732 823 732 765 677 c 128,-1,3
 707 622 707 622 627 590 c 128,-1,4
 547 558 547 558 452 558 c 0,5,6
 358 558 358 558 277.5 588 c 128,-1,7
 197 618 197 618 138 670.5 c 128,-1,8
 79 723 79 723 45.5 793.5 c 128,-1,9
 12 864 12 864 12 944 c 0,10,11
 12 1023 12 1023 44.5 1095 c 128,-1,12
 77 1167 77 1167 134 1222.5 c 128,-1,13
 191 1278 191 1278 270 1311 c 128,-1,14
 349 1344 349 1344 442 1344 c 0,15,16
 543 1344 543 1344 625.5 1317 c 128,-1,17
 708 1290 708 1290 766.5 1240 c 128,-1,18
 825 1190 825 1190 856.5 1119 c 128,-1,19
 888 1048 888 1048 888 960 c 0,0,1
582 944 m 0,20,21
 582 969 582 969 573.5 993.5 c 128,-1,22
 565 1018 565 1018 548.5 1037.5 c 128,-1,23
 532 1057 532 1057 507.5 1068.5 c 128,-1,24
 483 1080 483 1080 452 1080 c 0,25,26
 420 1080 420 1080 393.5 1069.5 c 128,-1,27
 367 1059 367 1059 348.5 1041 c 128,-1,28
 330 1023 330 1023 320 999.5 c 128,-1,29
 310 976 310 976 310 950 c 256,30,31
 310 924 310 924 318.5 899 c 128,-1,32
 327 874 327 874 343.5 853.5 c 128,-1,33
 360 833 360 833 385 820.5 c 128,-1,34
 410 808 410 808 442 808 c 0,35,36
 475 808 475 808 501 819.5 c 128,-1,37
 527 831 527 831 545 850 c 128,-1,38
 563 869 563 869 572.5 893.5 c 128,-1,39
 582 918 582 918 582 944 c 0,20,21
EndSplineSet
Validated: 1
EndChar

StartChar: yen
Encoding: 165 165 137
Width: 1047
Flags: W
LayerCount: 2
Fore
SplineSet
668 462 m 1,0,-1
 674 272 l 1,1,-1
 302 272 l 1,2,-1
 306 468 l 1,3,-1
 168 472 l 1,4,-1
 170 552 l 1,5,-1
 308 550 l 1,6,-1
 310 608 l 1,7,-1
 168 612 l 1,8,-1
 164 672 l 1,9,-1
 270 676 l 1,10,-1
 44 1054 l 1,11,-1
 414 1092 l 1,12,-1
 530 834 l 1,13,-1
 656 1092 l 1,14,-1
 1006 1072 l 1,15,-1
 728 698 l 1,16,-1
 810 702 l 1,17,-1
 814 600 l 1,18,-1
 664 602 l 1,19,-1
 666 548 l 1,20,-1
 810 548 l 1,21,-1
 814 460 l 1,22,-1
 668 462 l 1,0,-1
EndSplineSet
Validated: 1
EndChar

StartChar: sterling
Encoding: 163 163 138
Width: 866
Flags: W
LayerCount: 2
Fore
SplineSet
683 746 m 1,0,-1
 687 658 l 1,1,-1
 513 660 l 1,2,-1
 503 578 l 1,3,-1
 797 578 l 1,4,-1
 769 312 l 1,5,-1
 157 272 l 1,6,-1
 169 668 l 1,7,-1
 41 670 l 1,8,-1
 43 750 l 1,9,-1
 171 748 l 1,10,11
 178 818 178 818 201 887 c 128,-1,12
 224 956 224 956 270 1011.5 c 128,-1,13
 316 1067 316 1067 387 1101.5 c 128,-1,14
 458 1136 458 1136 561 1136 c 0,15,16
 612 1136 612 1136 665.5 1130 c 128,-1,17
 719 1124 719 1124 769 1104 c 1,18,-1
 741 838 l 1,19,20
 720 843 720 843 699 845.5 c 128,-1,21
 678 848 678 848 655 846 c 0,22,23
 635 845 635 845 613 837.5 c 128,-1,24
 591 830 591 830 571.5 816.5 c 128,-1,25
 552 803 552 803 537.5 784.5 c 128,-1,26
 523 766 523 766 519 744 c 1,27,-1
 683 746 l 1,0,-1
EndSplineSet
Validated: 1
EndChar

StartChar: Thorn
Encoding: 222 222 139
Width: 1226
Flags: W
LayerCount: 2
Fore
SplineSet
58 1430 m 1,0,-1
 582 1464 l 1,1,-1
 570 1206 l 1,2,-1
 588 1206 l 2,3,4
 665 1206 665 1206 742 1193.5 c 128,-1,5
 819 1181 819 1181 889.5 1154 c 128,-1,6
 960 1127 960 1127 1020.5 1086.5 c 128,-1,7
 1081 1046 1081 1046 1125 990 c 128,-1,8
 1169 934 1169 934 1194.5 862 c 128,-1,9
 1220 790 1220 790 1220 702 c 0,10,11
 1220 605 1220 605 1191 530 c 128,-1,12
 1162 455 1162 455 1111.5 398.5 c 128,-1,13
 1061 342 1061 342 993 303.5 c 128,-1,14
 925 265 925 265 847.5 240.5 c 128,-1,15
 770 216 770 216 687 205 c 128,-1,16
 604 194 604 194 524 192 c 1,17,-1
 524 -14 l 1,18,-1
 58 -14 l 1,19,-1
 58 1430 l 1,0,-1
776 668 m 0,20,21
 776 733 776 733 736.5 769.5 c 128,-1,22
 697 806 697 806 634 806 c 0,23,24
 613 806 613 806 590.5 802.5 c 128,-1,25
 568 799 568 799 548 794 c 1,26,-1
 536 502 l 1,27,28
 550 500 550 500 563 500 c 128,-1,29
 576 500 576 500 590 500 c 0,30,31
 626 500 626 500 659.5 512 c 128,-1,32
 693 524 693 524 719 546.5 c 128,-1,33
 745 569 745 569 760.5 599.5 c 128,-1,34
 776 630 776 630 776 668 c 0,20,21
EndSplineSet
Validated: 1
EndChar

StartChar: thorn
Encoding: 254 254 140
Width: 1226
Flags: W
LayerCount: 2
Fore
SplineSet
58 1430 m 1,0,-1
 582 1464 l 1,1,-1
 570 1206 l 1,2,-1
 588 1206 l 2,3,4
 665 1206 665 1206 742 1193.5 c 128,-1,5
 819 1181 819 1181 889.5 1154 c 128,-1,6
 960 1127 960 1127 1020.5 1086.5 c 128,-1,7
 1081 1046 1081 1046 1125 990 c 128,-1,8
 1169 934 1169 934 1194.5 862 c 128,-1,9
 1220 790 1220 790 1220 702 c 0,10,11
 1220 605 1220 605 1191 530 c 128,-1,12
 1162 455 1162 455 1111.5 398.5 c 128,-1,13
 1061 342 1061 342 993 303.5 c 128,-1,14
 925 265 925 265 847.5 240.5 c 128,-1,15
 770 216 770 216 687 205 c 128,-1,16
 604 194 604 194 524 192 c 1,17,-1
 524 -14 l 1,18,-1
 58 -14 l 1,19,-1
 58 1430 l 1,0,-1
776 668 m 0,20,21
 776 733 776 733 736.5 769.5 c 128,-1,22
 697 806 697 806 634 806 c 0,23,24
 613 806 613 806 590.5 802.5 c 128,-1,25
 568 799 568 799 548 794 c 1,26,-1
 536 502 l 1,27,28
 550 500 550 500 563 500 c 128,-1,29
 576 500 576 500 590 500 c 0,30,31
 626 500 626 500 659.5 512 c 128,-1,32
 693 524 693 524 719 546.5 c 128,-1,33
 745 569 745 569 760.5 599.5 c 128,-1,34
 776 630 776 630 776 668 c 0,20,21
EndSplineSet
Validated: 1
EndChar

StartChar: Eth
Encoding: 208 208 141
Width: 1262
Flags: W
LayerCount: 2
Fore
SplineSet
127 776 m 1,0,-1
 141 1360 l 1,1,2
 251 1395 251 1395 367.5 1409.5 c 128,-1,3
 484 1424 484 1424 599 1424 c 0,4,5
 742 1424 742 1424 862 1381 c 128,-1,6
 982 1338 982 1338 1069 1257 c 128,-1,7
 1156 1176 1156 1176 1204.5 1059 c 128,-1,8
 1253 942 1253 942 1253 794 c 0,9,10
 1253 654 1253 654 1217 541.5 c 128,-1,11
 1181 429 1181 429 1116.5 341.5 c 128,-1,12
 1052 254 1052 254 963 191 c 128,-1,13
 874 128 874 128 768 87.5 c 128,-1,14
 662 47 662 47 542 27.5 c 128,-1,15
 422 8 422 8 297 8 c 0,16,17
 250 8 250 8 205 10.5 c 128,-1,18
 160 13 160 13 113 18 c 1,19,-1
 125 604 l 1,20,-1
 -25 598 l 1,21,-1
 -29 780 l 1,22,-1
 127 776 l 1,0,-1
843 730 m 1,23,24
 844 784 844 784 831.5 834 c 128,-1,25
 819 884 819 884 790.5 922.5 c 128,-1,26
 762 961 762 961 718 984.5 c 128,-1,27
 674 1008 674 1008 613 1010 c 1,28,-1
 597 770 l 1,29,-1
 697 768 l 1,30,-1
 701 628 l 1,31,-1
 591 622 l 1,32,-1
 573 390 l 1,33,34
 633 399 633 399 682 429.5 c 128,-1,35
 731 460 731 460 766.5 504.5 c 128,-1,36
 802 549 802 549 821.5 603.5 c 128,-1,37
 841 658 841 658 843 716 c 1,38,-1
 843 730 l 1,23,24
EndSplineSet
Validated: 33
EndChar

StartChar: eth
Encoding: 240 240 142
Width: 1262
Flags: W
LayerCount: 2
Fore
SplineSet
127 776 m 1,0,-1
 141 1360 l 1,1,2
 251 1395 251 1395 367.5 1409.5 c 128,-1,3
 484 1424 484 1424 599 1424 c 0,4,5
 742 1424 742 1424 862 1381 c 128,-1,6
 982 1338 982 1338 1069 1257 c 128,-1,7
 1156 1176 1156 1176 1204.5 1059 c 128,-1,8
 1253 942 1253 942 1253 794 c 0,9,10
 1253 654 1253 654 1217 541.5 c 128,-1,11
 1181 429 1181 429 1116.5 341.5 c 128,-1,12
 1052 254 1052 254 963 191 c 128,-1,13
 874 128 874 128 768 87.5 c 128,-1,14
 662 47 662 47 542 27.5 c 128,-1,15
 422 8 422 8 297 8 c 0,16,17
 250 8 250 8 205 10.5 c 128,-1,18
 160 13 160 13 113 18 c 1,19,-1
 125 604 l 1,20,-1
 -25 598 l 1,21,-1
 -29 780 l 1,22,-1
 127 776 l 1,0,-1
843 730 m 1,23,24
 844 784 844 784 831.5 834 c 128,-1,25
 819 884 819 884 790.5 922.5 c 128,-1,26
 762 961 762 961 718 984.5 c 128,-1,27
 674 1008 674 1008 613 1010 c 1,28,-1
 597 770 l 1,29,-1
 697 768 l 1,30,-1
 701 628 l 1,31,-1
 591 622 l 1,32,-1
 573 390 l 1,33,34
 633 399 633 399 682 429.5 c 128,-1,35
 731 460 731 460 766.5 504.5 c 128,-1,36
 802 549 802 549 821.5 603.5 c 128,-1,37
 841 658 841 658 843 716 c 1,38,-1
 843 730 l 1,23,24
EndSplineSet
Validated: 33
EndChar

StartChar: Lslash
Encoding: 321 321 143
Width: 932
Flags: W
LayerCount: 2
Fore
SplineSet
540 762 m 1,0,1
 537 714 537 714 534.5 666 c 128,-1,2
 532 618 532 618 530 570 c 1,3,4
 577 568 577 568 623 568 c 128,-1,5
 669 568 669 568 716 568 c 0,6,7
 772 568 772 568 826 569 c 128,-1,8
 880 570 880 570 936 570 c 1,9,-1
 894 126 l 1,10,-1
 52 60 l 1,11,12
 54 200 54 200 56.5 339 c 128,-1,13
 59 478 59 478 62 618 c 1,14,-1
 -22 592 l 1,15,-1
 -26 730 l 1,16,-1
 66 762 l 1,17,18
 69 934 69 934 73.5 1105 c 128,-1,19
 78 1276 78 1276 84 1448 c 1,20,-1
 604 1448 l 1,21,22
 590 1321 590 1321 577.5 1194.5 c 128,-1,23
 565 1068 565 1068 554 940 c 1,24,-1
 680 986 l 1,25,-1
 684 806 l 1,26,-1
 540 762 l 1,0,1
EndSplineSet
Validated: 1
EndChar

StartChar: lslash
Encoding: 322 322 144
Width: 932
Flags: W
LayerCount: 2
Fore
SplineSet
934 530 m 1,0,-1
 892 86 l 1,1,-1
 50 20 l 1,2,-1
 62 618 l 1,3,-1
 -24 592 l 1,4,-1
 -28 730 l 1,5,-1
 66 764 l 1,6,-1
 82 1448 l 1,7,-1
 602 1448 l 1,8,-1
 560 944 l 1,9,-1
 678 986 l 1,10,-1
 682 806 l 1,11,-1
 546 764 l 1,12,-1
 528 530 l 1,13,-1
 934 530 l 1,0,-1
EndSplineSet
Validated: 1
EndChar

StartChar: paragraph
Encoding: 182 182 145
Width: 1715
Flags: W
LayerCount: 2
Fore
SplineSet
1588 20 m 1,0,-1
 1154 18 l 1,1,-1
 1154 928 l 1,2,-1
 1080 932 l 1,3,4
 1083 698 1083 698 1082.5 469 c 128,-1,5
 1082 240 1082 240 1084 6 c 1,6,-1
 618 -2 l 1,7,-1
 618 402 l 1,8,9
 537 395 537 395 463.5 397.5 c 128,-1,10
 390 400 390 400 326 416 c 128,-1,11
 262 432 262 432 209.5 464 c 128,-1,12
 157 496 157 496 120 546.5 c 128,-1,13
 83 597 83 597 62.5 669 c 128,-1,14
 42 741 42 741 42 838 c 0,15,16
 42 971 42 971 86.5 1077 c 128,-1,17
 131 1183 131 1183 210.5 1257 c 128,-1,18
 290 1331 290 1331 398 1370.5 c 128,-1,19
 506 1410 506 1410 634 1410 c 0,20,21
 875 1410 875 1410 1061 1401.5 c 128,-1,22
 1247 1393 1247 1393 1377 1383 c 0,23,24
 1527 1371 1527 1371 1640 1356 c 1,25,-1
 1588 20 l 1,0,-1
EndSplineSet
Validated: 33
EndChar

StartChar: mu
Encoding: 181 181 146
AltUni2: 0003bc.ffffffff.0
Width: 1532
Flags: W
LayerCount: 2
Fore
SplineSet
44 -348 m 1,0,-1
 146 628 l 1,1,2
 154 717 154 717 168 813 c 128,-1,3
 182 909 182 909 201.5 1005 c 128,-1,4
 221 1101 221 1101 247 1194.5 c 128,-1,5
 273 1288 273 1288 306 1374 c 1,6,7
 427 1365 427 1365 549.5 1357.5 c 128,-1,8
 672 1350 672 1350 794 1348 c 1,9,10
 762 1262 762 1262 730 1175.5 c 128,-1,11
 698 1089 698 1089 669.5 1002 c 128,-1,12
 641 915 641 915 619 826.5 c 128,-1,13
 597 738 597 738 586 648 c 0,14,15
 584 629 584 629 581 591 c 128,-1,16
 578 553 578 553 582.5 514 c 128,-1,17
 587 475 587 475 601.5 446 c 128,-1,18
 616 417 616 417 648 416 c 0,19,20
 686 415 686 415 720 446.5 c 128,-1,21
 754 478 754 478 783 531.5 c 128,-1,22
 812 585 812 585 837 656 c 128,-1,23
 862 727 862 727 882.5 804.5 c 128,-1,24
 903 882 903 882 919.5 961 c 128,-1,25
 936 1040 936 1040 947.5 1109.5 c 128,-1,26
 959 1179 959 1179 967 1235 c 128,-1,27
 975 1291 975 1291 978 1322 c 1,28,29
 984 1358 984 1358 984 1398 c 1,30,31
 1042 1396 1042 1396 1106 1393.5 c 128,-1,32
 1170 1391 1170 1391 1235 1389 c 128,-1,33
 1300 1387 1300 1387 1363.5 1386.5 c 128,-1,34
 1427 1386 1427 1386 1486 1388 c 1,35,36
 1399 1043 1399 1043 1326 695 c 128,-1,37
 1253 347 1253 347 1184 2 c 1,38,-1
 728 -16 l 1,39,-1
 768 134 l 1,40,41
 745 111 745 111 715.5 95.5 c 128,-1,42
 686 80 686 80 654.5 70.5 c 128,-1,43
 623 61 623 61 591 57 c 128,-1,44
 559 53 559 53 530 54 c 1,45,-1
 526 54 l 1,46,-1
 480 -358 l 1,47,-1
 44 -348 l 1,0,-1
EndSplineSet
Validated: 33
EndChar

StartChar: partialdiff
Encoding: 8706 8706 147
Width: 1236
Flags: W
LayerCount: 2
Fore
SplineSet
41 510 m 0,0,1
 41 602 41 602 74.5 675 c 128,-1,2
 108 748 108 748 165.5 799 c 128,-1,3
 223 850 223 850 300.5 877 c 128,-1,4
 378 904 378 904 467 904 c 0,5,6
 545 904 545 904 620 882 c 128,-1,7
 695 860 695 860 761 822 c 1,8,9
 760 877 760 877 748.5 927 c 128,-1,10
 737 977 737 977 718.5 1021.5 c 128,-1,11
 700 1066 700 1066 676.5 1105 c 128,-1,12
 653 1144 653 1144 629 1177 c 0,13,14
 572 1253 572 1253 501 1314 c 1,15,-1
 867 1502 l 1,16,17
 893 1464 893 1464 925.5 1420.5 c 128,-1,18
 958 1377 958 1377 991 1323.5 c 128,-1,19
 1024 1270 1024 1270 1056 1205 c 128,-1,20
 1088 1140 1088 1140 1112.5 1059.5 c 128,-1,21
 1137 979 1137 979 1152 881.5 c 128,-1,22
 1167 784 1167 784 1167 666 c 0,23,24
 1167 578 1167 578 1153 492 c 128,-1,25
 1139 406 1139 406 1109.5 329 c 128,-1,26
 1080 252 1080 252 1035 186 c 128,-1,27
 990 120 990 120 927.5 72 c 128,-1,28
 865 24 865 24 785 -3 c 128,-1,29
 705 -30 705 -30 607 -30 c 0,30,31
 485 -30 485 -30 381.5 9 c 128,-1,32
 278 48 278 48 202.5 118.5 c 128,-1,33
 127 189 127 189 84 288.5 c 128,-1,34
 41 388 41 388 41 510 c 0,0,1
421 480 m 0,35,36
 421 450 421 450 434.5 425.5 c 128,-1,37
 448 401 448 401 469.5 384 c 128,-1,38
 491 367 491 367 518.5 357.5 c 128,-1,39
 546 348 546 348 575 348 c 0,40,41
 603 348 603 348 630 357.5 c 128,-1,42
 657 367 657 367 678.5 384 c 128,-1,43
 700 401 700 401 713.5 425.5 c 128,-1,44
 727 450 727 450 727 480 c 0,45,46
 727 511 727 511 713.5 535.5 c 128,-1,47
 700 560 700 560 678.5 577.5 c 128,-1,48
 657 595 657 595 630 604.5 c 128,-1,49
 603 614 603 614 575 614 c 0,50,51
 546 614 546 614 518.5 604.5 c 128,-1,52
 491 595 491 595 469.5 577.5 c 128,-1,53
 448 560 448 560 434.5 535.5 c 128,-1,54
 421 511 421 511 421 480 c 0,35,36
EndSplineSet
Validated: 1
EndChar

StartChar: exclamdown
Encoding: 161 161 148
Width: 570
Flags: W
LayerCount: 2
Fore
SplineSet
30 -432 m 1,0,-1
 112 620 l 1,1,-1
 482 620 l 1,2,-1
 520 -432 l 1,3,-1
 30 -432 l 1,0,-1
96 928 m 0,4,5
 96 971 96 971 113 1009.5 c 128,-1,6
 130 1048 130 1048 158.5 1076.5 c 128,-1,7
 187 1105 187 1105 225 1121.5 c 128,-1,8
 263 1138 263 1138 306 1138 c 256,9,10
 349 1138 349 1138 387.5 1121.5 c 128,-1,11
 426 1105 426 1105 454.5 1076.5 c 128,-1,12
 483 1048 483 1048 499.5 1009.5 c 128,-1,13
 516 971 516 971 516 928 c 0,14,15
 516 884 516 884 499.5 845.5 c 128,-1,16
 483 807 483 807 454.5 778.5 c 128,-1,17
 426 750 426 750 387.5 733 c 128,-1,18
 349 716 349 716 306 716 c 256,19,20
 263 716 263 716 225 733 c 128,-1,21
 187 750 187 750 158.5 778.5 c 128,-1,22
 130 807 130 807 113 845.5 c 128,-1,23
 96 884 96 884 96 928 c 0,4,5
EndSplineSet
Validated: 1
EndChar

StartChar: dotlessi
Encoding: 305 305 149
Width: 603
Flags: W
LayerCount: 2
Fore
SplineSet
573 1408 m 1,0,-1
 503 46 l 1,1,-1
 81 24 l 1,2,-1
 41 1380 l 1,3,-1
 573 1408 l 1,0,-1
EndSplineSet
Validated: 1
EndChar

StartChar: section
Encoding: 167 167 150
Width: 1170
Flags: W
LayerCount: 2
Fore
SplineSet
1112 352 m 0,0,1
 1112 215 1112 215 1064.5 115.5 c 128,-1,2
 1017 16 1017 16 934.5 -48.5 c 128,-1,3
 852 -113 852 -113 741.5 -143.5 c 128,-1,4
 631 -174 631 -174 504 -174 c 0,5,6
 455 -174 455 -174 396.5 -161 c 128,-1,7
 338 -148 338 -148 278 -128.5 c 128,-1,8
 218 -109 218 -109 162.5 -86.5 c 128,-1,9
 107 -64 107 -64 64 -44 c 1,10,-1
 108 348 l 1,11,12
 193 297 193 297 296.5 270.5 c 128,-1,13
 400 244 400 244 500 244 c 0,14,15
 519 244 519 244 546 245.5 c 128,-1,16
 573 247 573 247 597.5 254.5 c 128,-1,17
 622 262 622 262 639 277 c 128,-1,18
 656 292 656 292 656 320 c 0,19,20
 656 339 656 339 644 352.5 c 128,-1,21
 632 366 632 366 613 374.5 c 128,-1,22
 594 383 594 383 570 387.5 c 128,-1,23
 546 392 546 392 523 394 c 128,-1,24
 500 396 500 396 480 396 c 128,-1,25
 460 396 460 396 448 396 c 0,26,27
 362 396 362 396 291.5 423 c 128,-1,28
 221 450 221 450 170.5 499.5 c 128,-1,29
 120 549 120 549 92 619.5 c 128,-1,30
 64 690 64 690 64 776 c 0,31,32
 64 814 64 814 68.5 849.5 c 128,-1,33
 73 885 73 885 84 918 c 1,34,35
 73 950 73 950 68.5 984 c 128,-1,36
 64 1018 64 1018 64 1056 c 0,37,38
 64 1174 64 1174 111.5 1267.5 c 128,-1,39
 159 1361 159 1361 238.5 1426.5 c 128,-1,40
 318 1492 318 1492 421 1527 c 128,-1,41
 524 1562 524 1562 634 1562 c 0,42,43
 683 1562 683 1562 735 1558.5 c 128,-1,44
 787 1555 787 1555 838.5 1546 c 128,-1,45
 890 1537 890 1537 939 1523 c 128,-1,46
 988 1509 988 1509 1032 1488 c 1,47,-1
 994 1082 l 1,48,49
 926 1105 926 1105 851.5 1120.5 c 128,-1,50
 777 1136 777 1136 706 1136 c 0,51,52
 693 1136 693 1136 672.5 1135.5 c 128,-1,53
 652 1135 652 1135 629.5 1132.5 c 128,-1,54
 607 1130 607 1130 584 1125 c 128,-1,55
 561 1120 561 1120 543 1111.5 c 128,-1,56
 525 1103 525 1103 514 1089 c 128,-1,57
 503 1075 503 1075 504 1056 c 0,58,59
 505 1034 505 1034 520.5 1022 c 128,-1,60
 536 1010 536 1010 560.5 1004.5 c 128,-1,61
 585 999 585 999 614.5 999 c 128,-1,62
 644 999 644 999 673 1000.5 c 128,-1,63
 702 1002 702 1002 727.5 1003.5 c 128,-1,64
 753 1005 753 1005 768 1004 c 0,65,66
 848 999 848 999 912 970 c 128,-1,67
 976 941 976 941 1020.5 893 c 128,-1,68
 1065 845 1065 845 1088.5 778.5 c 128,-1,69
 1112 712 1112 712 1112 632 c 0,70,71
 1112 590 1112 590 1107 552.5 c 128,-1,72
 1102 515 1102 515 1094 480 c 1,73,74
 1112 423 1112 423 1112 352 c 0,0,1
488 704 m 1,75,76
 485 678 485 678 512.5 657 c 128,-1,77
 540 636 540 636 584 630 c 0,78,79
 605 627 605 627 624.5 629 c 128,-1,80
 644 631 644 631 659.5 637 c 128,-1,81
 675 643 675 643 684.5 653 c 128,-1,82
 694 663 694 663 696 676 c 0,83,84
 698 688 698 688 691.5 700 c 128,-1,85
 685 712 685 712 672 722 c 128,-1,86
 659 732 659 732 640.5 739.5 c 128,-1,87
 622 747 622 747 600 750 c 0,88,89
 556 756 556 756 524.5 743 c 128,-1,90
 493 730 493 730 488 704 c 1,75,76
EndSplineSet
Validated: 33
EndChar

StartChar: germandbls
Encoding: 223 223 151
Width: 2137
Flags: W
LayerCount: 2
Fore
SplineSet
1076 512 m 0,0,1
 1076 375 1076 375 1028.5 275.5 c 128,-1,2
 981 176 981 176 898.5 111.5 c 128,-1,3
 816 47 816 47 705.5 16.5 c 128,-1,4
 595 -14 595 -14 468 -14 c 0,5,6
 419 -14 419 -14 360.5 -1 c 128,-1,7
 302 12 302 12 242 31.5 c 128,-1,8
 182 51 182 51 126.5 73.5 c 128,-1,9
 71 96 71 96 28 116 c 1,10,-1
 72 508 l 1,11,12
 157 457 157 457 260.5 430.5 c 128,-1,13
 364 404 364 404 464 404 c 0,14,15
 483 404 483 404 510 405.5 c 128,-1,16
 537 407 537 407 561.5 414.5 c 128,-1,17
 586 422 586 422 603 437 c 128,-1,18
 620 452 620 452 620 480 c 0,19,20
 620 499 620 499 608 512.5 c 128,-1,21
 596 526 596 526 577 534.5 c 128,-1,22
 558 543 558 543 534 547.5 c 128,-1,23
 510 552 510 552 487 554 c 128,-1,24
 464 556 464 556 444 556 c 128,-1,25
 424 556 424 556 412 556 c 0,26,27
 326 556 326 556 255.5 583 c 128,-1,28
 185 610 185 610 134.5 659.5 c 128,-1,29
 84 709 84 709 56 779.5 c 128,-1,30
 28 850 28 850 28 936 c 0,31,32
 28 1054 28 1054 75.5 1147.5 c 128,-1,33
 123 1241 123 1241 202.5 1306.5 c 128,-1,34
 282 1372 282 1372 385 1407 c 128,-1,35
 488 1442 488 1442 598 1442 c 0,36,37
 647 1442 647 1442 699 1438.5 c 128,-1,38
 751 1435 751 1435 802.5 1426 c 128,-1,39
 854 1417 854 1417 903 1403 c 128,-1,40
 952 1389 952 1389 996 1368 c 1,41,-1
 958 962 l 1,42,43
 890 985 890 985 815.5 1000.5 c 128,-1,44
 741 1016 741 1016 670 1016 c 0,45,46
 657 1016 657 1016 636.5 1015.5 c 128,-1,47
 616 1015 616 1015 593.5 1012.5 c 128,-1,48
 571 1010 571 1010 548 1005 c 128,-1,49
 525 1000 525 1000 507 991.5 c 128,-1,50
 489 983 489 983 478 969 c 128,-1,51
 467 955 467 955 468 936 c 0,52,53
 469 914 469 914 484.5 902 c 128,-1,54
 500 890 500 890 524.5 884.5 c 128,-1,55
 549 879 549 879 578.5 879 c 128,-1,56
 608 879 608 879 637 880.5 c 128,-1,57
 666 882 666 882 691 883.5 c 128,-1,58
 716 885 716 885 732 884 c 0,59,60
 812 879 812 879 876 850 c 128,-1,61
 940 821 940 821 984.5 773 c 128,-1,62
 1029 725 1029 725 1052.5 658.5 c 128,-1,63
 1076 592 1076 592 1076 512 c 0,0,1
2124 512 m 0,64,65
 2124 375 2124 375 2076.5 275.5 c 128,-1,66
 2029 176 2029 176 1946.5 111.5 c 128,-1,67
 1864 47 1864 47 1753.5 16.5 c 128,-1,68
 1643 -14 1643 -14 1516 -14 c 0,69,70
 1467 -14 1467 -14 1408.5 -1 c 128,-1,71
 1350 12 1350 12 1290 31.5 c 128,-1,72
 1230 51 1230 51 1174.5 73.5 c 128,-1,73
 1119 96 1119 96 1076 116 c 1,74,-1
 1120 508 l 1,75,76
 1205 457 1205 457 1308.5 430.5 c 128,-1,77
 1412 404 1412 404 1512 404 c 0,78,79
 1531 404 1531 404 1558 405.5 c 128,-1,80
 1585 407 1585 407 1609.5 414.5 c 128,-1,81
 1634 422 1634 422 1651 437 c 128,-1,82
 1668 452 1668 452 1668 480 c 0,83,84
 1668 499 1668 499 1656 512.5 c 128,-1,85
 1644 526 1644 526 1625 534.5 c 128,-1,86
 1606 543 1606 543 1582 547.5 c 128,-1,87
 1558 552 1558 552 1535 554 c 128,-1,88
 1512 556 1512 556 1492 556 c 128,-1,89
 1472 556 1472 556 1460 556 c 0,90,91
 1374 556 1374 556 1303.5 583 c 128,-1,92
 1233 610 1233 610 1182.5 659.5 c 128,-1,93
 1132 709 1132 709 1104 779.5 c 128,-1,94
 1076 850 1076 850 1076 936 c 0,95,96
 1076 1054 1076 1054 1123.5 1147.5 c 128,-1,97
 1171 1241 1171 1241 1250.5 1306.5 c 128,-1,98
 1330 1372 1330 1372 1433 1407 c 128,-1,99
 1536 1442 1536 1442 1646 1442 c 0,100,101
 1695 1442 1695 1442 1747 1438.5 c 128,-1,102
 1799 1435 1799 1435 1850.5 1426 c 128,-1,103
 1902 1417 1902 1417 1951 1403 c 128,-1,104
 2000 1389 2000 1389 2044 1368 c 1,105,-1
 2006 962 l 1,106,107
 1938 985 1938 985 1863.5 1000.5 c 128,-1,108
 1789 1016 1789 1016 1718 1016 c 0,109,110
 1705 1016 1705 1016 1684.5 1015.5 c 128,-1,111
 1664 1015 1664 1015 1641.5 1012.5 c 128,-1,112
 1619 1010 1619 1010 1596 1005 c 128,-1,113
 1573 1000 1573 1000 1555 991.5 c 128,-1,114
 1537 983 1537 983 1526 969 c 128,-1,115
 1515 955 1515 955 1516 936 c 0,116,117
 1517 914 1517 914 1532.5 902 c 128,-1,118
 1548 890 1548 890 1572.5 884.5 c 128,-1,119
 1597 879 1597 879 1626.5 879 c 128,-1,120
 1656 879 1656 879 1685 880.5 c 128,-1,121
 1714 882 1714 882 1739 883.5 c 128,-1,122
 1764 885 1764 885 1780 884 c 0,123,124
 1860 879 1860 879 1924 850 c 128,-1,125
 1988 821 1988 821 2032.5 773 c 128,-1,126
 2077 725 2077 725 2100.5 658.5 c 128,-1,127
 2124 592 2124 592 2124 512 c 0,64,65
EndSplineSet
Validated: 1
EndChar

StartChar: registered
Encoding: 174 174 152
Width: 1167
Flags: W
LayerCount: 2
Fore
SplineSet
1106 738 m 0,0,1
 1106 626 1106 626 1067.5 526 c 128,-1,2
 1029 426 1029 426 960 351 c 128,-1,3
 891 276 891 276 795 232 c 128,-1,4
 699 188 699 188 584 188 c 0,5,6
 473 188 473 188 377 229.5 c 128,-1,7
 281 271 281 271 210.5 342.5 c 128,-1,8
 140 414 140 414 100 510 c 128,-1,9
 60 606 60 606 60 716 c 0,10,11
 60 824 60 824 98.5 923.5 c 128,-1,12
 137 1023 137 1023 205.5 1099 c 128,-1,13
 274 1175 274 1175 368 1220.5 c 128,-1,14
 462 1266 462 1266 574 1266 c 0,15,16
 693 1266 693 1266 791 1229 c 128,-1,17
 889 1192 889 1192 959 1123 c 128,-1,18
 1029 1054 1029 1054 1067.5 956.5 c 128,-1,19
 1106 859 1106 859 1106 738 c 0,0,1
990 736 m 0,20,21
 990 830 990 830 960.5 906 c 128,-1,22
 931 982 931 982 876.5 1036 c 128,-1,23
 822 1090 822 1090 745 1119 c 128,-1,24
 668 1148 668 1148 574 1148 c 0,25,26
 488 1148 488 1148 414.5 1112.5 c 128,-1,27
 341 1077 341 1077 287.5 1018 c 128,-1,28
 234 959 234 959 204 881.5 c 128,-1,29
 174 804 174 804 174 720 c 0,30,31
 174 622 174 622 213 540 c 128,-1,32
 252 458 252 458 320 402 c 1,33,34
 322 502 322 502 324.5 601.5 c 128,-1,35
 327 701 327 701 330 802 c 1,36,37
 330 916 330 916 336 1030 c 1,38,39
 405 1056 405 1056 472.5 1064 c 128,-1,40
 540 1072 540 1072 614 1072 c 0,41,42
 671 1072 671 1072 724.5 1056.5 c 128,-1,43
 778 1041 778 1041 819 1009.5 c 128,-1,44
 860 978 860 978 885 931 c 128,-1,45
 910 884 910 884 910 822 c 0,46,47
 910 744 910 744 882 693 c 128,-1,48
 854 642 854 642 788 600 c 1,49,-1
 878 438 l 1,50,51
 931 497 931 497 960.5 573.5 c 128,-1,52
 990 650 990 650 990 736 c 0,20,21
404 348 m 1,53,54
 487 308 487 308 584 308 c 0,55,56
 643 308 643 308 695 322.5 c 128,-1,57
 747 337 747 337 792 364 c 1,58,-1
 682 344 l 1,59,-1
 606 558 l 1,60,-1
 544 556 l 1,61,-1
 534 348 l 1,62,-1
 404 348 l 1,53,54
686 806 m 0,63,64
 686 848 686 848 663.5 875 c 128,-1,65
 641 902 641 902 596 902 c 0,66,67
 576 902 576 902 558 896 c 1,68,-1
 550 710 l 1,69,-1
 562 710 l 2,70,71
 584 710 584 710 606 715.5 c 128,-1,72
 628 721 628 721 646 732.5 c 128,-1,73
 664 744 664 744 675 762 c 128,-1,74
 686 780 686 780 686 806 c 0,63,64
EndSplineSet
Validated: 1
EndChar

StartChar: copyright
Encoding: 169 169 153
Width: 1176
Flags: W
LayerCount: 2
Fore
SplineSet
1115 704 m 0,0,1
 1115 591 1115 591 1076 490 c 128,-1,2
 1037 389 1037 389 967 313 c 128,-1,3
 897 237 897 237 800 192.5 c 128,-1,4
 703 148 703 148 587 148 c 0,5,6
 475 148 475 148 378.5 190 c 128,-1,7
 282 232 282 232 211 304 c 128,-1,8
 140 376 140 376 99.5 473.5 c 128,-1,9
 59 571 59 571 59 682 c 0,10,11
 59 754 59 754 76.5 823.5 c 128,-1,12
 94 893 94 893 127 954.5 c 128,-1,13
 160 1016 160 1016 206.5 1067.5 c 128,-1,14
 253 1119 253 1119 310.5 1156.5 c 128,-1,15
 368 1194 368 1194 435.5 1215 c 128,-1,16
 503 1236 503 1236 577 1236 c 0,17,18
 698 1236 698 1236 797.5 1198.5 c 128,-1,19
 897 1161 897 1161 967.5 1091.5 c 128,-1,20
 1038 1022 1038 1022 1076.5 923.5 c 128,-1,21
 1115 825 1115 825 1115 704 c 0,0,1
999 702 m 0,22,23
 999 796 999 796 969 873 c 128,-1,24
 939 950 939 950 884 1004.5 c 128,-1,25
 829 1059 829 1059 751.5 1088.5 c 128,-1,26
 674 1118 674 1118 579 1118 c 0,27,28
 492 1118 492 1118 418 1082.5 c 128,-1,29
 344 1047 344 1047 290 987 c 128,-1,30
 236 927 236 927 205.5 849 c 128,-1,31
 175 771 175 771 175 686 c 0,32,33
 175 599 175 599 206.5 523 c 128,-1,34
 238 447 238 447 293.5 391 c 128,-1,35
 349 335 349 335 424.5 302.5 c 128,-1,36
 500 270 500 270 587 270 c 0,37,38
 678 270 678 270 753.5 304.5 c 128,-1,39
 829 339 829 339 883.5 398 c 128,-1,40
 938 457 938 457 968.5 535.5 c 128,-1,41
 999 614 999 614 999 702 c 0,22,23
761 812 m 1,42,43
 734 818 734 818 705 818 c 0,44,45
 670 818 670 818 637.5 809 c 128,-1,46
 605 800 605 800 580 782 c 128,-1,47
 555 764 555 764 540 735.5 c 128,-1,48
 525 707 525 707 525 668 c 0,49,50
 525 612 525 612 557 585 c 128,-1,51
 589 558 589 558 643 558 c 0,52,53
 679 558 679 558 719 572 c 128,-1,54
 759 586 759 586 791 604 c 1,55,-1
 783 370 l 1,56,57
 744 350 744 350 694.5 338 c 128,-1,58
 645 326 645 326 601 326 c 0,59,60
 530 326 530 326 472 352.5 c 128,-1,61
 414 379 414 379 372.5 424.5 c 128,-1,62
 331 470 331 470 308 531 c 128,-1,63
 285 592 285 592 285 660 c 0,64,65
 285 742 285 742 308.5 813 c 128,-1,66
 332 884 332 884 377 936.5 c 128,-1,67
 422 989 422 989 488.5 1018.5 c 128,-1,68
 555 1048 555 1048 641 1048 c 0,69,70
 676 1048 676 1048 711.5 1042.5 c 128,-1,71
 747 1037 747 1037 779 1022 c 1,72,-1
 761 812 l 1,42,43
EndSplineSet
Validated: 1
EndChar

StartChar: trademark
Encoding: 8482 8482 154
Width: 1353
Flags: W
LayerCount: 2
Fore
SplineSet
562 1371 m 1,0,-1
 557 1163 l 1,1,-1
 411 1157 l 1,2,-1
 374 692 l 1,3,-1
 167 682 l 1,4,-1
 168 1146 l 1,5,-1
 22 1138 l 1,6,-1
 28 1370 l 1,7,-1
 562 1371 l 1,0,-1
1339 1385 m 1,8,-1
 1294 665 l 1,9,-1
 1071 655 l 1,10,-1
 1073 1035 l 1,11,-1
 972 729 l 1,12,-1
 886 729 l 1,13,-1
 809 1002 l 1,14,-1
 807 685 l 1,15,-1
 581 678 l 1,16,-1
 591 1355 l 1,17,-1
 843 1365 l 1,18,-1
 942 1040 l 1,19,-1
 1076 1385 l 1,20,-1
 1339 1385 l 1,8,-1
EndSplineSet
Validated: 1
EndChar

StartChar: guillemotleft
Encoding: 171 171 155
Width: 1359
Flags: W
LayerCount: 2
Fore
SplineSet
496 232 m 1,0,-1
 38 540 l 1,1,-1
 24 908 l 1,2,-1
 458 1224 l 1,3,-1
 618 922 l 1,4,-1
 350 738 l 1,5,-1
 656 560 l 1,6,-1
 496 232 l 1,0,-1
1176 232 m 1,7,-1
 718 540 l 1,8,-1
 704 908 l 1,9,-1
 1138 1224 l 1,10,-1
 1298 922 l 1,11,-1
 1030 738 l 1,12,-1
 1336 560 l 1,13,-1
 1176 232 l 1,7,-1
EndSplineSet
Validated: 1
EndChar

StartChar: guillemotright
Encoding: 187 187 156
Width: 1365
Flags: W
LayerCount: 2
Fore
SplineSet
222 232 m 1,0,-1
 58 540 l 1,1,-1
 332 722 l 1,2,-1
 24 898 l 1,3,-1
 182 1224 l 1,4,-1
 644 918 l 1,5,-1
 656 550 l 1,6,-1
 222 232 l 1,0,-1
906 232 m 1,7,-1
 742 540 l 1,8,-1
 1016 722 l 1,9,-1
 708 898 l 1,10,-1
 866 1224 l 1,11,-1
 1328 918 l 1,12,-1
 1340 550 l 1,13,-1
 906 232 l 1,7,-1
EndSplineSet
Validated: 1
EndChar

StartChar: questiondown
Encoding: 191 191 157
Width: 1152
Flags: W
LayerCount: 2
Fore
SplineSet
506 654 m 1,0,-1
 844 654 l 1,1,2
 850 547 850 547 831.5 476 c 128,-1,3
 813 405 813 405 780.5 357.5 c 128,-1,4
 748 310 748 310 707.5 280.5 c 128,-1,5
 667 251 667 251 628.5 229.5 c 128,-1,6
 590 208 590 208 560 187.5 c 128,-1,7
 530 167 530 167 520 138 c 0,8,9
 513 120 513 120 516 96.5 c 128,-1,10
 519 73 519 73 536.5 52 c 128,-1,11
 554 31 554 31 588 16.5 c 128,-1,12
 622 2 622 2 678 2 c 0,13,14
 714 2 714 2 763.5 8.5 c 128,-1,15
 813 15 813 15 867 28.5 c 128,-1,16
 921 42 921 42 973.5 61 c 128,-1,17
 1026 80 1026 80 1068 106 c 1,18,-1
 1112 -286 l 1,19,20
 1075 -309 1075 -309 1028.5 -332 c 128,-1,21
 982 -355 982 -355 926 -373.5 c 128,-1,22
 870 -392 870 -392 804 -404 c 128,-1,23
 738 -416 738 -416 662 -416 c 0,24,25
 539 -416 539 -416 429.5 -382 c 128,-1,26
 320 -348 320 -348 238 -282 c 128,-1,27
 156 -216 156 -216 108 -119.5 c 128,-1,28
 60 -23 60 -23 60 102 c 0,29,30
 60 197 60 197 87 254.5 c 128,-1,31
 114 312 114 312 156 349 c 128,-1,32
 198 386 198 386 250 411 c 128,-1,33
 302 436 302 436 351.5 465.5 c 128,-1,34
 401 495 401 495 442.5 538 c 128,-1,35
 484 581 484 581 506 654 c 1,0,-1
456 918 m 0,36,37
 456 961 456 961 473 999.5 c 128,-1,38
 490 1038 490 1038 518.5 1066.5 c 128,-1,39
 547 1095 547 1095 585 1111.5 c 128,-1,40
 623 1128 623 1128 666 1128 c 256,41,42
 709 1128 709 1128 747.5 1111.5 c 128,-1,43
 786 1095 786 1095 814.5 1066.5 c 128,-1,44
 843 1038 843 1038 859.5 999.5 c 128,-1,45
 876 961 876 961 876 918 c 0,46,47
 876 874 876 874 859.5 835.5 c 128,-1,48
 843 797 843 797 814.5 768.5 c 128,-1,49
 786 740 786 740 747.5 723 c 128,-1,50
 709 706 709 706 666 706 c 256,51,52
 623 706 623 706 585 723 c 128,-1,53
 547 740 547 740 518.5 768.5 c 128,-1,54
 490 797 490 797 473 835.5 c 128,-1,55
 456 874 456 874 456 918 c 0,36,37
EndSplineSet
Validated: 33
EndChar

StartChar: fraction
Encoding: 8260 8260 158
Width: 594
Flags: W
LayerCount: 2
Fore
SplineSet
622 1244 m 1,0,1
 494 965 494 965 385 676.5 c 128,-1,2
 276 388 276 388 182 94 c 1,3,-1
 -26 170 l 1,4,5
 32 315 32 315 90 459.5 c 128,-1,6
 148 604 148 604 209.5 747 c 128,-1,7
 271 890 271 890 337 1030.5 c 128,-1,8
 403 1171 403 1171 478 1308 c 1,9,-1
 622 1244 l 1,0,1
EndSplineSet
Validated: 1
EndChar

StartChar: at
Encoding: 64 64 161
Width: 1361
Flags: W
LayerCount: 2
Fore
SplineSet
1316 768 m 0,0,1
 1316 576 1316 576 1236.5 477 c 128,-1,2
 1157 378 1157 378 1002 376 c 1,3,4
 943 374 943 374 899 383.5 c 128,-1,5
 855 393 855 393 825 407.5 c 128,-1,6
 795 422 795 422 778.5 439 c 128,-1,7
 762 456 762 456 758 470 c 1,8,9
 737 437 737 437 703.5 425.5 c 128,-1,10
 670 414 670 414 638 414 c 0,11,12
 588 414 588 414 543.5 428 c 128,-1,13
 499 442 499 442 466 471.5 c 128,-1,14
 433 501 433 501 413.5 546.5 c 128,-1,15
 394 592 394 592 394 654 c 0,16,17
 394 711 394 711 412.5 753.5 c 128,-1,18
 431 796 431 796 464 824.5 c 128,-1,19
 497 853 497 853 541.5 867.5 c 128,-1,20
 586 882 586 882 638 882 c 0,21,22
 677 882 677 882 714 862.5 c 128,-1,23
 751 843 751 843 774 796 c 1,24,-1
 774 898 l 1,25,-1
 986 900 l 1,26,-1
 980 538 l 1,27,-1
 1006 542 l 1,28,29
 1021 546 1021 546 1033 564 c 0,30,31
 1043 579 1043 579 1051.5 611 c 128,-1,32
 1060 643 1060 643 1060 700 c 0,33,34
 1060 789 1060 789 1034 852 c 128,-1,35
 1008 915 1008 915 959 955 c 128,-1,36
 910 995 910 995 839 1013.5 c 128,-1,37
 768 1032 768 1032 678 1032 c 0,38,39
 580 1031 580 1031 503 994 c 0,40,41
 470 978 470 978 438.5 953 c 128,-1,42
 407 928 407 928 382.5 890.5 c 128,-1,43
 358 853 358 853 343 801 c 128,-1,44
 328 749 328 749 328 680 c 0,45,46
 328 595 328 595 346.5 535 c 128,-1,47
 365 475 365 475 395 434.5 c 128,-1,48
 425 394 425 394 463.5 370.5 c 128,-1,49
 502 347 502 347 543 335 c 0,50,51
 637 308 637 308 758 330 c 1,52,-1
 758 140 l 1,53,54
 614 110 614 110 488 133 c 128,-1,55
 362 156 362 156 268 226 c 128,-1,56
 174 296 174 296 120 409 c 128,-1,57
 66 522 66 522 66 672 c 0,58,59
 66 819 66 819 105 923 c 128,-1,60
 144 1027 144 1027 205.5 1097 c 128,-1,61
 267 1167 267 1167 342.5 1207.5 c 128,-1,62
 418 1248 418 1248 492 1269 c 128,-1,63
 566 1290 566 1290 629.5 1296 c 128,-1,64
 693 1302 693 1302 730 1302 c 0,65,66
 865 1302 865 1302 973.5 1260 c 128,-1,67
 1082 1218 1082 1218 1158 1146 c 128,-1,68
 1234 1074 1234 1074 1275 976.5 c 128,-1,69
 1316 879 1316 879 1316 768 c 0,0,1
614 662 m 0,70,71
 614 624 614 624 629.5 599 c 128,-1,72
 645 574 645 574 678 574 c 256,73,74
 711 574 711 574 732.5 599 c 128,-1,75
 754 624 754 624 754 662 c 0,76,77
 754 697 754 697 732.5 713.5 c 128,-1,78
 711 730 711 730 678 730 c 0,79,80
 614 730 614 730 614 662 c 0,70,71
EndSplineSet
Validated: 33
EndChar

StartChar: percent
Encoding: 37 37 162
Width: 1484
Flags: W
LayerCount: 2
Fore
SplineSet
1443 426 m 0,0,1
 1443 373 1443 373 1421 321.5 c 128,-1,2
 1399 270 1399 270 1357 229.5 c 128,-1,3
 1315 189 1315 189 1255.5 163.5 c 128,-1,4
 1196 138 1196 138 1121 138 c 0,5,6
 1047 138 1047 138 987.5 163.5 c 128,-1,7
 928 189 928 189 886.5 229.5 c 128,-1,8
 845 270 845 270 823 321.5 c 128,-1,9
 801 373 801 373 801 426 c 0,10,11
 801 478 801 478 823 530 c 128,-1,12
 845 582 845 582 886.5 622.5 c 128,-1,13
 928 663 928 663 987.5 688.5 c 128,-1,14
 1047 714 1047 714 1121 714 c 0,15,16
 1196 714 1196 714 1255.5 688.5 c 128,-1,17
 1315 663 1315 663 1357 622.5 c 128,-1,18
 1399 582 1399 582 1421 530 c 128,-1,19
 1443 478 1443 478 1443 426 c 0,0,1
1217 428 m 256,20,21
 1217 444 1217 444 1211.5 462.5 c 128,-1,22
 1206 481 1206 481 1194 497.5 c 128,-1,23
 1182 514 1182 514 1163.5 525 c 128,-1,24
 1145 536 1145 536 1119 536 c 256,25,26
 1093 536 1093 536 1074 525 c 128,-1,27
 1055 514 1055 514 1043 497.5 c 128,-1,28
 1031 481 1031 481 1025 462.5 c 128,-1,29
 1019 444 1019 444 1019 428 c 256,30,31
 1019 412 1019 412 1025 393.5 c 128,-1,32
 1031 375 1031 375 1043 358.5 c 128,-1,33
 1055 342 1055 342 1074 331 c 128,-1,34
 1093 320 1093 320 1119 320 c 256,35,36
 1145 320 1145 320 1163.5 331 c 128,-1,37
 1182 342 1182 342 1194 358.5 c 128,-1,38
 1206 375 1206 375 1211.5 393.5 c 128,-1,39
 1217 412 1217 412 1217 428 c 256,20,21
683 922 m 0,40,41
 683 869 683 869 661 817.5 c 128,-1,42
 639 766 639 766 597 725.5 c 128,-1,43
 555 685 555 685 495.5 659.5 c 128,-1,44
 436 634 436 634 361 634 c 0,45,46
 287 634 287 634 227.5 659.5 c 128,-1,47
 168 685 168 685 126.5 725.5 c 128,-1,48
 85 766 85 766 63 817.5 c 128,-1,49
 41 869 41 869 41 922 c 0,50,51
 41 974 41 974 63 1026 c 128,-1,52
 85 1078 85 1078 126.5 1118.5 c 128,-1,53
 168 1159 168 1159 227.5 1184.5 c 128,-1,54
 287 1210 287 1210 361 1210 c 0,55,56
 436 1210 436 1210 495.5 1184.5 c 128,-1,57
 555 1159 555 1159 597 1118.5 c 128,-1,58
 639 1078 639 1078 661 1026 c 128,-1,59
 683 974 683 974 683 922 c 0,40,41
457 924 m 256,60,61
 457 940 457 940 451.5 958.5 c 128,-1,62
 446 977 446 977 434 993.5 c 128,-1,63
 422 1010 422 1010 403.5 1021 c 128,-1,64
 385 1032 385 1032 359 1032 c 256,65,66
 333 1032 333 1032 314 1021 c 128,-1,67
 295 1010 295 1010 283 993.5 c 128,-1,68
 271 977 271 977 265 958.5 c 128,-1,69
 259 940 259 940 259 924 c 256,70,71
 259 908 259 908 265 889.5 c 128,-1,72
 271 871 271 871 283 854.5 c 128,-1,73
 295 838 295 838 314 827 c 128,-1,74
 333 816 333 816 359 816 c 256,75,76
 385 816 385 816 403.5 827 c 128,-1,77
 422 838 422 838 434 854.5 c 128,-1,78
 446 871 446 871 451.5 889.5 c 128,-1,79
 457 908 457 908 457 924 c 256,60,61
1083 1244 m 1,80,81
 955 965 955 965 845.5 676.5 c 128,-1,82
 736 388 736 388 641 94 c 1,83,-1
 433 170 l 1,84,85
 492 315 492 315 550.5 459.5 c 128,-1,86
 609 604 609 604 670.5 747 c 128,-1,87
 732 890 732 890 798 1030.5 c 128,-1,88
 864 1171 864 1171 939 1308 c 1,89,-1
 1083 1244 l 1,80,81
EndSplineSet
Validated: 1
Ligature2: "Ligature Substitution lookup 7 subtable" zero fraction zero
Ligature2: "Ligature Substitution lookup 7 subtable" zero slash zero
EndChar

StartChar: ampersand
Encoding: 38 38 163
Width: 1290
Flags: W
LayerCount: 2
Fore
SplineSet
1086 98 m 1,0,1
 1051 125 1051 125 1016 150 c 128,-1,2
 981 175 981 175 946 202 c 1,3,4
 897 163 897 163 835.5 127 c 128,-1,5
 774 91 774 91 704 65 c 128,-1,6
 634 39 634 39 559 26 c 128,-1,7
 484 13 484 13 408 20 c 1,8,9
 321 26 321 26 245.5 54.5 c 128,-1,10
 170 83 170 83 116 128 c 128,-1,11
 62 173 62 173 34.5 231 c 128,-1,12
 7 289 7 289 16 354 c 0,13,14
 24 409 24 409 52.5 460.5 c 128,-1,15
 81 512 81 512 122 559 c 128,-1,16
 163 606 163 606 214 648.5 c 128,-1,17
 265 691 265 691 318 728 c 1,18,19
 280 765 280 765 246.5 806.5 c 128,-1,20
 213 848 213 848 189 892.5 c 128,-1,21
 165 937 165 937 153.5 983.5 c 128,-1,22
 142 1030 142 1030 150 1078 c 0,23,24
 160 1142 160 1142 203 1199 c 128,-1,25
 246 1256 246 1256 312 1297 c 128,-1,26
 378 1338 378 1338 460.5 1359.5 c 128,-1,27
 543 1381 543 1381 632 1374 c 0,28,29
 714 1368 714 1368 784.5 1335 c 128,-1,30
 855 1302 855 1302 905 1253 c 128,-1,31
 955 1204 955 1204 980 1144.5 c 128,-1,32
 1005 1085 1005 1085 996 1026 c 0,33,34
 989 978 989 978 965 936 c 128,-1,35
 941 894 941 894 906.5 856.5 c 128,-1,36
 872 819 872 819 829.5 784.5 c 128,-1,37
 787 750 787 750 744 716 c 1,38,39
 786 684 786 684 824.5 654.5 c 128,-1,40
 863 625 863 625 904 596 c 1,41,42
 922 622 922 622 939 650 c 128,-1,43
 956 678 956 678 970 708 c 1,44,-1
 1268 636 l 1,45,46
 1248 580 1248 580 1215.5 523.5 c 128,-1,47
 1183 467 1183 467 1144 414 c 1,48,49
 1188 382 1188 382 1230 353 c 128,-1,50
 1272 324 1272 324 1316 292 c 1,51,-1
 1086 98 l 1,0,1
622 1046 m 0,52,53
 625 1081 625 1081 609.5 1103 c 128,-1,54
 594 1125 594 1125 562 1128 c 1,55,56
 529 1133 529 1133 505 1114.5 c 128,-1,57
 481 1096 481 1096 478 1060 c 0,58,59
 476 1037 476 1037 481 1013.5 c 128,-1,60
 486 990 486 990 495.5 967.5 c 128,-1,61
 505 945 505 945 517 924.5 c 128,-1,62
 529 904 529 904 540 888 c 1,63,64
 553 903 553 903 566.5 922 c 128,-1,65
 580 941 580 941 591.5 962 c 128,-1,66
 603 983 603 983 611.5 1004.5 c 128,-1,67
 620 1026 620 1026 622 1046 c 0,52,53
654 390 m 1,68,69
 624 426 624 426 592 464 c 128,-1,70
 560 502 560 502 530 538 c 1,71,72
 517 524 517 524 501 504 c 128,-1,73
 485 484 485 484 470.5 461.5 c 128,-1,74
 456 439 456 439 445 415.5 c 128,-1,75
 434 392 434 392 432 370 c 0,76,77
 430 341 430 341 448.5 317 c 128,-1,78
 467 293 467 293 496 290 c 0,79,80
 517 287 517 287 539.5 296.5 c 128,-1,81
 562 306 562 306 583 322 c 128,-1,82
 604 338 604 338 622.5 356.5 c 128,-1,83
 641 375 641 375 654 390 c 1,68,69
EndSplineSet
Validated: 33
EndChar

StartChar: question
Encoding: 63 63 164
Width: 1135
Flags: W
LayerCount: 2
Fore
SplineSet
647 390 m 1,0,-1
 309 390 l 1,1,2
 302 496 302 496 321 567.5 c 128,-1,3
 340 639 340 639 372.5 686.5 c 128,-1,4
 405 734 405 734 445.5 763.5 c 128,-1,5
 486 793 486 793 524.5 814.5 c 128,-1,6
 563 836 563 836 592.5 856 c 128,-1,7
 622 876 622 876 633 906 c 0,8,9
 640 924 640 924 637 947.5 c 128,-1,10
 634 971 634 971 616.5 992 c 128,-1,11
 599 1013 599 1013 564.5 1027.5 c 128,-1,12
 530 1042 530 1042 475 1042 c 0,13,14
 439 1042 439 1042 389.5 1035.5 c 128,-1,15
 340 1029 340 1029 286 1015.5 c 128,-1,16
 232 1002 232 1002 179.5 982.5 c 128,-1,17
 127 963 127 963 85 938 c 1,18,-1
 41 1330 l 1,19,20
 78 1352 78 1352 124.5 1375.5 c 128,-1,21
 171 1399 171 1399 227 1417.5 c 128,-1,22
 283 1436 283 1436 349 1448 c 128,-1,23
 415 1460 415 1460 491 1460 c 0,24,25
 614 1460 614 1460 723.5 1426 c 128,-1,26
 833 1392 833 1392 915 1326 c 128,-1,27
 997 1260 997 1260 1045 1163.5 c 128,-1,28
 1093 1067 1093 1067 1093 942 c 0,29,30
 1093 847 1093 847 1066 789.5 c 128,-1,31
 1039 732 1039 732 997 695 c 128,-1,32
 955 658 955 658 903 633 c 128,-1,33
 851 608 851 608 801.5 578.5 c 128,-1,34
 752 549 752 549 710.5 506 c 128,-1,35
 669 463 669 463 647 390 c 1,0,-1
697 126 m 0,36,37
 697 82 697 82 680 44 c 128,-1,38
 663 6 663 6 634.5 -22.5 c 128,-1,39
 606 -51 606 -51 568 -67.5 c 128,-1,40
 530 -84 530 -84 487 -84 c 0,41,42
 443 -84 443 -84 405 -67.5 c 128,-1,43
 367 -51 367 -51 338.5 -22.5 c 128,-1,44
 310 6 310 6 293.5 44 c 128,-1,45
 277 82 277 82 277 126 c 0,46,47
 277 169 277 169 293.5 208 c 128,-1,48
 310 247 310 247 338.5 275.5 c 128,-1,49
 367 304 367 304 405 321 c 128,-1,50
 443 338 443 338 487 338 c 0,51,52
 530 338 530 338 568 321 c 128,-1,53
 606 304 606 304 634.5 275.5 c 128,-1,54
 663 247 663 247 680 208 c 128,-1,55
 697 169 697 169 697 126 c 0,36,37
EndSplineSet
Validated: 33
EndChar

StartChar: onehalf
Encoding: 189 189 165
Width: 1256
Flags: W
LayerCount: 2
Fore
SplineSet
442 1184 m 1,0,-1
 414 616 l 1,1,-1
 186 624 l 1,2,-1
 198 1000 l 1,3,-1
 116 958 l 1,4,-1
 38 1094 l 1,5,-1
 206 1192 l 1,6,-1
 442 1184 l 1,0,-1
912 1244 m 1,7,8
 784 965 784 965 674.5 676.5 c 128,-1,9
 565 388 565 388 470 94 c 1,10,-1
 262 170 l 1,11,12
 321 315 321 315 379.5 459.5 c 128,-1,13
 438 604 438 604 499.5 747 c 128,-1,14
 561 890 561 890 627 1030.5 c 128,-1,15
 693 1171 693 1171 768 1308 c 1,16,-1
 912 1244 l 1,7,8
1198 486 m 0,17,18
 1198 454 1198 454 1183 425 c 128,-1,19
 1168 396 1168 396 1143.5 370.5 c 128,-1,20
 1119 345 1119 345 1087.5 323.5 c 128,-1,21
 1056 302 1056 302 1024 286 c 1,22,-1
 1190 286 l 1,23,-1
 1176 120 l 1,24,-1
 690 132 l 1,25,-1
 690 278 l 1,26,27
 732 288 732 288 778 305.5 c 128,-1,28
 824 323 824 323 863 347.5 c 128,-1,29
 902 372 902 372 927 403.5 c 128,-1,30
 952 435 952 435 952 474 c 0,31,32
 952 506 952 506 926 521 c 128,-1,33
 900 536 900 536 862 536 c 0,34,35
 832 536 832 536 799.5 526 c 128,-1,36
 767 516 767 516 744 498 c 1,37,-1
 700 656 l 1,38,39
 719 671 719 671 743.5 681 c 128,-1,40
 768 691 768 691 795.5 697 c 128,-1,41
 823 703 823 703 852 705.5 c 128,-1,42
 881 708 881 708 908 708 c 0,43,44
 969 708 969 708 1022 691 c 128,-1,45
 1075 674 1075 674 1114 644 c 128,-1,46
 1153 614 1153 614 1175.5 573.5 c 128,-1,47
 1198 533 1198 533 1198 486 c 0,17,18
EndSplineSet
Validated: 1
Ligature2: "Ligature Substitution lookup 6 subtable" onesuperior fraction twosuperior
Ligature2: "Ligature Substitution lookup 6 subtable" onesuperior slash twosuperior
Ligature2: "Ligature Substitution lookup 6 subtable" one fraction twosuperior
Ligature2: "Ligature Substitution lookup 6 subtable" one fraction two
Ligature2: "Ligature Substitution lookup 6 subtable" one slash twosuperior
Ligature2: "Ligature Substitution lookup 6 subtable" one slash two
EndChar

StartChar: onequarter
Encoding: 188 188 166
Width: 1235
Flags: W
LayerCount: 2
Fore
SplineSet
442 1184 m 1,0,-1
 414 616 l 1,1,-1
 186 624 l 1,2,-1
 200 1000 l 1,3,-1
 116 958 l 1,4,-1
 38 1094 l 1,5,-1
 208 1192 l 1,6,-1
 442 1184 l 1,0,-1
914 1244 m 1,7,8
 784 965 784 965 675 676.5 c 128,-1,9
 566 388 566 388 472 94 c 1,10,-1
 264 170 l 1,11,12
 322 315 322 315 380.5 459.5 c 128,-1,13
 439 604 439 604 500.5 747 c 128,-1,14
 562 890 562 890 628.5 1030.5 c 128,-1,15
 695 1171 695 1171 770 1308 c 1,16,-1
 914 1244 l 1,7,8
1176 332 m 1,17,-1
 1130 330 l 1,18,-1
 1122 158 l 1,19,-1
 886 142 l 1,20,-1
 898 328 l 1,21,-1
 620 322 l 1,22,-1
 698 672 l 1,23,-1
 894 672 l 1,24,-1
 836 428 l 1,25,-1
 906 430 l 1,26,-1
 924 734 l 1,27,-1
 1150 734 l 1,28,-1
 1136 436 l 1,29,-1
 1176 438 l 1,30,-1
 1176 332 l 1,17,-1
EndSplineSet
Validated: 1
Ligature2: "Ligature Substitution lookup 6 subtable" onesuperior fraction four
Ligature2: "Ligature Substitution lookup 6 subtable" onesuperior slash four
Ligature2: "Ligature Substitution lookup 6 subtable" one fraction four
Ligature2: "Ligature Substitution lookup 6 subtable" one slash four
EndChar

StartChar: onesuperior
Encoding: 185 185 167
Width: 448
Flags: W
LayerCount: 2
Fore
SplineSet
400 1184 m 1,0,-1
 370 616 l 1,1,-1
 144 624 l 1,2,-1
 156 1002 l 1,3,-1
 72 958 l 1,4,-1
 -6 1094 l 1,5,-1
 164 1192 l 1,6,-1
 400 1184 l 1,0,-1
EndSplineSet
Validated: 1
EndChar

StartChar: threequarters
Encoding: 190 190 168
Width: 1324
Flags: W
LayerCount: 2
Fore
SplineSet
1017 1244 m 1,0,1
 887 965 887 965 778 676.5 c 128,-1,2
 669 388 669 388 575 94 c 1,3,-1
 367 170 l 1,4,5
 425 315 425 315 483.5 459.5 c 128,-1,6
 542 604 542 604 603.5 747 c 128,-1,7
 665 890 665 890 731.5 1030.5 c 128,-1,8
 798 1171 798 1171 873 1308 c 1,9,-1
 1017 1244 l 1,0,1
1279 332 m 1,10,-1
 1233 330 l 1,11,-1
 1225 158 l 1,12,-1
 989 142 l 1,13,-1
 1001 328 l 1,14,-1
 723 322 l 1,15,-1
 801 672 l 1,16,-1
 997 672 l 1,17,-1
 939 428 l 1,18,-1
 1009 430 l 1,19,-1
 1027 734 l 1,20,-1
 1253 734 l 1,21,-1
 1239 436 l 1,22,-1
 1279 438 l 1,23,-1
 1279 332 l 1,10,-1
579 818 m 0,24,25
 579 765 579 765 557 725.5 c 128,-1,26
 535 686 535 686 496 660.5 c 128,-1,27
 457 635 457 635 402 622.5 c 128,-1,28
 347 610 347 610 281 610 c 0,29,30
 221 610 221 610 158.5 626 c 128,-1,31
 96 642 96 642 45 666 c 1,32,-1
 65 828 l 1,33,34
 84 817 84 817 108.5 808 c 128,-1,35
 133 799 133 799 159.5 791.5 c 128,-1,36
 186 784 186 784 213 780 c 128,-1,37
 240 776 240 776 265 776 c 0,38,39
 280 776 280 776 295.5 777.5 c 128,-1,40
 311 779 311 779 323 783.5 c 128,-1,41
 335 788 335 788 343 797 c 128,-1,42
 351 806 351 806 351 820 c 0,43,44
 351 829 351 829 340.5 836.5 c 128,-1,45
 330 844 330 844 315.5 849 c 128,-1,46
 301 854 301 854 285 857 c 128,-1,47
 269 860 269 860 259 860 c 0,48,49
 252 860 252 860 242 859.5 c 128,-1,50
 232 859 232 859 221.5 857.5 c 128,-1,51
 211 856 211 856 201 854 c 128,-1,52
 191 852 191 852 185 848 c 1,53,-1
 189 964 l 1,54,55
 198 962 198 962 206 962 c 128,-1,56
 214 962 214 962 223 962 c 0,57,58
 242 962 242 962 263.5 964.5 c 128,-1,59
 285 967 285 967 303 974 c 128,-1,60
 321 981 321 981 333 992.5 c 128,-1,61
 345 1004 345 1004 345 1022 c 0,62,63
 345 1035 345 1035 335.5 1043 c 128,-1,64
 326 1051 326 1051 312.5 1055.5 c 128,-1,65
 299 1060 299 1060 282.5 1062 c 128,-1,66
 266 1064 266 1064 253 1064 c 0,67,68
 211 1064 211 1064 170 1052.5 c 128,-1,69
 129 1041 129 1041 97 1020 c 1,70,-1
 55 1166 l 1,71,72
 102 1196 102 1196 163 1211 c 128,-1,73
 224 1226 224 1226 287 1226 c 0,74,75
 343 1226 343 1226 395 1213.5 c 128,-1,76
 447 1201 447 1201 486.5 1177 c 128,-1,77
 526 1153 526 1153 549.5 1116.5 c 128,-1,78
 573 1080 573 1080 573 1032 c 0,79,80
 573 1006 573 1006 553.5 978.5 c 128,-1,81
 534 951 534 951 507 934 c 1,82,83
 529 926 529 926 543 913.5 c 128,-1,84
 557 901 557 901 565 885.5 c 128,-1,85
 573 870 573 870 576 852.5 c 128,-1,86
 579 835 579 835 579 818 c 0,24,25
EndSplineSet
Validated: 1
Ligature2: "Ligature Substitution lookup 6 subtable" threesuperior fraction four
Ligature2: "Ligature Substitution lookup 6 subtable" threesuperior slash four
Ligature2: "Ligature Substitution lookup 6 subtable" three fraction four
Ligature2: "Ligature Substitution lookup 6 subtable" three slash four
EndChar

StartChar: threesuperior
Encoding: 179 179 169
Width: 598
Flags: W
LayerCount: 2
Fore
SplineSet
570 818 m 0,0,1
 570 765 570 765 548 725.5 c 128,-1,2
 526 686 526 686 486.5 660.5 c 128,-1,3
 447 635 447 635 392 622.5 c 128,-1,4
 337 610 337 610 272 610 c 0,5,6
 212 610 212 610 148.5 626 c 128,-1,7
 85 642 85 642 34 666 c 1,8,-1
 54 828 l 1,9,10
 73 818 73 818 97.5 809 c 128,-1,11
 122 800 122 800 148.5 792.5 c 128,-1,12
 175 785 175 785 202 780.5 c 128,-1,13
 229 776 229 776 254 776 c 0,14,15
 269 776 269 776 284.5 777.5 c 128,-1,16
 300 779 300 779 312 783.5 c 128,-1,17
 324 788 324 788 332 797 c 128,-1,18
 340 806 340 806 340 820 c 0,19,20
 340 829 340 829 329.5 836.5 c 128,-1,21
 319 844 319 844 304.5 849 c 128,-1,22
 290 854 290 854 275 857 c 128,-1,23
 260 860 260 860 250 860 c 0,24,25
 242 860 242 860 231.5 859.5 c 128,-1,26
 221 859 221 859 210.5 858 c 128,-1,27
 200 857 200 857 190.5 855 c 128,-1,28
 181 853 181 853 176 850 c 1,29,-1
 178 964 l 1,30,31
 187 962 187 962 195.5 962 c 128,-1,32
 204 962 204 962 212 962 c 0,33,34
 231 962 231 962 252.5 964.5 c 128,-1,35
 274 967 274 967 292 974 c 128,-1,36
 310 981 310 981 322 992.5 c 128,-1,37
 334 1004 334 1004 334 1022 c 0,38,39
 334 1035 334 1035 324.5 1043.5 c 128,-1,40
 315 1052 315 1052 301.5 1056.5 c 128,-1,41
 288 1061 288 1061 271.5 1062.5 c 128,-1,42
 255 1064 255 1064 242 1064 c 0,43,44
 200 1064 200 1064 160 1053.5 c 128,-1,45
 120 1043 120 1043 88 1020 c 1,46,-1
 44 1166 l 1,47,48
 91 1196 91 1196 152.5 1211 c 128,-1,49
 214 1226 214 1226 276 1226 c 0,50,51
 332 1226 332 1226 384 1213.5 c 128,-1,52
 436 1201 436 1201 475.5 1177 c 128,-1,53
 515 1153 515 1153 538.5 1117 c 128,-1,54
 562 1081 562 1081 562 1034 c 0,55,56
 562 1007 562 1007 543 979 c 128,-1,57
 524 951 524 951 498 934 c 1,58,59
 540 919 540 919 555 886 c 128,-1,60
 570 853 570 853 570 818 c 0,0,1
EndSplineSet
Validated: 1
EndChar

StartChar: twosuperior
Encoding: 178 178 170
Width: 586
Flags: W
LayerCount: 2
Fore
SplineSet
550 1000 m 0,0,1
 550 968 550 968 535 939 c 128,-1,2
 520 910 520 910 495.5 884.5 c 128,-1,3
 471 859 471 859 439.5 837.5 c 128,-1,4
 408 816 408 816 376 800 c 1,5,-1
 540 800 l 1,6,-1
 528 634 l 1,7,-1
 42 646 l 1,8,-1
 42 792 l 1,9,10
 84 802 84 802 130 819.5 c 128,-1,11
 176 837 176 837 215 861.5 c 128,-1,12
 254 886 254 886 279 917.5 c 128,-1,13
 304 949 304 949 304 988 c 0,14,15
 304 1020 304 1020 278 1036 c 128,-1,16
 252 1052 252 1052 214 1052 c 0,17,18
 182 1052 182 1052 150.5 1041 c 128,-1,19
 119 1030 119 1030 96 1012 c 1,20,-1
 52 1170 l 1,21,22
 71 1185 71 1185 95.5 1195 c 128,-1,23
 120 1205 120 1205 147.5 1211 c 128,-1,24
 175 1217 175 1217 204 1219.5 c 128,-1,25
 233 1222 233 1222 260 1222 c 0,26,27
 321 1222 321 1222 374 1205 c 128,-1,28
 427 1188 427 1188 466 1158 c 128,-1,29
 505 1128 505 1128 527.5 1087.5 c 128,-1,30
 550 1047 550 1047 550 1000 c 0,0,1
EndSplineSet
Validated: 1
EndChar

StartChar: perthousand
Encoding: 8240 8240 171
Width: 2164
Flags: W
LayerCount: 2
Fore
SplineSet
1443 426 m 0,0,1
 1443 373 1443 373 1421 321.5 c 128,-1,2
 1399 270 1399 270 1357 229.5 c 128,-1,3
 1315 189 1315 189 1255.5 163.5 c 128,-1,4
 1196 138 1196 138 1121 138 c 0,5,6
 1047 138 1047 138 987.5 163.5 c 128,-1,7
 928 189 928 189 886.5 229.5 c 128,-1,8
 845 270 845 270 823 321.5 c 128,-1,9
 801 373 801 373 801 426 c 0,10,11
 801 478 801 478 823 530 c 128,-1,12
 845 582 845 582 886.5 622.5 c 128,-1,13
 928 663 928 663 987.5 688.5 c 128,-1,14
 1047 714 1047 714 1121 714 c 0,15,16
 1196 714 1196 714 1255.5 688.5 c 128,-1,17
 1315 663 1315 663 1357 622.5 c 128,-1,18
 1399 582 1399 582 1421 530 c 128,-1,19
 1443 478 1443 478 1443 426 c 0,0,1
1217 428 m 256,20,21
 1217 444 1217 444 1211.5 462.5 c 128,-1,22
 1206 481 1206 481 1194 497.5 c 128,-1,23
 1182 514 1182 514 1163.5 525 c 128,-1,24
 1145 536 1145 536 1119 536 c 256,25,26
 1093 536 1093 536 1074 525 c 128,-1,27
 1055 514 1055 514 1043 497.5 c 128,-1,28
 1031 481 1031 481 1025 462.5 c 128,-1,29
 1019 444 1019 444 1019 428 c 256,30,31
 1019 412 1019 412 1025 393.5 c 128,-1,32
 1031 375 1031 375 1043 358.5 c 128,-1,33
 1055 342 1055 342 1074 331 c 128,-1,34
 1093 320 1093 320 1119 320 c 256,35,36
 1145 320 1145 320 1163.5 331 c 128,-1,37
 1182 342 1182 342 1194 358.5 c 128,-1,38
 1206 375 1206 375 1211.5 393.5 c 128,-1,39
 1217 412 1217 412 1217 428 c 256,20,21
683 922 m 0,40,41
 683 869 683 869 661 817.5 c 128,-1,42
 639 766 639 766 597 725.5 c 128,-1,43
 555 685 555 685 495.5 659.5 c 128,-1,44
 436 634 436 634 361 634 c 0,45,46
 287 634 287 634 227.5 659.5 c 128,-1,47
 168 685 168 685 126.5 725.5 c 128,-1,48
 85 766 85 766 63 817.5 c 128,-1,49
 41 869 41 869 41 922 c 0,50,51
 41 974 41 974 63 1026 c 128,-1,52
 85 1078 85 1078 126.5 1118.5 c 128,-1,53
 168 1159 168 1159 227.5 1184.5 c 128,-1,54
 287 1210 287 1210 361 1210 c 0,55,56
 436 1210 436 1210 495.5 1184.5 c 128,-1,57
 555 1159 555 1159 597 1118.5 c 128,-1,58
 639 1078 639 1078 661 1026 c 128,-1,59
 683 974 683 974 683 922 c 0,40,41
457 924 m 256,60,61
 457 940 457 940 451.5 958.5 c 128,-1,62
 446 977 446 977 434 993.5 c 128,-1,63
 422 1010 422 1010 403.5 1021 c 128,-1,64
 385 1032 385 1032 359 1032 c 256,65,66
 333 1032 333 1032 314 1021 c 128,-1,67
 295 1010 295 1010 283 993.5 c 128,-1,68
 271 977 271 977 265 958.5 c 128,-1,69
 259 940 259 940 259 924 c 256,70,71
 259 908 259 908 265 889.5 c 128,-1,72
 271 871 271 871 283 854.5 c 128,-1,73
 295 838 295 838 314 827 c 128,-1,74
 333 816 333 816 359 816 c 256,75,76
 385 816 385 816 403.5 827 c 128,-1,77
 422 838 422 838 434 854.5 c 128,-1,78
 446 871 446 871 451.5 889.5 c 128,-1,79
 457 908 457 908 457 924 c 256,60,61
1083 1244 m 1,80,81
 955 965 955 965 845.5 676.5 c 128,-1,82
 736 388 736 388 641 94 c 1,83,-1
 433 170 l 1,84,85
 492 315 492 315 550.5 459.5 c 128,-1,86
 609 604 609 604 670.5 747 c 128,-1,87
 732 890 732 890 798 1030.5 c 128,-1,88
 864 1171 864 1171 939 1308 c 1,89,-1
 1083 1244 l 1,80,81
2123 426 m 0,90,91
 2123 373 2123 373 2101 321.5 c 128,-1,92
 2079 270 2079 270 2037 229.5 c 128,-1,93
 1995 189 1995 189 1935.5 163.5 c 128,-1,94
 1876 138 1876 138 1801 138 c 0,95,96
 1727 138 1727 138 1667.5 163.5 c 128,-1,97
 1608 189 1608 189 1566.5 229.5 c 128,-1,98
 1525 270 1525 270 1503 321.5 c 128,-1,99
 1481 373 1481 373 1481 426 c 0,100,101
 1481 478 1481 478 1503 530 c 128,-1,102
 1525 582 1525 582 1566.5 622.5 c 128,-1,103
 1608 663 1608 663 1667.5 688.5 c 128,-1,104
 1727 714 1727 714 1801 714 c 0,105,106
 1876 714 1876 714 1935.5 688.5 c 128,-1,107
 1995 663 1995 663 2037 622.5 c 128,-1,108
 2079 582 2079 582 2101 530 c 128,-1,109
 2123 478 2123 478 2123 426 c 0,90,91
1897 428 m 256,110,111
 1897 444 1897 444 1891.5 462.5 c 128,-1,112
 1886 481 1886 481 1874 497.5 c 128,-1,113
 1862 514 1862 514 1843.5 525 c 128,-1,114
 1825 536 1825 536 1799 536 c 256,115,116
 1773 536 1773 536 1754 525 c 128,-1,117
 1735 514 1735 514 1723 497.5 c 128,-1,118
 1711 481 1711 481 1705 462.5 c 128,-1,119
 1699 444 1699 444 1699 428 c 256,120,121
 1699 412 1699 412 1705 393.5 c 128,-1,122
 1711 375 1711 375 1723 358.5 c 128,-1,123
 1735 342 1735 342 1754 331 c 128,-1,124
 1773 320 1773 320 1799 320 c 256,125,126
 1825 320 1825 320 1843.5 331 c 128,-1,127
 1862 342 1862 342 1874 358.5 c 128,-1,128
 1886 375 1886 375 1891.5 393.5 c 128,-1,129
 1897 412 1897 412 1897 428 c 256,110,111
EndSplineSet
Validated: 1
Ligature2: "Ligature Substitution lookup 6 subtable" zero fraction zero zero
Ligature2: "Ligature Substitution lookup 6 subtable" zero slash zero zero
EndChar

StartChar: Aring
Encoding: 197 197 199
Width: 1270
Flags: W
LayerCount: 2
Fore
SplineSet
935 1592 m 0,0,1
 935 1547 935 1547 922.5 1506 c 128,-1,2
 910 1465 910 1465 887 1430 c 1,3,-1
 915 1432 l 1,4,-1
 1305 86 l 1,5,-1
 809 22 l 1,6,-1
 749 248 l 1,7,-1
 521 248 l 1,8,-1
 471 22 l 1,9,-1
 -39 72 l 1,10,-1
 359 1404 l 1,11,-1
 395 1406 l 1,12,13
 363 1444 363 1444 346 1491 c 128,-1,14
 329 1538 329 1538 329 1592 c 0,15,16
 329 1653 329 1653 353 1706 c 128,-1,17
 377 1759 377 1759 417.5 1798.5 c 128,-1,18
 458 1838 458 1838 512.5 1861 c 128,-1,19
 567 1884 567 1884 629 1884 c 0,20,21
 693 1884 693 1884 748.5 1861 c 128,-1,22
 804 1838 804 1838 845.5 1798.5 c 128,-1,23
 887 1759 887 1759 911 1706 c 128,-1,24
 935 1653 935 1653 935 1592 c 0,0,1
729 1586 m 0,25,26
 729 1608 729 1608 722.5 1628.5 c 128,-1,27
 716 1649 716 1649 705 1664.5 c 128,-1,28
 694 1680 694 1680 678.5 1689 c 128,-1,29
 663 1698 663 1698 645 1698 c 256,30,31
 627 1698 627 1698 611 1689 c 128,-1,32
 595 1680 595 1680 583 1664.5 c 128,-1,33
 571 1649 571 1649 564 1628.5 c 128,-1,34
 557 1608 557 1608 557 1586 c 0,35,36
 557 1562 557 1562 564 1541 c 128,-1,37
 571 1520 571 1520 583 1505 c 128,-1,38
 595 1490 595 1490 611 1481 c 128,-1,39
 627 1472 627 1472 645 1472 c 0,40,41
 681 1472 681 1472 705 1505 c 128,-1,42
 729 1538 729 1538 729 1586 c 0,25,26
713 554 m 1,43,-1
 637 902 l 1,44,-1
 563 554 l 1,45,-1
 713 554 l 1,43,-1
EndSplineSet
Validated: 1
EndChar

StartChar: Ccedilla
Encoding: 199 199 200
Width: 1056
Flags: W
LayerCount: 2
Fore
SplineSet
830 -234 m 0,0,1
 830 -292 830 -292 811.5 -332 c 128,-1,2
 793 -372 793 -372 760 -397.5 c 128,-1,3
 727 -423 727 -423 682 -434.5 c 128,-1,4
 637 -446 637 -446 584 -446 c 0,5,6
 565 -446 565 -446 541 -443.5 c 128,-1,7
 517 -441 517 -441 492.5 -435.5 c 128,-1,8
 468 -430 468 -430 445 -421.5 c 128,-1,9
 422 -413 422 -413 406 -400 c 1,10,-1
 494 -242 l 1,11,12
 506 -248 506 -248 522 -252 c 128,-1,13
 538 -256 538 -256 552 -256 c 0,14,15
 570 -256 570 -256 588 -245.5 c 128,-1,16
 606 -235 606 -235 606 -214 c 0,17,18
 606 -199 606 -199 597 -189.5 c 128,-1,19
 588 -180 588 -180 574.5 -174 c 128,-1,20
 561 -168 561 -168 546 -166 c 128,-1,21
 531 -164 531 -164 520 -164 c 0,22,23
 500 -164 500 -164 480 -166.5 c 128,-1,24
 460 -169 460 -169 440 -174 c 1,25,-1
 450 36 l 1,26,27
 354 62 354 62 274 117 c 128,-1,28
 194 172 194 172 136 249 c 128,-1,29
 78 326 78 326 46 421.5 c 128,-1,30
 14 517 14 517 14 624 c 0,31,32
 14 795 14 795 63 946.5 c 128,-1,33
 112 1098 112 1098 207 1212 c 128,-1,34
 302 1326 302 1326 442.5 1392 c 128,-1,35
 583 1458 583 1458 766 1458 c 0,36,37
 835 1458 835 1458 907.5 1447 c 128,-1,38
 980 1436 980 1436 1042 1406 c 1,39,-1
 986 984 l 1,40,41
 957 992 957 992 928 995 c 128,-1,42
 899 998 899 998 870 998 c 0,43,44
 796 998 796 998 729 978.5 c 128,-1,45
 662 959 662 959 610.5 919 c 128,-1,46
 559 879 559 879 528.5 819 c 128,-1,47
 498 759 498 759 498 678 c 0,48,49
 498 626 498 626 514.5 588 c 128,-1,50
 531 550 531 550 561 525 c 128,-1,51
 591 500 591 500 632 488 c 128,-1,52
 673 476 673 476 722 476 c 0,53,54
 759 476 759 476 799 484 c 128,-1,55
 839 492 839 492 878 505 c 128,-1,56
 917 518 917 518 954 535 c 128,-1,57
 991 552 991 552 1022 570 c 1,58,-1
 982 100 l 1,59,60
 944 80 944 80 899.5 64.5 c 128,-1,61
 855 49 855 49 808.5 38 c 128,-1,62
 762 27 762 27 714.5 21 c 128,-1,63
 667 15 667 15 624 14 c 1,64,-1
 624 -36 l 1,65,66
 668 -38 668 -38 706 -52 c 128,-1,67
 744 -66 744 -66 771.5 -91.5 c 128,-1,68
 799 -117 799 -117 814.5 -153 c 128,-1,69
 830 -189 830 -189 830 -234 c 0,0,1
EndSplineSet
Validated: 1
EndChar

StartChar: aring
Encoding: 229 229 210
Width: 1270
Flags: W
LayerCount: 2
Fore
SplineSet
935 1568 m 0,0,1
 935 1495 935 1495 901 1430 c 1,2,-1
 915 1432 l 1,3,-1
 1305 86 l 1,4,-1
 809 22 l 1,5,-1
 749 248 l 1,6,-1
 521 248 l 1,7,-1
 471 22 l 1,8,-1
 -39 72 l 1,9,-1
 359 1404 l 1,10,-1
 379 1404 l 1,11,12
 355 1439 355 1439 342 1480 c 128,-1,13
 329 1521 329 1521 329 1568 c 0,14,15
 329 1629 329 1629 353 1682 c 128,-1,16
 377 1735 377 1735 417.5 1774.5 c 128,-1,17
 458 1814 458 1814 512.5 1837 c 128,-1,18
 567 1860 567 1860 629 1860 c 0,19,20
 693 1860 693 1860 748.5 1837 c 128,-1,21
 804 1814 804 1814 845.5 1774.5 c 128,-1,22
 887 1735 887 1735 911 1682 c 128,-1,23
 935 1629 935 1629 935 1568 c 0,0,1
729 1562 m 0,24,25
 729 1584 729 1584 722.5 1604.5 c 128,-1,26
 716 1625 716 1625 705 1640.5 c 128,-1,27
 694 1656 694 1656 678.5 1665 c 128,-1,28
 663 1674 663 1674 645 1674 c 256,29,30
 627 1674 627 1674 611 1665 c 128,-1,31
 595 1656 595 1656 583 1640.5 c 128,-1,32
 571 1625 571 1625 564 1604.5 c 128,-1,33
 557 1584 557 1584 557 1562 c 0,34,35
 557 1538 557 1538 564 1517 c 128,-1,36
 571 1496 571 1496 583 1481 c 128,-1,37
 595 1466 595 1466 611 1457 c 128,-1,38
 627 1448 627 1448 645 1448 c 0,39,40
 681 1448 681 1448 705 1481 c 128,-1,41
 729 1514 729 1514 729 1562 c 0,24,25
713 554 m 1,42,-1
 637 902 l 1,43,-1
 563 554 l 1,44,-1
 713 554 l 1,42,-1
EndSplineSet
Validated: 1
EndChar

StartChar: ccedilla
Encoding: 231 231 211
Width: 1051
Flags: W
LayerCount: 2
Fore
SplineSet
846 -292 m 0,0,1
 846 -350 846 -350 827.5 -390 c 128,-1,2
 809 -430 809 -430 776 -455.5 c 128,-1,3
 743 -481 743 -481 698 -492.5 c 128,-1,4
 653 -504 653 -504 600 -504 c 0,5,6
 581 -504 581 -504 557 -501.5 c 128,-1,7
 533 -499 533 -499 508.5 -493.5 c 128,-1,8
 484 -488 484 -488 461 -479.5 c 128,-1,9
 438 -471 438 -471 422 -458 c 1,10,-1
 510 -300 l 1,11,12
 522 -306 522 -306 538 -310 c 128,-1,13
 554 -314 554 -314 568 -314 c 0,14,15
 586 -314 586 -314 604 -303.5 c 128,-1,16
 622 -293 622 -293 622 -272 c 0,17,18
 622 -257 622 -257 613 -247.5 c 128,-1,19
 604 -238 604 -238 590.5 -232 c 128,-1,20
 577 -226 577 -226 562 -224 c 128,-1,21
 547 -222 547 -222 536 -222 c 0,22,23
 516 -222 516 -222 496 -224.5 c 128,-1,24
 476 -227 476 -227 456 -232 c 1,25,-1
 466 0 l 1,26,27
 363 30 363 30 280 91.5 c 128,-1,28
 197 153 197 153 138.5 237.5 c 128,-1,29
 80 322 80 322 48 425.5 c 128,-1,30
 16 529 16 529 16 642 c 0,31,32
 16 806 16 806 62.5 948 c 128,-1,33
 109 1090 109 1090 199.5 1194.5 c 128,-1,34
 290 1299 290 1299 423.5 1358.5 c 128,-1,35
 557 1418 557 1418 730 1418 c 0,36,37
 799 1418 799 1418 870 1407 c 128,-1,38
 941 1396 941 1396 1006 1366 c 1,39,-1
 970 944 l 1,40,41
 941 952 941 952 913 955 c 128,-1,42
 885 958 885 958 856 958 c 0,43,44
 785 958 785 958 720.5 940 c 128,-1,45
 656 922 656 922 606.5 885 c 128,-1,46
 557 848 557 848 527.5 791.5 c 128,-1,47
 498 735 498 735 498 658 c 0,48,49
 498 602 498 602 514.5 560.5 c 128,-1,50
 531 519 531 519 561.5 491.5 c 128,-1,51
 592 464 592 464 635.5 450 c 128,-1,52
 679 436 679 436 732 436 c 0,53,54
 769 436 769 436 808 443.5 c 128,-1,55
 847 451 847 451 886 464 c 128,-1,56
 925 477 925 477 961 494 c 128,-1,57
 997 511 997 511 1028 530 c 1,58,-1
 1012 60 l 1,59,60
 973 40 973 40 928 24.5 c 128,-1,61
 883 9 883 9 835.5 -2.5 c 128,-1,62
 788 -14 788 -14 740.5 -20 c 128,-1,63
 693 -26 693 -26 650 -26 c 2,64,-1
 640 -26 l 1,65,-1
 640 -94 l 1,66,67
 684 -96 684 -96 722 -110 c 128,-1,68
 760 -124 760 -124 787.5 -149.5 c 128,-1,69
 815 -175 815 -175 830.5 -211 c 128,-1,70
 846 -247 846 -247 846 -292 c 0,0,1
EndSplineSet
Validated: 1
EndChar

StartChar: dotlessj
Encoding: 567 567 230
Width: 1044
Flags: W
LayerCount: 2
Fore
SplineSet
1006 824 m 0,0,1
 1006 765 1006 765 1006 707 c 128,-1,2
 1006 649 1006 649 1000 590 c 0,3,4
 989 465 989 465 946 353.5 c 128,-1,5
 903 242 903 242 829.5 158 c 128,-1,6
 756 74 756 74 651 25 c 128,-1,7
 546 -24 546 -24 410 -24 c 0,8,9
 357 -24 357 -24 299.5 -15 c 128,-1,10
 242 -6 242 -6 185.5 12 c 128,-1,11
 129 30 129 30 77.5 56.5 c 128,-1,12
 26 83 26 83 -14 118 c 1,13,-1
 48 532 l 1,14,15
 107 475 107 475 179 439.5 c 128,-1,16
 251 404 251 404 336 404 c 0,17,18
 391 404 391 404 429 420 c 128,-1,19
 467 436 467 436 492 464 c 128,-1,20
 517 492 517 492 531.5 529.5 c 128,-1,21
 546 567 546 567 552.5 609.5 c 128,-1,22
 559 652 559 652 560.5 697 c 128,-1,23
 562 742 562 742 562 786 c 0,24,25
 562 945 562 945 546 1102.5 c 128,-1,26
 530 1260 530 1260 518 1418 c 1,27,-1
 976 1448 l 1,28,29
 1006 1136 1006 1136 1006 824 c 0,0,1
EndSplineSet
Validated: 1
EndChar

StartChar: currency
Encoding: 164 164 231
Width: 876
Flags: W
LayerCount: 2
Fore
SplineSet
515 709 m 0,0,1
 515 731 515 731 508.5 751.5 c 128,-1,2
 502 772 502 772 491 787.5 c 128,-1,3
 480 803 480 803 464.5 812 c 128,-1,4
 449 821 449 821 431 821 c 256,5,6
 413 821 413 821 397 812 c 128,-1,7
 381 803 381 803 369 787.5 c 128,-1,8
 357 772 357 772 350 751.5 c 128,-1,9
 343 731 343 731 343 709 c 0,10,11
 343 685 343 685 350 664 c 128,-1,12
 357 643 357 643 369 628 c 128,-1,13
 381 613 381 613 397 604 c 128,-1,14
 413 595 413 595 431 595 c 0,15,16
 467 595 467 595 491 628 c 128,-1,17
 515 661 515 661 515 709 c 0,0,1
25 532 m 1,18,-1
 126 634 l 1,19,20
 115 675 115 675 115 715 c 0,21,22
 115 738 115 738 118.5 759.5 c 128,-1,23
 122 781 122 781 128 801 c 1,24,-1
 35 898 l 1,25,-1
 245 1114 l 1,26,-1
 363 1002 l 1,27,28
 376 1004 376 1004 388.5 1005.5 c 128,-1,29
 401 1007 401 1007 415 1007 c 0,30,31
 433 1007 433 1007 450.5 1005 c 128,-1,32
 468 1003 468 1003 485 999 c 1,33,-1
 595 1108 l 1,34,-1
 837 912 l 1,35,-1
 712 784 l 1,36,37
 721 751 721 751 721 715 c 0,38,39
 721 695 721 695 718 674 c 1,40,-1
 851 550 l 1,41,-1
 611 306 l 1,42,-1
 493 427 l 1,43,44
 456 419 456 419 421 419 c 0,45,46
 406 419 406 419 391 420.5 c 128,-1,47
 376 422 376 422 362 424 c 1,48,-1
 247 306 l 1,49,-1
 25 532 l 1,18,-1
EndSplineSet
Validated: 1
EndChar

StartChar: uni00AD
Encoding: 173 173 232
Width: 783
Flags: W
LayerCount: 2
Fore
SplineSet
69 552 m 1,0,-1
 65 852 l 1,1,-1
 711 882 l 1,2,-1
 715 540 l 1,3,-1
 69 552 l 1,0,-1
EndSplineSet
Validated: 1
EndChar

StartChar: uni0312
Encoding: 786 786 233
Width: 311
Flags: W
LayerCount: 2
Fore
SplineSet
10 1145 m 2,0,1
 10 1178 10 1178 24 1217.5 c 128,-1,2
 38 1257 38 1257 63 1296 c 128,-1,3
 88 1335 88 1335 123.5 1369.5 c 128,-1,4
 159 1404 159 1404 203 1427 c 1,5,6
 204 1399 204 1399 205 1373 c 0,7,8
 206 1350 206 1350 207 1324 c 128,-1,9
 208 1298 208 1298 210 1278 c 1,10,11
 253 1262 253 1262 278.5 1224 c 128,-1,12
 304 1186 304 1186 304 1140 c 0,13,14
 304 1110 304 1110 292.5 1083.5 c 128,-1,15
 281 1057 281 1057 261 1037 c 128,-1,16
 241 1017 241 1017 214 1005 c 128,-1,17
 187 993 187 993 157 993 c 256,18,19
 127 993 127 993 100 1005 c 128,-1,20
 73 1017 73 1017 52.5 1037 c 128,-1,21
 32 1057 32 1057 20.5 1083.5 c 128,-1,22
 9 1110 9 1110 10 1140 c 1,23,-1
 10 1145 l 2,0,1
EndSplineSet
Validated: 1
EndChar

StartChar: uni0315
Encoding: 789 789 234
Width: 308
Flags: W
LayerCount: 2
Fore
SplineSet
301 1283 m 2,0,1
 301 1250 301 1250 287 1210.5 c 128,-1,2
 273 1171 273 1171 248 1132 c 128,-1,3
 223 1093 223 1093 187.5 1058.5 c 128,-1,4
 152 1024 152 1024 108 1001 c 1,5,6
 108 1001 108 1001 107.5 1017 c 128,-1,7
 107 1033 107 1033 106 1055.5 c 128,-1,8
 105 1078 105 1078 103.5 1104 c 128,-1,9
 102 1130 102 1130 101 1150 c 1,10,11
 57 1166 57 1166 32 1204 c 128,-1,12
 7 1242 7 1242 7 1288 c 0,13,14
 7 1318 7 1318 18.5 1344.5 c 128,-1,15
 30 1371 30 1371 50 1391 c 128,-1,16
 70 1411 70 1411 97 1423 c 128,-1,17
 124 1435 124 1435 154 1435 c 256,18,19
 184 1435 184 1435 211 1423 c 128,-1,20
 238 1411 238 1411 258 1391 c 128,-1,21
 278 1371 278 1371 289.5 1344.5 c 128,-1,22
 301 1318 301 1318 301 1288 c 2,23,-1
 301 1283 l 2,0,1
EndSplineSet
Validated: 1
EndChar

StartChar: uni0326
Encoding: 806 806 235
Width: 323
Flags: W
LayerCount: 2
Fore
SplineSet
308 -241 m 2,0,1
 308 -274 308 -274 294 -313.5 c 128,-1,2
 280 -353 280 -353 255 -392 c 128,-1,3
 230 -431 230 -431 194.5 -465.5 c 128,-1,4
 159 -500 159 -500 115 -523 c 1,5,6
 115 -523 115 -523 114.5 -507 c 128,-1,7
 114 -491 114 -491 113 -468.5 c 128,-1,8
 112 -446 112 -446 110.5 -420 c 128,-1,9
 109 -394 109 -394 108 -374 c 1,10,11
 64 -358 64 -358 39 -320 c 128,-1,12
 14 -282 14 -282 14 -236 c 0,13,14
 14 -206 14 -206 25.5 -179.5 c 128,-1,15
 37 -153 37 -153 57 -133 c 128,-1,16
 77 -113 77 -113 104 -101 c 128,-1,17
 131 -89 131 -89 161 -89 c 256,18,19
 191 -89 191 -89 218 -101 c 128,-1,20
 245 -113 245 -113 265 -133 c 128,-1,21
 285 -153 285 -153 296.5 -179.5 c 128,-1,22
 308 -206 308 -206 308 -236 c 2,23,-1
 308 -241 l 2,0,1
EndSplineSet
Validated: 1
EndChar

StartChar: Aogonek
Encoding: 260 260 242
Width: 1282
Flags: W
LayerCount: 2
Fore
SplineSet
1289 -235 m 1,0,1
 1245 -277 1245 -277 1190 -308 c 128,-1,2
 1135 -339 1135 -339 1073 -339 c 0,3,4
 1027 -339 1027 -339 986.5 -323.5 c 128,-1,5
 946 -308 946 -308 915.5 -280.5 c 128,-1,6
 885 -253 885 -253 867 -214.5 c 128,-1,7
 849 -176 849 -176 849 -129 c 0,8,9
 849 -83 849 -83 866 -42.5 c 128,-1,10
 883 -2 883 -2 910 34 c 1,11,-1
 816 22 l 1,12,-1
 756 248 l 1,13,-1
 528 248 l 1,14,-1
 478 22 l 1,15,-1
 -32 72 l 1,16,-1
 366 1404 l 1,17,-1
 922 1432 l 1,18,-1
 1312 86 l 1,19,-1
 1161 66 l 1,20,21
 1145 46 1145 46 1128 23 c 128,-1,22
 1111 0 1111 0 1097.5 -22 c 128,-1,23
 1084 -44 1084 -44 1075.5 -64 c 128,-1,24
 1067 -84 1067 -84 1067 -99 c 0,25,26
 1067 -117 1067 -117 1080 -129 c 128,-1,27
 1093 -141 1093 -141 1111 -141 c 0,28,29
 1131 -141 1131 -141 1155 -125.5 c 128,-1,30
 1179 -110 1179 -110 1191 -93 c 1,31,-1
 1289 -235 l 1,0,1
720 554 m 1,32,-1
 644 902 l 1,33,-1
 570 554 l 1,34,-1
 720 554 l 1,32,-1
EndSplineSet
Validated: 1
EndChar

StartChar: aogonek
Encoding: 261 261 243
Width: 1282
Flags: W
LayerCount: 2
Fore
SplineSet
1284 -241 m 1,0,1
 1240 -283 1240 -283 1185 -314 c 128,-1,2
 1130 -345 1130 -345 1068 -345 c 0,3,4
 1022 -345 1022 -345 981.5 -329.5 c 128,-1,5
 941 -314 941 -314 910.5 -286.5 c 128,-1,6
 880 -259 880 -259 862 -220.5 c 128,-1,7
 844 -182 844 -182 844 -135 c 0,8,9
 844 -87 844 -87 862 -45 c 128,-1,10
 880 -3 880 -3 909 34 c 1,11,-1
 816 22 l 1,12,-1
 756 248 l 1,13,-1
 528 248 l 1,14,-1
 478 22 l 1,15,-1
 -32 72 l 1,16,-1
 366 1404 l 1,17,-1
 922 1432 l 1,18,-1
 1312 86 l 1,19,-1
 1161 66 l 1,20,21
 1145 45 1145 45 1127.5 21.5 c 128,-1,22
 1110 -2 1110 -2 1095.5 -25 c 128,-1,23
 1081 -48 1081 -48 1071.5 -69 c 128,-1,24
 1062 -90 1062 -90 1062 -105 c 0,25,26
 1062 -123 1062 -123 1075 -135 c 128,-1,27
 1088 -147 1088 -147 1106 -147 c 0,28,29
 1126 -147 1126 -147 1150 -131.5 c 128,-1,30
 1174 -116 1174 -116 1186 -99 c 1,31,-1
 1284 -241 l 1,0,1
720 554 m 1,32,-1
 644 902 l 1,33,-1
 570 554 l 1,34,-1
 720 554 l 1,32,-1
EndSplineSet
Validated: 1
EndChar

StartChar: Dcroat
Encoding: 272 272 254
Width: 1262
Flags: W
LayerCount: 2
Fore
SplineSet
127 776 m 1,0,-1
 141 1360 l 1,1,2
 251 1395 251 1395 367.5 1409.5 c 128,-1,3
 484 1424 484 1424 599 1424 c 0,4,5
 742 1424 742 1424 862 1381 c 128,-1,6
 982 1338 982 1338 1069 1257 c 128,-1,7
 1156 1176 1156 1176 1204.5 1059 c 128,-1,8
 1253 942 1253 942 1253 794 c 0,9,10
 1253 654 1253 654 1217 541.5 c 128,-1,11
 1181 429 1181 429 1116.5 341.5 c 128,-1,12
 1052 254 1052 254 963 191 c 128,-1,13
 874 128 874 128 768 87.5 c 128,-1,14
 662 47 662 47 542 27.5 c 128,-1,15
 422 8 422 8 297 8 c 0,16,17
 250 8 250 8 205 10.5 c 128,-1,18
 160 13 160 13 113 18 c 1,19,-1
 125 604 l 1,20,-1
 -25 598 l 1,21,-1
 -29 780 l 1,22,-1
 127 776 l 1,0,-1
843 730 m 1,23,24
 844 784 844 784 831.5 834 c 128,-1,25
 819 884 819 884 790.5 922.5 c 128,-1,26
 762 961 762 961 718 984.5 c 128,-1,27
 674 1008 674 1008 613 1010 c 1,28,-1
 597 770 l 1,29,-1
 697 768 l 1,30,-1
 701 628 l 1,31,-1
 591 622 l 1,32,-1
 573 390 l 1,33,34
 633 399 633 399 682 429.5 c 128,-1,35
 731 460 731 460 766.5 504.5 c 128,-1,36
 802 549 802 549 821.5 603.5 c 128,-1,37
 841 658 841 658 843 716 c 1,38,-1
 843 730 l 1,23,24
EndSplineSet
Validated: 33
EndChar

StartChar: dcroat
Encoding: 273 273 255
Width: 1262
Flags: W
LayerCount: 2
Fore
SplineSet
127 776 m 1,0,-1
 141 1360 l 1,1,2
 251 1395 251 1395 367.5 1409.5 c 128,-1,3
 484 1424 484 1424 599 1424 c 0,4,5
 742 1424 742 1424 862 1381 c 128,-1,6
 982 1338 982 1338 1069 1257 c 128,-1,7
 1156 1176 1156 1176 1204.5 1059 c 128,-1,8
 1253 942 1253 942 1253 794 c 0,9,10
 1253 654 1253 654 1217 541.5 c 128,-1,11
 1181 429 1181 429 1116.5 341.5 c 128,-1,12
 1052 254 1052 254 963 191 c 128,-1,13
 874 128 874 128 768 87.5 c 128,-1,14
 662 47 662 47 542 27.5 c 128,-1,15
 422 8 422 8 297 8 c 0,16,17
 250 8 250 8 205 10.5 c 128,-1,18
 160 13 160 13 113 18 c 1,19,-1
 125 604 l 1,20,-1
 -25 598 l 1,21,-1
 -29 780 l 1,22,-1
 127 776 l 1,0,-1
843 730 m 1,23,24
 844 784 844 784 831.5 834 c 128,-1,25
 819 884 819 884 790.5 922.5 c 128,-1,26
 762 961 762 961 718 984.5 c 128,-1,27
 674 1008 674 1008 613 1010 c 1,28,-1
 597 770 l 1,29,-1
 697 768 l 1,30,-1
 701 628 l 1,31,-1
 591 622 l 1,32,-1
 573 390 l 1,33,34
 633 399 633 399 682 429.5 c 128,-1,35
 731 460 731 460 766.5 504.5 c 128,-1,36
 802 549 802 549 821.5 603.5 c 128,-1,37
 841 658 841 658 843 716 c 1,38,-1
 843 730 l 1,23,24
EndSplineSet
Validated: 33
EndChar

